<?xml version="1.0" encoding="utf-8" standalone="no"?>
<!DOCTYPE svg PUBLIC "-//W3C//DTD SVG 1.1//EN"
  "http://www.w3.org/Graphics/SVG/1.1/DTD/svg11.dtd">
<svg xmlns:xlink="http://www.w3.org/1999/xlink" width="377.29875pt" height="349.455469pt" viewBox="0 0 377.29875 349.455469" xmlns="http://www.w3.org/2000/svg" version="1.1">
 <metadata>
  <rdf:RDF xmlns:dc="http://purl.org/dc/elements/1.1/" xmlns:cc="http://creativecommons.org/ns#" xmlns:rdf="http://www.w3.org/1999/02/22-rdf-syntax-ns#">
   <cc:Work>
    <dc:type rdf:resource="http://purl.org/dc/dcmitype/StillImage"/>
    <dc:date>2023-01-11T09:28:20.981921</dc:date>
    <dc:format>image/svg+xml</dc:format>
    <dc:creator>
     <cc:Agent>
      <dc:title>Matplotlib v3.5.2, https://matplotlib.org/</dc:title>
     </cc:Agent>
    </dc:creator>
   </cc:Work>
  </rdf:RDF>
 </metadata>
 <defs>
  <style type="text/css">*{stroke-linejoin: round; stroke-linecap: butt}</style>
 </defs>
 <g id="figure_1">
  <g id="patch_1">
   <path d="M 0 349.455469 
L 377.29875 349.455469 
L 377.29875 0 
L 0 0 
z
" style="fill: #ffffff"/>
  </g>
  <g id="axes_1">
   <g id="patch_2">
    <path d="M 146.89875 299.143125 
L 370.09875 299.143125 
L 370.09875 21.943125 
L 146.89875 21.943125 
z
" style="fill: #ffffff"/>
   </g>
   <g id="matplotlib.axis_1">
    <g id="xtick_1">
     <g id="text_1">
      <!-- 0 -->
      <g style="fill: #262626" transform="translate(144.7125 314.760156)rotate(-90)scale(0.11 -0.11)">
       <defs>
        <path id="ArialMT-30" d="M 266 2259 
Q 266 3072 433 3567 
Q 600 4063 929 4331 
Q 1259 4600 1759 4600 
Q 2128 4600 2406 4451 
Q 2684 4303 2865 4023 
Q 3047 3744 3150 3342 
Q 3253 2941 3253 2259 
Q 3253 1453 3087 958 
Q 2922 463 2592 192 
Q 2263 -78 1759 -78 
Q 1097 -78 719 397 
Q 266 969 266 2259 
z
M 844 2259 
Q 844 1131 1108 757 
Q 1372 384 1759 384 
Q 2147 384 2411 759 
Q 2675 1134 2675 2259 
Q 2675 3391 2411 3762 
Q 2147 4134 1753 4134 
Q 1366 4134 1134 3806 
Q 844 3388 844 2259 
z
" transform="scale(0.015625)"/>
       </defs>
       <use xlink:href="#ArialMT-30"/>
      </g>
     </g>
    </g>
    <g id="xtick_2">
     <g id="text_2">
      <!-- 50 -->
      <g style="fill: #262626" transform="translate(208.740039 320.877187)rotate(-90)scale(0.11 -0.11)">
       <defs>
        <path id="ArialMT-35" d="M 266 1200 
L 856 1250 
Q 922 819 1161 601 
Q 1400 384 1738 384 
Q 2144 384 2425 690 
Q 2706 997 2706 1503 
Q 2706 1984 2436 2262 
Q 2166 2541 1728 2541 
Q 1456 2541 1237 2417 
Q 1019 2294 894 2097 
L 366 2166 
L 809 4519 
L 3088 4519 
L 3088 3981 
L 1259 3981 
L 1013 2750 
Q 1425 3038 1878 3038 
Q 2478 3038 2890 2622 
Q 3303 2206 3303 1553 
Q 3303 931 2941 478 
Q 2500 -78 1738 -78 
Q 1113 -78 717 272 
Q 322 622 266 1200 
z
" transform="scale(0.015625)"/>
       </defs>
       <use xlink:href="#ArialMT-35"/>
       <use xlink:href="#ArialMT-30" x="55.615234"/>
      </g>
     </g>
    </g>
    <g id="xtick_3">
     <g id="text_3">
      <!-- 100 -->
      <g style="fill: #262626" transform="translate(272.767577 326.994219)rotate(-90)scale(0.11 -0.11)">
       <defs>
        <path id="ArialMT-31" d="M 2384 0 
L 1822 0 
L 1822 3584 
Q 1619 3391 1289 3197 
Q 959 3003 697 2906 
L 697 3450 
Q 1169 3672 1522 3987 
Q 1875 4303 2022 4600 
L 2384 4600 
L 2384 0 
z
" transform="scale(0.015625)"/>
       </defs>
       <use xlink:href="#ArialMT-31"/>
       <use xlink:href="#ArialMT-30" x="55.615234"/>
       <use xlink:href="#ArialMT-30" x="111.230469"/>
      </g>
     </g>
    </g>
    <g id="xtick_4">
     <g id="text_4">
      <!-- 150 -->
      <g style="fill: #262626" transform="translate(336.795116 326.994219)rotate(-90)scale(0.11 -0.11)">
       <use xlink:href="#ArialMT-31"/>
       <use xlink:href="#ArialMT-35" x="55.615234"/>
       <use xlink:href="#ArialMT-30" x="111.230469"/>
      </g>
     </g>
    </g>
    <g id="text_5">
     <!-- Number DTx Trials listing Condition -->
     <g style="fill: #262626" transform="translate(164.47125 339.729844)scale(0.12 -0.12)">
      <defs>
       <path id="ArialMT-4e" d="M 488 0 
L 488 4581 
L 1109 4581 
L 3516 984 
L 3516 4581 
L 4097 4581 
L 4097 0 
L 3475 0 
L 1069 3600 
L 1069 0 
L 488 0 
z
" transform="scale(0.015625)"/>
       <path id="ArialMT-75" d="M 2597 0 
L 2597 488 
Q 2209 -75 1544 -75 
Q 1250 -75 995 37 
Q 741 150 617 320 
Q 494 491 444 738 
Q 409 903 409 1263 
L 409 3319 
L 972 3319 
L 972 1478 
Q 972 1038 1006 884 
Q 1059 663 1231 536 
Q 1403 409 1656 409 
Q 1909 409 2131 539 
Q 2353 669 2445 892 
Q 2538 1116 2538 1541 
L 2538 3319 
L 3100 3319 
L 3100 0 
L 2597 0 
z
" transform="scale(0.015625)"/>
       <path id="ArialMT-6d" d="M 422 0 
L 422 3319 
L 925 3319 
L 925 2853 
Q 1081 3097 1340 3245 
Q 1600 3394 1931 3394 
Q 2300 3394 2536 3241 
Q 2772 3088 2869 2813 
Q 3263 3394 3894 3394 
Q 4388 3394 4653 3120 
Q 4919 2847 4919 2278 
L 4919 0 
L 4359 0 
L 4359 2091 
Q 4359 2428 4304 2576 
Q 4250 2725 4106 2815 
Q 3963 2906 3769 2906 
Q 3419 2906 3187 2673 
Q 2956 2441 2956 1928 
L 2956 0 
L 2394 0 
L 2394 2156 
Q 2394 2531 2256 2718 
Q 2119 2906 1806 2906 
Q 1569 2906 1367 2781 
Q 1166 2656 1075 2415 
Q 984 2175 984 1722 
L 984 0 
L 422 0 
z
" transform="scale(0.015625)"/>
       <path id="ArialMT-62" d="M 941 0 
L 419 0 
L 419 4581 
L 981 4581 
L 981 2947 
Q 1338 3394 1891 3394 
Q 2197 3394 2470 3270 
Q 2744 3147 2920 2923 
Q 3097 2700 3197 2384 
Q 3297 2069 3297 1709 
Q 3297 856 2875 390 
Q 2453 -75 1863 -75 
Q 1275 -75 941 416 
L 941 0 
z
M 934 1684 
Q 934 1088 1097 822 
Q 1363 388 1816 388 
Q 2184 388 2453 708 
Q 2722 1028 2722 1663 
Q 2722 2313 2464 2622 
Q 2206 2931 1841 2931 
Q 1472 2931 1203 2611 
Q 934 2291 934 1684 
z
" transform="scale(0.015625)"/>
       <path id="ArialMT-65" d="M 2694 1069 
L 3275 997 
Q 3138 488 2766 206 
Q 2394 -75 1816 -75 
Q 1088 -75 661 373 
Q 234 822 234 1631 
Q 234 2469 665 2931 
Q 1097 3394 1784 3394 
Q 2450 3394 2872 2941 
Q 3294 2488 3294 1666 
Q 3294 1616 3291 1516 
L 816 1516 
Q 847 969 1125 678 
Q 1403 388 1819 388 
Q 2128 388 2347 550 
Q 2566 713 2694 1069 
z
M 847 1978 
L 2700 1978 
Q 2663 2397 2488 2606 
Q 2219 2931 1791 2931 
Q 1403 2931 1139 2672 
Q 875 2413 847 1978 
z
" transform="scale(0.015625)"/>
       <path id="ArialMT-72" d="M 416 0 
L 416 3319 
L 922 3319 
L 922 2816 
Q 1116 3169 1280 3281 
Q 1444 3394 1641 3394 
Q 1925 3394 2219 3213 
L 2025 2691 
Q 1819 2813 1613 2813 
Q 1428 2813 1281 2702 
Q 1134 2591 1072 2394 
Q 978 2094 978 1738 
L 978 0 
L 416 0 
z
" transform="scale(0.015625)"/>
       <path id="ArialMT-20" transform="scale(0.015625)"/>
       <path id="ArialMT-44" d="M 494 0 
L 494 4581 
L 2072 4581 
Q 2606 4581 2888 4516 
Q 3281 4425 3559 4188 
Q 3922 3881 4101 3404 
Q 4281 2928 4281 2316 
Q 4281 1794 4159 1391 
Q 4038 988 3847 723 
Q 3656 459 3429 307 
Q 3203 156 2883 78 
Q 2563 0 2147 0 
L 494 0 
z
M 1100 541 
L 2078 541 
Q 2531 541 2789 625 
Q 3047 709 3200 863 
Q 3416 1078 3536 1442 
Q 3656 1806 3656 2325 
Q 3656 3044 3420 3430 
Q 3184 3816 2847 3947 
Q 2603 4041 2063 4041 
L 1100 4041 
L 1100 541 
z
" transform="scale(0.015625)"/>
       <path id="ArialMT-54" d="M 1659 0 
L 1659 4041 
L 150 4041 
L 150 4581 
L 3781 4581 
L 3781 4041 
L 2266 4041 
L 2266 0 
L 1659 0 
z
" transform="scale(0.015625)"/>
       <path id="ArialMT-78" d="M 47 0 
L 1259 1725 
L 138 3319 
L 841 3319 
L 1350 2541 
Q 1494 2319 1581 2169 
Q 1719 2375 1834 2534 
L 2394 3319 
L 3066 3319 
L 1919 1756 
L 3153 0 
L 2463 0 
L 1781 1031 
L 1600 1309 
L 728 0 
L 47 0 
z
" transform="scale(0.015625)"/>
       <path id="ArialMT-69" d="M 425 3934 
L 425 4581 
L 988 4581 
L 988 3934 
L 425 3934 
z
M 425 0 
L 425 3319 
L 988 3319 
L 988 0 
L 425 0 
z
" transform="scale(0.015625)"/>
       <path id="ArialMT-61" d="M 2588 409 
Q 2275 144 1986 34 
Q 1697 -75 1366 -75 
Q 819 -75 525 192 
Q 231 459 231 875 
Q 231 1119 342 1320 
Q 453 1522 633 1644 
Q 813 1766 1038 1828 
Q 1203 1872 1538 1913 
Q 2219 1994 2541 2106 
Q 2544 2222 2544 2253 
Q 2544 2597 2384 2738 
Q 2169 2928 1744 2928 
Q 1347 2928 1158 2789 
Q 969 2650 878 2297 
L 328 2372 
Q 403 2725 575 2942 
Q 747 3159 1072 3276 
Q 1397 3394 1825 3394 
Q 2250 3394 2515 3294 
Q 2781 3194 2906 3042 
Q 3031 2891 3081 2659 
Q 3109 2516 3109 2141 
L 3109 1391 
Q 3109 606 3145 398 
Q 3181 191 3288 0 
L 2700 0 
Q 2613 175 2588 409 
z
M 2541 1666 
Q 2234 1541 1622 1453 
Q 1275 1403 1131 1340 
Q 988 1278 909 1158 
Q 831 1038 831 891 
Q 831 666 1001 516 
Q 1172 366 1500 366 
Q 1825 366 2078 508 
Q 2331 650 2450 897 
Q 2541 1088 2541 1459 
L 2541 1666 
z
" transform="scale(0.015625)"/>
       <path id="ArialMT-6c" d="M 409 0 
L 409 4581 
L 972 4581 
L 972 0 
L 409 0 
z
" transform="scale(0.015625)"/>
       <path id="ArialMT-73" d="M 197 991 
L 753 1078 
Q 800 744 1014 566 
Q 1228 388 1613 388 
Q 2000 388 2187 545 
Q 2375 703 2375 916 
Q 2375 1106 2209 1216 
Q 2094 1291 1634 1406 
Q 1016 1563 777 1677 
Q 538 1791 414 1992 
Q 291 2194 291 2438 
Q 291 2659 392 2848 
Q 494 3038 669 3163 
Q 800 3259 1026 3326 
Q 1253 3394 1513 3394 
Q 1903 3394 2198 3281 
Q 2494 3169 2634 2976 
Q 2775 2784 2828 2463 
L 2278 2388 
Q 2241 2644 2061 2787 
Q 1881 2931 1553 2931 
Q 1166 2931 1000 2803 
Q 834 2675 834 2503 
Q 834 2394 903 2306 
Q 972 2216 1119 2156 
Q 1203 2125 1616 2013 
Q 2213 1853 2448 1751 
Q 2684 1650 2818 1456 
Q 2953 1263 2953 975 
Q 2953 694 2789 445 
Q 2625 197 2315 61 
Q 2006 -75 1616 -75 
Q 969 -75 630 194 
Q 291 463 197 991 
z
" transform="scale(0.015625)"/>
       <path id="ArialMT-74" d="M 1650 503 
L 1731 6 
Q 1494 -44 1306 -44 
Q 1000 -44 831 53 
Q 663 150 594 308 
Q 525 466 525 972 
L 525 2881 
L 113 2881 
L 113 3319 
L 525 3319 
L 525 4141 
L 1084 4478 
L 1084 3319 
L 1650 3319 
L 1650 2881 
L 1084 2881 
L 1084 941 
Q 1084 700 1114 631 
Q 1144 563 1211 522 
Q 1278 481 1403 481 
Q 1497 481 1650 503 
z
" transform="scale(0.015625)"/>
       <path id="ArialMT-6e" d="M 422 0 
L 422 3319 
L 928 3319 
L 928 2847 
Q 1294 3394 1984 3394 
Q 2284 3394 2536 3286 
Q 2788 3178 2913 3003 
Q 3038 2828 3088 2588 
Q 3119 2431 3119 2041 
L 3119 0 
L 2556 0 
L 2556 2019 
Q 2556 2363 2490 2533 
Q 2425 2703 2258 2804 
Q 2091 2906 1866 2906 
Q 1506 2906 1245 2678 
Q 984 2450 984 1813 
L 984 0 
L 422 0 
z
" transform="scale(0.015625)"/>
       <path id="ArialMT-67" d="M 319 -275 
L 866 -356 
Q 900 -609 1056 -725 
Q 1266 -881 1628 -881 
Q 2019 -881 2231 -725 
Q 2444 -569 2519 -288 
Q 2563 -116 2559 434 
Q 2191 0 1641 0 
Q 956 0 581 494 
Q 206 988 206 1678 
Q 206 2153 378 2554 
Q 550 2956 876 3175 
Q 1203 3394 1644 3394 
Q 2231 3394 2613 2919 
L 2613 3319 
L 3131 3319 
L 3131 450 
Q 3131 -325 2973 -648 
Q 2816 -972 2473 -1159 
Q 2131 -1347 1631 -1347 
Q 1038 -1347 672 -1080 
Q 306 -813 319 -275 
z
M 784 1719 
Q 784 1066 1043 766 
Q 1303 466 1694 466 
Q 2081 466 2343 764 
Q 2606 1063 2606 1700 
Q 2606 2309 2336 2618 
Q 2066 2928 1684 2928 
Q 1309 2928 1046 2623 
Q 784 2319 784 1719 
z
" transform="scale(0.015625)"/>
       <path id="ArialMT-43" d="M 3763 1606 
L 4369 1453 
Q 4178 706 3683 314 
Q 3188 -78 2472 -78 
Q 1731 -78 1267 223 
Q 803 525 561 1097 
Q 319 1669 319 2325 
Q 319 3041 592 3573 
Q 866 4106 1370 4382 
Q 1875 4659 2481 4659 
Q 3169 4659 3637 4309 
Q 4106 3959 4291 3325 
L 3694 3184 
Q 3534 3684 3231 3912 
Q 2928 4141 2469 4141 
Q 1941 4141 1586 3887 
Q 1231 3634 1087 3207 
Q 944 2781 944 2328 
Q 944 1744 1114 1308 
Q 1284 872 1643 656 
Q 2003 441 2422 441 
Q 2931 441 3284 734 
Q 3638 1028 3763 1606 
z
" transform="scale(0.015625)"/>
       <path id="ArialMT-6f" d="M 213 1659 
Q 213 2581 725 3025 
Q 1153 3394 1769 3394 
Q 2453 3394 2887 2945 
Q 3322 2497 3322 1706 
Q 3322 1066 3130 698 
Q 2938 331 2570 128 
Q 2203 -75 1769 -75 
Q 1072 -75 642 372 
Q 213 819 213 1659 
z
M 791 1659 
Q 791 1022 1069 705 
Q 1347 388 1769 388 
Q 2188 388 2466 706 
Q 2744 1025 2744 1678 
Q 2744 2294 2464 2611 
Q 2184 2928 1769 2928 
Q 1347 2928 1069 2612 
Q 791 2297 791 1659 
z
" transform="scale(0.015625)"/>
       <path id="ArialMT-64" d="M 2575 0 
L 2575 419 
Q 2259 -75 1647 -75 
Q 1250 -75 917 144 
Q 584 363 401 755 
Q 219 1147 219 1656 
Q 219 2153 384 2558 
Q 550 2963 881 3178 
Q 1213 3394 1622 3394 
Q 1922 3394 2156 3267 
Q 2391 3141 2538 2938 
L 2538 4581 
L 3097 4581 
L 3097 0 
L 2575 0 
z
M 797 1656 
Q 797 1019 1065 703 
Q 1334 388 1700 388 
Q 2069 388 2326 689 
Q 2584 991 2584 1609 
Q 2584 2291 2321 2609 
Q 2059 2928 1675 2928 
Q 1300 2928 1048 2622 
Q 797 2316 797 1656 
z
" transform="scale(0.015625)"/>
      </defs>
      <use xlink:href="#ArialMT-4e"/>
      <use xlink:href="#ArialMT-75" x="72.216797"/>
      <use xlink:href="#ArialMT-6d" x="127.832031"/>
      <use xlink:href="#ArialMT-62" x="211.132812"/>
      <use xlink:href="#ArialMT-65" x="266.748047"/>
      <use xlink:href="#ArialMT-72" x="322.363281"/>
      <use xlink:href="#ArialMT-20" x="355.664062"/>
      <use xlink:href="#ArialMT-44" x="383.447266"/>
      <use xlink:href="#ArialMT-54" x="455.664062"/>
      <use xlink:href="#ArialMT-78" x="516.748047"/>
      <use xlink:href="#ArialMT-20" x="566.748047"/>
      <use xlink:href="#ArialMT-54" x="592.78125"/>
      <use xlink:href="#ArialMT-72" x="650.115234"/>
      <use xlink:href="#ArialMT-69" x="683.416016"/>
      <use xlink:href="#ArialMT-61" x="705.632812"/>
      <use xlink:href="#ArialMT-6c" x="761.248047"/>
      <use xlink:href="#ArialMT-73" x="783.464844"/>
      <use xlink:href="#ArialMT-20" x="833.464844"/>
      <use xlink:href="#ArialMT-6c" x="861.248047"/>
      <use xlink:href="#ArialMT-69" x="883.464844"/>
      <use xlink:href="#ArialMT-73" x="905.681641"/>
      <use xlink:href="#ArialMT-74" x="955.681641"/>
      <use xlink:href="#ArialMT-69" x="983.464844"/>
      <use xlink:href="#ArialMT-6e" x="1005.681641"/>
      <use xlink:href="#ArialMT-67" x="1061.296875"/>
      <use xlink:href="#ArialMT-20" x="1116.912109"/>
      <use xlink:href="#ArialMT-43" x="1144.695312"/>
      <use xlink:href="#ArialMT-6f" x="1216.912109"/>
      <use xlink:href="#ArialMT-6e" x="1272.527344"/>
      <use xlink:href="#ArialMT-64" x="1328.142578"/>
      <use xlink:href="#ArialMT-69" x="1383.757812"/>
      <use xlink:href="#ArialMT-74" x="1405.974609"/>
      <use xlink:href="#ArialMT-69" x="1433.757812"/>
      <use xlink:href="#ArialMT-6f" x="1455.974609"/>
      <use xlink:href="#ArialMT-6e" x="1511.589844"/>
     </g>
    </g>
   </g>
   <g id="matplotlib.axis_2">
    <g id="ytick_1">
     <g id="text_6">
      <!-- Obesity -->
      <g style="fill: #262626" transform="translate(100.10875 32.880391)scale(0.11 -0.11)">
       <defs>
        <path id="ArialMT-4f" d="M 309 2231 
Q 309 3372 921 4017 
Q 1534 4663 2503 4663 
Q 3138 4663 3647 4359 
Q 4156 4056 4423 3514 
Q 4691 2972 4691 2284 
Q 4691 1588 4409 1038 
Q 4128 488 3612 205 
Q 3097 -78 2500 -78 
Q 1853 -78 1343 234 
Q 834 547 571 1087 
Q 309 1628 309 2231 
z
M 934 2222 
Q 934 1394 1379 917 
Q 1825 441 2497 441 
Q 3181 441 3623 922 
Q 4066 1403 4066 2288 
Q 4066 2847 3877 3264 
Q 3688 3681 3323 3911 
Q 2959 4141 2506 4141 
Q 1863 4141 1398 3698 
Q 934 3256 934 2222 
z
" transform="scale(0.015625)"/>
        <path id="ArialMT-79" d="M 397 -1278 
L 334 -750 
Q 519 -800 656 -800 
Q 844 -800 956 -737 
Q 1069 -675 1141 -563 
Q 1194 -478 1313 -144 
Q 1328 -97 1363 -6 
L 103 3319 
L 709 3319 
L 1400 1397 
Q 1534 1031 1641 628 
Q 1738 1016 1872 1384 
L 2581 3319 
L 3144 3319 
L 1881 -56 
Q 1678 -603 1566 -809 
Q 1416 -1088 1222 -1217 
Q 1028 -1347 759 -1347 
Q 597 -1347 397 -1278 
z
" transform="scale(0.015625)"/>
       </defs>
       <use xlink:href="#ArialMT-4f"/>
       <use xlink:href="#ArialMT-62" x="77.783203"/>
       <use xlink:href="#ArialMT-65" x="133.398438"/>
       <use xlink:href="#ArialMT-73" x="189.013672"/>
       <use xlink:href="#ArialMT-69" x="239.013672"/>
       <use xlink:href="#ArialMT-74" x="261.230469"/>
       <use xlink:href="#ArialMT-79" x="289.013672"/>
      </g>
     </g>
    </g>
    <g id="ytick_2">
     <g id="text_7">
      <!-- Multiple Sclerosis -->
      <g style="fill: #262626" transform="translate(51.81875 46.736953)scale(0.11 -0.11)">
       <defs>
        <path id="ArialMT-4d" d="M 475 0 
L 475 4581 
L 1388 4581 
L 2472 1338 
Q 2622 884 2691 659 
Q 2769 909 2934 1394 
L 4031 4581 
L 4847 4581 
L 4847 0 
L 4263 0 
L 4263 3834 
L 2931 0 
L 2384 0 
L 1059 3900 
L 1059 0 
L 475 0 
z
" transform="scale(0.015625)"/>
        <path id="ArialMT-70" d="M 422 -1272 
L 422 3319 
L 934 3319 
L 934 2888 
Q 1116 3141 1344 3267 
Q 1572 3394 1897 3394 
Q 2322 3394 2647 3175 
Q 2972 2956 3137 2557 
Q 3303 2159 3303 1684 
Q 3303 1175 3120 767 
Q 2938 359 2589 142 
Q 2241 -75 1856 -75 
Q 1575 -75 1351 44 
Q 1128 163 984 344 
L 984 -1272 
L 422 -1272 
z
M 931 1641 
Q 931 1000 1190 694 
Q 1450 388 1819 388 
Q 2194 388 2461 705 
Q 2728 1022 2728 1688 
Q 2728 2322 2467 2637 
Q 2206 2953 1844 2953 
Q 1484 2953 1207 2617 
Q 931 2281 931 1641 
z
" transform="scale(0.015625)"/>
        <path id="ArialMT-53" d="M 288 1472 
L 859 1522 
Q 900 1178 1048 958 
Q 1197 738 1509 602 
Q 1822 466 2213 466 
Q 2559 466 2825 569 
Q 3091 672 3220 851 
Q 3350 1031 3350 1244 
Q 3350 1459 3225 1620 
Q 3100 1781 2813 1891 
Q 2628 1963 1997 2114 
Q 1366 2266 1113 2400 
Q 784 2572 623 2826 
Q 463 3081 463 3397 
Q 463 3744 659 4045 
Q 856 4347 1234 4503 
Q 1613 4659 2075 4659 
Q 2584 4659 2973 4495 
Q 3363 4331 3572 4012 
Q 3781 3694 3797 3291 
L 3216 3247 
Q 3169 3681 2898 3903 
Q 2628 4125 2100 4125 
Q 1550 4125 1298 3923 
Q 1047 3722 1047 3438 
Q 1047 3191 1225 3031 
Q 1400 2872 2139 2705 
Q 2878 2538 3153 2413 
Q 3553 2228 3743 1945 
Q 3934 1663 3934 1294 
Q 3934 928 3725 604 
Q 3516 281 3123 101 
Q 2731 -78 2241 -78 
Q 1619 -78 1198 103 
Q 778 284 539 648 
Q 300 1013 288 1472 
z
" transform="scale(0.015625)"/>
        <path id="ArialMT-63" d="M 2588 1216 
L 3141 1144 
Q 3050 572 2676 248 
Q 2303 -75 1759 -75 
Q 1078 -75 664 370 
Q 250 816 250 1647 
Q 250 2184 428 2587 
Q 606 2991 970 3192 
Q 1334 3394 1763 3394 
Q 2303 3394 2647 3120 
Q 2991 2847 3088 2344 
L 2541 2259 
Q 2463 2594 2264 2762 
Q 2066 2931 1784 2931 
Q 1359 2931 1093 2626 
Q 828 2322 828 1663 
Q 828 994 1084 691 
Q 1341 388 1753 388 
Q 2084 388 2306 591 
Q 2528 794 2588 1216 
z
" transform="scale(0.015625)"/>
       </defs>
       <use xlink:href="#ArialMT-4d"/>
       <use xlink:href="#ArialMT-75" x="83.300781"/>
       <use xlink:href="#ArialMT-6c" x="138.916016"/>
       <use xlink:href="#ArialMT-74" x="161.132812"/>
       <use xlink:href="#ArialMT-69" x="188.916016"/>
       <use xlink:href="#ArialMT-70" x="211.132812"/>
       <use xlink:href="#ArialMT-6c" x="266.748047"/>
       <use xlink:href="#ArialMT-65" x="288.964844"/>
       <use xlink:href="#ArialMT-20" x="344.580078"/>
       <use xlink:href="#ArialMT-53" x="372.363281"/>
       <use xlink:href="#ArialMT-63" x="439.0625"/>
       <use xlink:href="#ArialMT-6c" x="489.0625"/>
       <use xlink:href="#ArialMT-65" x="511.279297"/>
       <use xlink:href="#ArialMT-72" x="566.894531"/>
       <use xlink:href="#ArialMT-6f" x="600.195312"/>
       <use xlink:href="#ArialMT-73" x="655.810547"/>
       <use xlink:href="#ArialMT-69" x="705.810547"/>
       <use xlink:href="#ArialMT-73" x="728.027344"/>
      </g>
     </g>
    </g>
    <g id="ytick_3">
     <g id="text_8">
      <!-- Breast Cancer -->
      <g style="fill: #262626" transform="translate(67.095 60.529922)scale(0.11 -0.11)">
       <defs>
        <path id="ArialMT-42" d="M 469 0 
L 469 4581 
L 2188 4581 
Q 2713 4581 3030 4442 
Q 3347 4303 3526 4014 
Q 3706 3725 3706 3409 
Q 3706 3116 3547 2856 
Q 3388 2597 3066 2438 
Q 3481 2316 3704 2022 
Q 3928 1728 3928 1328 
Q 3928 1006 3792 729 
Q 3656 453 3456 303 
Q 3256 153 2954 76 
Q 2653 0 2216 0 
L 469 0 
z
M 1075 2656 
L 2066 2656 
Q 2469 2656 2644 2709 
Q 2875 2778 2992 2937 
Q 3109 3097 3109 3338 
Q 3109 3566 3000 3739 
Q 2891 3913 2687 3977 
Q 2484 4041 1991 4041 
L 1075 4041 
L 1075 2656 
z
M 1075 541 
L 2216 541 
Q 2509 541 2628 563 
Q 2838 600 2978 687 
Q 3119 775 3209 942 
Q 3300 1109 3300 1328 
Q 3300 1584 3169 1773 
Q 3038 1963 2805 2039 
Q 2572 2116 2134 2116 
L 1075 2116 
L 1075 541 
z
" transform="scale(0.015625)"/>
       </defs>
       <use xlink:href="#ArialMT-42"/>
       <use xlink:href="#ArialMT-72" x="66.699219"/>
       <use xlink:href="#ArialMT-65" x="100"/>
       <use xlink:href="#ArialMT-61" x="155.615234"/>
       <use xlink:href="#ArialMT-73" x="211.230469"/>
       <use xlink:href="#ArialMT-74" x="261.230469"/>
       <use xlink:href="#ArialMT-20" x="289.013672"/>
       <use xlink:href="#ArialMT-43" x="316.796875"/>
       <use xlink:href="#ArialMT-61" x="389.013672"/>
       <use xlink:href="#ArialMT-6e" x="444.628906"/>
       <use xlink:href="#ArialMT-63" x="500.244141"/>
       <use xlink:href="#ArialMT-65" x="550.244141"/>
       <use xlink:href="#ArialMT-72" x="605.859375"/>
      </g>
     </g>
    </g>
    <g id="ytick_4">
     <g id="text_9">
      <!-- Stroke -->
      <g style="fill: #262626" transform="translate(105.60875 74.389922)scale(0.11 -0.11)">
       <defs>
        <path id="ArialMT-6b" d="M 425 0 
L 425 4581 
L 988 4581 
L 988 1969 
L 2319 3319 
L 3047 3319 
L 1778 2088 
L 3175 0 
L 2481 0 
L 1384 1697 
L 988 1316 
L 988 0 
L 425 0 
z
" transform="scale(0.015625)"/>
       </defs>
       <use xlink:href="#ArialMT-53"/>
       <use xlink:href="#ArialMT-74" x="66.699219"/>
       <use xlink:href="#ArialMT-72" x="94.482422"/>
       <use xlink:href="#ArialMT-6f" x="127.783203"/>
       <use xlink:href="#ArialMT-6b" x="183.398438"/>
       <use xlink:href="#ArialMT-65" x="233.398438"/>
      </g>
     </g>
    </g>
    <g id="ytick_5">
     <g id="text_10">
      <!-- Depression -->
      <g style="fill: #262626" transform="translate(81.762812 88.249922)scale(0.11 -0.11)">
       <use xlink:href="#ArialMT-44"/>
       <use xlink:href="#ArialMT-65" x="72.216797"/>
       <use xlink:href="#ArialMT-70" x="127.832031"/>
       <use xlink:href="#ArialMT-72" x="183.447266"/>
       <use xlink:href="#ArialMT-65" x="216.748047"/>
       <use xlink:href="#ArialMT-73" x="272.363281"/>
       <use xlink:href="#ArialMT-73" x="322.363281"/>
       <use xlink:href="#ArialMT-69" x="372.363281"/>
       <use xlink:href="#ArialMT-6f" x="394.580078"/>
       <use xlink:href="#ArialMT-6e" x="450.195312"/>
      </g>
     </g>
    </g>
    <g id="ytick_6">
     <g id="text_11">
      <!-- Mild Cognitive Impairment -->
      <g style="fill: #262626" transform="translate(10.250781 102.176953)scale(0.11 -0.11)">
       <defs>
        <path id="ArialMT-76" d="M 1344 0 
L 81 3319 
L 675 3319 
L 1388 1331 
Q 1503 1009 1600 663 
Q 1675 925 1809 1294 
L 2547 3319 
L 3125 3319 
L 1869 0 
L 1344 0 
z
" transform="scale(0.015625)"/>
        <path id="ArialMT-49" d="M 597 0 
L 597 4581 
L 1203 4581 
L 1203 0 
L 597 0 
z
" transform="scale(0.015625)"/>
       </defs>
       <use xlink:href="#ArialMT-4d"/>
       <use xlink:href="#ArialMT-69" x="83.300781"/>
       <use xlink:href="#ArialMT-6c" x="105.517578"/>
       <use xlink:href="#ArialMT-64" x="127.734375"/>
       <use xlink:href="#ArialMT-20" x="183.349609"/>
       <use xlink:href="#ArialMT-43" x="211.132812"/>
       <use xlink:href="#ArialMT-6f" x="283.349609"/>
       <use xlink:href="#ArialMT-67" x="338.964844"/>
       <use xlink:href="#ArialMT-6e" x="394.580078"/>
       <use xlink:href="#ArialMT-69" x="450.195312"/>
       <use xlink:href="#ArialMT-74" x="472.412109"/>
       <use xlink:href="#ArialMT-69" x="500.195312"/>
       <use xlink:href="#ArialMT-76" x="522.412109"/>
       <use xlink:href="#ArialMT-65" x="572.412109"/>
       <use xlink:href="#ArialMT-20" x="628.027344"/>
       <use xlink:href="#ArialMT-49" x="655.810547"/>
       <use xlink:href="#ArialMT-6d" x="683.59375"/>
       <use xlink:href="#ArialMT-70" x="766.894531"/>
       <use xlink:href="#ArialMT-61" x="822.509766"/>
       <use xlink:href="#ArialMT-69" x="878.125"/>
       <use xlink:href="#ArialMT-72" x="900.341797"/>
       <use xlink:href="#ArialMT-6d" x="933.642578"/>
       <use xlink:href="#ArialMT-65" x="1016.943359"/>
       <use xlink:href="#ArialMT-6e" x="1072.558594"/>
       <use xlink:href="#ArialMT-74" x="1128.173828"/>
      </g>
     </g>
    </g>
    <g id="ytick_7">
     <g id="text_12">
      <!-- Anxiety -->
      <g style="fill: #262626" transform="translate(101.327344 115.969922)scale(0.11 -0.11)">
       <defs>
        <path id="ArialMT-41" d="M -9 0 
L 1750 4581 
L 2403 4581 
L 4278 0 
L 3588 0 
L 3053 1388 
L 1138 1388 
L 634 0 
L -9 0 
z
M 1313 1881 
L 2866 1881 
L 2388 3150 
Q 2169 3728 2063 4100 
Q 1975 3659 1816 3225 
L 1313 1881 
z
" transform="scale(0.015625)"/>
       </defs>
       <use xlink:href="#ArialMT-41"/>
       <use xlink:href="#ArialMT-6e" x="66.699219"/>
       <use xlink:href="#ArialMT-78" x="122.314453"/>
       <use xlink:href="#ArialMT-69" x="172.314453"/>
       <use xlink:href="#ArialMT-65" x="194.53125"/>
       <use xlink:href="#ArialMT-74" x="250.146484"/>
       <use xlink:href="#ArialMT-79" x="277.929688"/>
      </g>
     </g>
    </g>
    <g id="ytick_8">
     <g id="text_13">
      <!-- Healthy -->
      <g style="fill: #262626" transform="translate(100.103594 129.829922)scale(0.11 -0.11)">
       <defs>
        <path id="ArialMT-48" d="M 513 0 
L 513 4581 
L 1119 4581 
L 1119 2700 
L 3500 2700 
L 3500 4581 
L 4106 4581 
L 4106 0 
L 3500 0 
L 3500 2159 
L 1119 2159 
L 1119 0 
L 513 0 
z
" transform="scale(0.015625)"/>
        <path id="ArialMT-68" d="M 422 0 
L 422 4581 
L 984 4581 
L 984 2938 
Q 1378 3394 1978 3394 
Q 2347 3394 2619 3248 
Q 2891 3103 3008 2847 
Q 3125 2591 3125 2103 
L 3125 0 
L 2563 0 
L 2563 2103 
Q 2563 2525 2380 2717 
Q 2197 2909 1863 2909 
Q 1613 2909 1392 2779 
Q 1172 2650 1078 2428 
Q 984 2206 984 1816 
L 984 0 
L 422 0 
z
" transform="scale(0.015625)"/>
       </defs>
       <use xlink:href="#ArialMT-48"/>
       <use xlink:href="#ArialMT-65" x="72.216797"/>
       <use xlink:href="#ArialMT-61" x="127.832031"/>
       <use xlink:href="#ArialMT-6c" x="183.447266"/>
       <use xlink:href="#ArialMT-74" x="205.664062"/>
       <use xlink:href="#ArialMT-68" x="233.447266"/>
       <use xlink:href="#ArialMT-79" x="289.0625"/>
      </g>
     </g>
    </g>
    <g id="ytick_9">
     <g id="text_14">
      <!-- Schizophrenia -->
      <g style="fill: #262626" transform="translate(67.691406 143.756953)scale(0.11 -0.11)">
       <defs>
        <path id="ArialMT-7a" d="M 125 0 
L 125 456 
L 2238 2881 
Q 1878 2863 1603 2863 
L 250 2863 
L 250 3319 
L 2963 3319 
L 2963 2947 
L 1166 841 
L 819 456 
Q 1197 484 1528 484 
L 3063 484 
L 3063 0 
L 125 0 
z
" transform="scale(0.015625)"/>
       </defs>
       <use xlink:href="#ArialMT-53"/>
       <use xlink:href="#ArialMT-63" x="66.699219"/>
       <use xlink:href="#ArialMT-68" x="116.699219"/>
       <use xlink:href="#ArialMT-69" x="172.314453"/>
       <use xlink:href="#ArialMT-7a" x="194.53125"/>
       <use xlink:href="#ArialMT-6f" x="244.53125"/>
       <use xlink:href="#ArialMT-70" x="300.146484"/>
       <use xlink:href="#ArialMT-68" x="355.761719"/>
       <use xlink:href="#ArialMT-72" x="411.376953"/>
       <use xlink:href="#ArialMT-65" x="444.677734"/>
       <use xlink:href="#ArialMT-6e" x="500.292969"/>
       <use xlink:href="#ArialMT-69" x="555.908203"/>
       <use xlink:href="#ArialMT-61" x="578.125"/>
      </g>
     </g>
    </g>
    <g id="ytick_10">
     <g id="text_15">
      <!-- Hypertension -->
      <g style="fill: #262626" transform="translate(72.589844 157.549922)scale(0.11 -0.11)">
       <use xlink:href="#ArialMT-48"/>
       <use xlink:href="#ArialMT-79" x="72.216797"/>
       <use xlink:href="#ArialMT-70" x="122.216797"/>
       <use xlink:href="#ArialMT-65" x="177.832031"/>
       <use xlink:href="#ArialMT-72" x="233.447266"/>
       <use xlink:href="#ArialMT-74" x="266.748047"/>
       <use xlink:href="#ArialMT-65" x="294.53125"/>
       <use xlink:href="#ArialMT-6e" x="350.146484"/>
       <use xlink:href="#ArialMT-73" x="405.761719"/>
       <use xlink:href="#ArialMT-69" x="455.761719"/>
       <use xlink:href="#ArialMT-6f" x="477.978516"/>
       <use xlink:href="#ArialMT-6e" x="533.59375"/>
      </g>
     </g>
    </g>
    <g id="ytick_11">
     <g id="text_16">
      <!-- Prostate Cancer -->
      <g style="fill: #262626" transform="translate(57.922031 171.409922)scale(0.11 -0.11)">
       <defs>
        <path id="ArialMT-50" d="M 494 0 
L 494 4581 
L 2222 4581 
Q 2678 4581 2919 4538 
Q 3256 4481 3484 4323 
Q 3713 4166 3852 3881 
Q 3991 3597 3991 3256 
Q 3991 2672 3619 2267 
Q 3247 1863 2275 1863 
L 1100 1863 
L 1100 0 
L 494 0 
z
M 1100 2403 
L 2284 2403 
Q 2872 2403 3119 2622 
Q 3366 2841 3366 3238 
Q 3366 3525 3220 3729 
Q 3075 3934 2838 4000 
Q 2684 4041 2272 4041 
L 1100 4041 
L 1100 2403 
z
" transform="scale(0.015625)"/>
       </defs>
       <use xlink:href="#ArialMT-50"/>
       <use xlink:href="#ArialMT-72" x="66.699219"/>
       <use xlink:href="#ArialMT-6f" x="100"/>
       <use xlink:href="#ArialMT-73" x="155.615234"/>
       <use xlink:href="#ArialMT-74" x="205.615234"/>
       <use xlink:href="#ArialMT-61" x="233.398438"/>
       <use xlink:href="#ArialMT-74" x="289.013672"/>
       <use xlink:href="#ArialMT-65" x="316.796875"/>
       <use xlink:href="#ArialMT-20" x="372.412109"/>
       <use xlink:href="#ArialMT-43" x="400.195312"/>
       <use xlink:href="#ArialMT-61" x="472.412109"/>
       <use xlink:href="#ArialMT-6e" x="528.027344"/>
       <use xlink:href="#ArialMT-63" x="583.642578"/>
       <use xlink:href="#ArialMT-65" x="633.642578"/>
       <use xlink:href="#ArialMT-72" x="689.257812"/>
      </g>
     </g>
    </g>
    <g id="ytick_12">
     <g id="text_17">
      <!-- Cognitive Impairment -->
      <g style="fill: #262626" transform="translate(33.474531 185.336953)scale(0.11 -0.11)">
       <use xlink:href="#ArialMT-43"/>
       <use xlink:href="#ArialMT-6f" x="72.216797"/>
       <use xlink:href="#ArialMT-67" x="127.832031"/>
       <use xlink:href="#ArialMT-6e" x="183.447266"/>
       <use xlink:href="#ArialMT-69" x="239.0625"/>
       <use xlink:href="#ArialMT-74" x="261.279297"/>
       <use xlink:href="#ArialMT-69" x="289.0625"/>
       <use xlink:href="#ArialMT-76" x="311.279297"/>
       <use xlink:href="#ArialMT-65" x="361.279297"/>
       <use xlink:href="#ArialMT-20" x="416.894531"/>
       <use xlink:href="#ArialMT-49" x="444.677734"/>
       <use xlink:href="#ArialMT-6d" x="472.460938"/>
       <use xlink:href="#ArialMT-70" x="555.761719"/>
       <use xlink:href="#ArialMT-61" x="611.376953"/>
       <use xlink:href="#ArialMT-69" x="666.992188"/>
       <use xlink:href="#ArialMT-72" x="689.208984"/>
       <use xlink:href="#ArialMT-6d" x="722.509766"/>
       <use xlink:href="#ArialMT-65" x="805.810547"/>
       <use xlink:href="#ArialMT-6e" x="861.425781"/>
       <use xlink:href="#ArialMT-74" x="917.041016"/>
      </g>
     </g>
    </g>
    <g id="ytick_13">
     <g id="text_18">
      <!-- Pain -->
      <g style="fill: #262626" transform="translate(115.383281 199.129922)scale(0.11 -0.11)">
       <use xlink:href="#ArialMT-50"/>
       <use xlink:href="#ArialMT-61" x="66.699219"/>
       <use xlink:href="#ArialMT-69" x="122.314453"/>
       <use xlink:href="#ArialMT-6e" x="144.53125"/>
      </g>
     </g>
    </g>
    <g id="ytick_14">
     <g id="text_19">
      <!-- Alzheimer Disease -->
      <g style="fill: #262626" transform="translate(45.701719 212.989922)scale(0.11 -0.11)">
       <use xlink:href="#ArialMT-41"/>
       <use xlink:href="#ArialMT-6c" x="66.699219"/>
       <use xlink:href="#ArialMT-7a" x="88.916016"/>
       <use xlink:href="#ArialMT-68" x="138.916016"/>
       <use xlink:href="#ArialMT-65" x="194.53125"/>
       <use xlink:href="#ArialMT-69" x="250.146484"/>
       <use xlink:href="#ArialMT-6d" x="272.363281"/>
       <use xlink:href="#ArialMT-65" x="355.664062"/>
       <use xlink:href="#ArialMT-72" x="411.279297"/>
       <use xlink:href="#ArialMT-20" x="444.580078"/>
       <use xlink:href="#ArialMT-44" x="472.363281"/>
       <use xlink:href="#ArialMT-69" x="544.580078"/>
       <use xlink:href="#ArialMT-73" x="566.796875"/>
       <use xlink:href="#ArialMT-65" x="616.796875"/>
       <use xlink:href="#ArialMT-61" x="672.412109"/>
       <use xlink:href="#ArialMT-73" x="728.027344"/>
       <use xlink:href="#ArialMT-65" x="778.027344"/>
      </g>
     </g>
    </g>
    <g id="ytick_15">
     <g id="text_20">
      <!-- Dementia -->
      <g style="fill: #262626" transform="translate(90.323906 226.849922)scale(0.11 -0.11)">
       <use xlink:href="#ArialMT-44"/>
       <use xlink:href="#ArialMT-65" x="72.216797"/>
       <use xlink:href="#ArialMT-6d" x="127.832031"/>
       <use xlink:href="#ArialMT-65" x="211.132812"/>
       <use xlink:href="#ArialMT-6e" x="266.748047"/>
       <use xlink:href="#ArialMT-74" x="322.363281"/>
       <use xlink:href="#ArialMT-69" x="350.146484"/>
       <use xlink:href="#ArialMT-61" x="372.363281"/>
      </g>
     </g>
    </g>
    <g id="ytick_16">
     <g id="text_21">
      <!-- Quality of Life -->
      <g style="fill: #262626" transform="translate(70.145781 240.780391)scale(0.11 -0.11)">
       <defs>
        <path id="ArialMT-51" d="M 3966 491 
Q 4388 200 4744 66 
L 4566 -356 
Q 4072 -178 3581 206 
Q 3072 -78 2456 -78 
Q 1834 -78 1328 222 
Q 822 522 548 1065 
Q 275 1609 275 2291 
Q 275 2969 550 3525 
Q 825 4081 1333 4372 
Q 1841 4663 2469 4663 
Q 3103 4663 3612 4361 
Q 4122 4059 4389 3517 
Q 4656 2975 4656 2294 
Q 4656 1728 4484 1276 
Q 4313 825 3966 491 
z
M 2631 1266 
Q 3156 1119 3497 828 
Q 4031 1316 4031 2294 
Q 4031 2850 3842 3265 
Q 3653 3681 3289 3911 
Q 2925 4141 2472 4141 
Q 1794 4141 1347 3677 
Q 900 3213 900 2291 
Q 900 1397 1342 919 
Q 1784 441 2472 441 
Q 2797 441 3084 563 
Q 2800 747 2484 825 
L 2631 1266 
z
" transform="scale(0.015625)"/>
        <path id="ArialMT-66" d="M 556 0 
L 556 2881 
L 59 2881 
L 59 3319 
L 556 3319 
L 556 3672 
Q 556 4006 616 4169 
Q 697 4388 901 4523 
Q 1106 4659 1475 4659 
Q 1713 4659 2000 4603 
L 1916 4113 
Q 1741 4144 1584 4144 
Q 1328 4144 1222 4034 
Q 1116 3925 1116 3625 
L 1116 3319 
L 1763 3319 
L 1763 2881 
L 1116 2881 
L 1116 0 
L 556 0 
z
" transform="scale(0.015625)"/>
        <path id="ArialMT-4c" d="M 469 0 
L 469 4581 
L 1075 4581 
L 1075 541 
L 3331 541 
L 3331 0 
L 469 0 
z
" transform="scale(0.015625)"/>
       </defs>
       <use xlink:href="#ArialMT-51"/>
       <use xlink:href="#ArialMT-75" x="77.783203"/>
       <use xlink:href="#ArialMT-61" x="133.398438"/>
       <use xlink:href="#ArialMT-6c" x="189.013672"/>
       <use xlink:href="#ArialMT-69" x="211.230469"/>
       <use xlink:href="#ArialMT-74" x="233.447266"/>
       <use xlink:href="#ArialMT-79" x="261.230469"/>
       <use xlink:href="#ArialMT-20" x="311.230469"/>
       <use xlink:href="#ArialMT-6f" x="339.013672"/>
       <use xlink:href="#ArialMT-66" x="394.628906"/>
       <use xlink:href="#ArialMT-20" x="422.412109"/>
       <use xlink:href="#ArialMT-4c" x="450.195312"/>
       <use xlink:href="#ArialMT-69" x="505.810547"/>
       <use xlink:href="#ArialMT-66" x="528.027344"/>
       <use xlink:href="#ArialMT-65" x="555.810547"/>
      </g>
     </g>
    </g>
    <g id="ytick_17">
     <g id="text_22">
      <!-- Major Depressive Disorder -->
      <g style="fill: #262626" transform="translate(7.2 254.569922)scale(0.11 -0.11)">
       <defs>
        <path id="ArialMT-6a" d="M 419 3928 
L 419 4581 
L 981 4581 
L 981 3928 
L 419 3928 
z
M -294 -1288 
L -188 -809 
Q -19 -853 78 -853 
Q 250 -853 334 -739 
Q 419 -625 419 -169 
L 419 3319 
L 981 3319 
L 981 -181 
Q 981 -794 822 -1034 
Q 619 -1347 147 -1347 
Q -81 -1347 -294 -1288 
z
" transform="scale(0.015625)"/>
       </defs>
       <use xlink:href="#ArialMT-4d"/>
       <use xlink:href="#ArialMT-61" x="83.300781"/>
       <use xlink:href="#ArialMT-6a" x="138.916016"/>
       <use xlink:href="#ArialMT-6f" x="161.132812"/>
       <use xlink:href="#ArialMT-72" x="216.748047"/>
       <use xlink:href="#ArialMT-20" x="250.048828"/>
       <use xlink:href="#ArialMT-44" x="277.832031"/>
       <use xlink:href="#ArialMT-65" x="350.048828"/>
       <use xlink:href="#ArialMT-70" x="405.664062"/>
       <use xlink:href="#ArialMT-72" x="461.279297"/>
       <use xlink:href="#ArialMT-65" x="494.580078"/>
       <use xlink:href="#ArialMT-73" x="550.195312"/>
       <use xlink:href="#ArialMT-73" x="600.195312"/>
       <use xlink:href="#ArialMT-69" x="650.195312"/>
       <use xlink:href="#ArialMT-76" x="672.412109"/>
       <use xlink:href="#ArialMT-65" x="722.412109"/>
       <use xlink:href="#ArialMT-20" x="778.027344"/>
       <use xlink:href="#ArialMT-44" x="805.810547"/>
       <use xlink:href="#ArialMT-69" x="878.027344"/>
       <use xlink:href="#ArialMT-73" x="900.244141"/>
       <use xlink:href="#ArialMT-6f" x="950.244141"/>
       <use xlink:href="#ArialMT-72" x="1005.859375"/>
       <use xlink:href="#ArialMT-64" x="1039.160156"/>
       <use xlink:href="#ArialMT-65" x="1094.775391"/>
       <use xlink:href="#ArialMT-72" x="1150.390625"/>
      </g>
     </g>
    </g>
    <g id="ytick_18">
     <g id="text_23">
      <!-- Chronic Pain -->
      <g style="fill: #262626" transform="translate(74.425469 268.429922)scale(0.11 -0.11)">
       <use xlink:href="#ArialMT-43"/>
       <use xlink:href="#ArialMT-68" x="72.216797"/>
       <use xlink:href="#ArialMT-72" x="127.832031"/>
       <use xlink:href="#ArialMT-6f" x="161.132812"/>
       <use xlink:href="#ArialMT-6e" x="216.748047"/>
       <use xlink:href="#ArialMT-69" x="272.363281"/>
       <use xlink:href="#ArialMT-63" x="294.580078"/>
       <use xlink:href="#ArialMT-20" x="344.580078"/>
       <use xlink:href="#ArialMT-50" x="372.363281"/>
       <use xlink:href="#ArialMT-61" x="439.0625"/>
       <use xlink:href="#ArialMT-69" x="494.677734"/>
       <use xlink:href="#ArialMT-6e" x="516.894531"/>
      </g>
     </g>
    </g>
    <g id="ytick_19">
     <g id="text_24">
      <!-- Parkinson Disease -->
      <g style="fill: #262626" transform="translate(45.691406 282.289922)scale(0.11 -0.11)">
       <use xlink:href="#ArialMT-50"/>
       <use xlink:href="#ArialMT-61" x="66.699219"/>
       <use xlink:href="#ArialMT-72" x="122.314453"/>
       <use xlink:href="#ArialMT-6b" x="155.615234"/>
       <use xlink:href="#ArialMT-69" x="205.615234"/>
       <use xlink:href="#ArialMT-6e" x="227.832031"/>
       <use xlink:href="#ArialMT-73" x="283.447266"/>
       <use xlink:href="#ArialMT-6f" x="333.447266"/>
       <use xlink:href="#ArialMT-6e" x="389.0625"/>
       <use xlink:href="#ArialMT-20" x="444.677734"/>
       <use xlink:href="#ArialMT-44" x="472.460938"/>
       <use xlink:href="#ArialMT-69" x="544.677734"/>
       <use xlink:href="#ArialMT-73" x="566.894531"/>
       <use xlink:href="#ArialMT-65" x="616.894531"/>
       <use xlink:href="#ArialMT-61" x="672.509766"/>
       <use xlink:href="#ArialMT-73" x="728.125"/>
       <use xlink:href="#ArialMT-65" x="778.125"/>
      </g>
     </g>
    </g>
    <g id="ytick_20">
     <g id="text_25">
      <!-- Insomnia -->
      <g style="fill: #262626" transform="translate(92.767969 296.149922)scale(0.11 -0.11)">
       <use xlink:href="#ArialMT-49"/>
       <use xlink:href="#ArialMT-6e" x="27.783203"/>
       <use xlink:href="#ArialMT-73" x="83.398438"/>
       <use xlink:href="#ArialMT-6f" x="133.398438"/>
       <use xlink:href="#ArialMT-6d" x="189.013672"/>
       <use xlink:href="#ArialMT-6e" x="272.314453"/>
       <use xlink:href="#ArialMT-69" x="327.929688"/>
       <use xlink:href="#ArialMT-61" x="350.146484"/>
      </g>
     </g>
    </g>
   </g>
   <g id="patch_3">
    <path d="M 146.89875 23.329125 
L 359.470179 23.329125 
L 359.470179 34.417125 
L 146.89875 34.417125 
z
" clip-path="url(#p7a59b83ea6)" style="fill: #9dc098; stroke: #ffffff; stroke-linejoin: miter"/>
   </g>
   <g id="patch_4">
    <path d="M 146.89875 37.189125 
L 301.845394 37.189125 
L 301.845394 48.277125 
L 146.89875 48.277125 
z
" clip-path="url(#p7a59b83ea6)" style="fill: #91b996; stroke: #ffffff; stroke-linejoin: miter"/>
   </g>
   <g id="patch_5">
    <path d="M 146.89875 51.049125 
L 298.003741 51.049125 
L 298.003741 62.137125 
L 146.89875 62.137125 
z
" clip-path="url(#p7a59b83ea6)" style="fill: #84b293; stroke: #ffffff; stroke-linejoin: miter"/>
   </g>
   <g id="patch_6">
    <path d="M 146.89875 64.909125 
L 273.673277 64.909125 
L 273.673277 75.997125 
L 146.89875 75.997125 
z
" clip-path="url(#p7a59b83ea6)" style="fill: #78ab91; stroke: #ffffff; stroke-linejoin: miter"/>
   </g>
   <g id="patch_7">
    <path d="M 146.89875 78.769125 
L 259.587218 78.769125 
L 259.587218 89.857125 
L 146.89875 89.857125 
z
" clip-path="url(#p7a59b83ea6)" style="fill: #6da48e; stroke: #ffffff; stroke-linejoin: miter"/>
   </g>
   <g id="patch_8">
    <path d="M 146.89875 92.629125 
L 255.745566 92.629125 
L 255.745566 103.717125 
L 146.89875 103.717125 
z
" clip-path="url(#p7a59b83ea6)" style="fill: #639c8c; stroke: #ffffff; stroke-linejoin: miter"/>
   </g>
   <g id="patch_9">
    <path d="M 146.89875 106.489125 
L 244.220609 106.489125 
L 244.220609 117.577125 
L 146.89875 117.577125 
z
" clip-path="url(#p7a59b83ea6)" style="fill: #5a948a; stroke: #ffffff; stroke-linejoin: miter"/>
   </g>
   <g id="patch_10">
    <path d="M 146.89875 120.349125 
L 230.13455 120.349125 
L 230.13455 131.437125 
L 146.89875 131.437125 
z
" clip-path="url(#p7a59b83ea6)" style="fill: #518d87; stroke: #ffffff; stroke-linejoin: miter"/>
   </g>
   <g id="patch_11">
    <path d="M 146.89875 134.209125 
L 219.890144 134.209125 
L 219.890144 145.297125 
L 146.89875 145.297125 
z
" clip-path="url(#p7a59b83ea6)" style="fill: #4a8685; stroke: #ffffff; stroke-linejoin: miter"/>
   </g>
   <g id="patch_12">
    <path d="M 146.89875 148.069125 
L 219.890144 148.069125 
L 219.890144 159.157125 
L 146.89875 159.157125 
z
" clip-path="url(#p7a59b83ea6)" style="fill: #437f83; stroke: #ffffff; stroke-linejoin: miter"/>
   </g>
   <g id="patch_13">
    <path d="M 146.89875 161.929125 
L 218.609593 161.929125 
L 218.609593 173.017125 
L 146.89875 173.017125 
z
" clip-path="url(#p7a59b83ea6)" style="fill: #3b7881; stroke: #ffffff; stroke-linejoin: miter"/>
   </g>
   <g id="patch_14">
    <path d="M 146.89875 175.789125 
L 218.609593 175.789125 
L 218.609593 186.877125 
L 146.89875 186.877125 
z
" clip-path="url(#p7a59b83ea6)" style="fill: #34727f; stroke: #ffffff; stroke-linejoin: miter"/>
   </g>
   <g id="patch_15">
    <path d="M 146.89875 189.649125 
L 210.926289 189.649125 
L 210.926289 200.737125 
L 146.89875 200.737125 
z
" clip-path="url(#p7a59b83ea6)" style="fill: #2f6c7e; stroke: #ffffff; stroke-linejoin: miter"/>
   </g>
   <g id="patch_16">
    <path d="M 146.89875 203.509125 
L 210.926289 203.509125 
L 210.926289 214.597125 
L 146.89875 214.597125 
z
" clip-path="url(#p7a59b83ea6)" style="fill: #2b667c; stroke: #ffffff; stroke-linejoin: miter"/>
   </g>
   <g id="patch_17">
    <path d="M 146.89875 217.369125 
L 209.645738 217.369125 
L 209.645738 228.457125 
L 146.89875 228.457125 
z
" clip-path="url(#p7a59b83ea6)" style="fill: #2a5f7b; stroke: #ffffff; stroke-linejoin: miter"/>
   </g>
   <g id="patch_18">
    <path d="M 146.89875 231.229125 
L 208.365187 231.229125 
L 208.365187 242.317125 
L 146.89875 242.317125 
z
" clip-path="url(#p7a59b83ea6)" style="fill: #2b5979; stroke: #ffffff; stroke-linejoin: miter"/>
   </g>
   <g id="patch_19">
    <path d="M 146.89875 245.089125 
L 207.084636 245.089125 
L 207.084636 256.177125 
L 146.89875 256.177125 
z
" clip-path="url(#p7a59b83ea6)" style="fill: #2e5377; stroke: #ffffff; stroke-linejoin: miter"/>
   </g>
   <g id="patch_20">
    <path d="M 146.89875 258.949125 
L 205.804086 258.949125 
L 205.804086 270.037125 
L 146.89875 270.037125 
z
" clip-path="url(#p7a59b83ea6)" style="fill: #304d74; stroke: #ffffff; stroke-linejoin: miter"/>
   </g>
   <g id="patch_21">
    <path d="M 146.89875 272.809125 
L 204.523535 272.809125 
L 204.523535 283.897125 
L 146.89875 283.897125 
z
" clip-path="url(#p7a59b83ea6)" style="fill: #334670; stroke: #ffffff; stroke-linejoin: miter"/>
   </g>
   <g id="patch_22">
    <path d="M 146.89875 286.669125 
L 203.242984 286.669125 
L 203.242984 297.757125 
L 146.89875 297.757125 
z
" clip-path="url(#p7a59b83ea6)" style="fill: #343f6c; stroke: #ffffff; stroke-linejoin: miter"/>
   </g>
   <g id="line2d_1">
    <path clip-path="url(#p7a59b83ea6)" style="fill: none; stroke: #424242; stroke-width: 2.7; stroke-linecap: round"/>
   </g>
   <g id="line2d_2">
    <path clip-path="url(#p7a59b83ea6)" style="fill: none; stroke: #424242; stroke-width: 2.7; stroke-linecap: round"/>
   </g>
   <g id="line2d_3">
    <path clip-path="url(#p7a59b83ea6)" style="fill: none; stroke: #424242; stroke-width: 2.7; stroke-linecap: round"/>
   </g>
   <g id="line2d_4">
    <path clip-path="url(#p7a59b83ea6)" style="fill: none; stroke: #424242; stroke-width: 2.7; stroke-linecap: round"/>
   </g>
   <g id="line2d_5">
    <path clip-path="url(#p7a59b83ea6)" style="fill: none; stroke: #424242; stroke-width: 2.7; stroke-linecap: round"/>
   </g>
   <g id="line2d_6">
    <path clip-path="url(#p7a59b83ea6)" style="fill: none; stroke: #424242; stroke-width: 2.7; stroke-linecap: round"/>
   </g>
   <g id="line2d_7">
    <path clip-path="url(#p7a59b83ea6)" style="fill: none; stroke: #424242; stroke-width: 2.7; stroke-linecap: round"/>
   </g>
   <g id="line2d_8">
    <path clip-path="url(#p7a59b83ea6)" style="fill: none; stroke: #424242; stroke-width: 2.7; stroke-linecap: round"/>
   </g>
   <g id="line2d_9">
    <path clip-path="url(#p7a59b83ea6)" style="fill: none; stroke: #424242; stroke-width: 2.7; stroke-linecap: round"/>
   </g>
   <g id="line2d_10">
    <path clip-path="url(#p7a59b83ea6)" style="fill: none; stroke: #424242; stroke-width: 2.7; stroke-linecap: round"/>
   </g>
   <g id="line2d_11">
    <path clip-path="url(#p7a59b83ea6)" style="fill: none; stroke: #424242; stroke-width: 2.7; stroke-linecap: round"/>
   </g>
   <g id="line2d_12">
    <path clip-path="url(#p7a59b83ea6)" style="fill: none; stroke: #424242; stroke-width: 2.7; stroke-linecap: round"/>
   </g>
   <g id="line2d_13">
    <path clip-path="url(#p7a59b83ea6)" style="fill: none; stroke: #424242; stroke-width: 2.7; stroke-linecap: round"/>
   </g>
   <g id="line2d_14">
    <path clip-path="url(#p7a59b83ea6)" style="fill: none; stroke: #424242; stroke-width: 2.7; stroke-linecap: round"/>
   </g>
   <g id="line2d_15">
    <path clip-path="url(#p7a59b83ea6)" style="fill: none; stroke: #424242; stroke-width: 2.7; stroke-linecap: round"/>
   </g>
   <g id="line2d_16">
    <path clip-path="url(#p7a59b83ea6)" style="fill: none; stroke: #424242; stroke-width: 2.7; stroke-linecap: round"/>
   </g>
   <g id="line2d_17">
    <path clip-path="url(#p7a59b83ea6)" style="fill: none; stroke: #424242; stroke-width: 2.7; stroke-linecap: round"/>
   </g>
   <g id="line2d_18">
    <path clip-path="url(#p7a59b83ea6)" style="fill: none; stroke: #424242; stroke-width: 2.7; stroke-linecap: round"/>
   </g>
   <g id="line2d_19">
    <path clip-path="url(#p7a59b83ea6)" style="fill: none; stroke: #424242; stroke-width: 2.7; stroke-linecap: round"/>
   </g>
   <g id="line2d_20">
    <path clip-path="url(#p7a59b83ea6)" style="fill: none; stroke: #424242; stroke-width: 2.7; stroke-linecap: round"/>
   </g>
   <g id="patch_23">
    <path d="M 146.89875 299.143125 
L 146.89875 21.943125 
" style="fill: none; stroke: #262626; stroke-width: 1.25; stroke-linejoin: miter; stroke-linecap: square"/>
   </g>
   <g id="patch_24">
    <path d="M 370.09875 299.143125 
L 370.09875 21.943125 
" style="fill: none; stroke: #262626; stroke-width: 1.25; stroke-linejoin: miter; stroke-linecap: square"/>
   </g>
   <g id="patch_25">
    <path d="M 146.89875 299.143125 
L 370.09875 299.143125 
" style="fill: none; stroke: #262626; stroke-width: 1.25; stroke-linejoin: miter; stroke-linecap: square"/>
   </g>
   <g id="patch_26">
    <path d="M 146.89875 21.943125 
L 370.09875 21.943125 
" style="fill: none; stroke: #262626; stroke-width: 1.25; stroke-linejoin: miter; stroke-linecap: square"/>
   </g>
   <g id="text_26">
    <!-- Occurence of Most Frequent Keywords -->
    <g style="fill: #262626" transform="translate(154.460625 15.943125)scale(0.12 -0.12)">
     <defs>
      <path id="ArialMT-46" d="M 525 0 
L 525 4581 
L 3616 4581 
L 3616 4041 
L 1131 4041 
L 1131 2622 
L 3281 2622 
L 3281 2081 
L 1131 2081 
L 1131 0 
L 525 0 
z
" transform="scale(0.015625)"/>
      <path id="ArialMT-71" d="M 2538 -1272 
L 2538 353 
Q 2406 169 2170 47 
Q 1934 -75 1669 -75 
Q 1078 -75 651 397 
Q 225 869 225 1691 
Q 225 2191 398 2587 
Q 572 2984 901 3189 
Q 1231 3394 1625 3394 
Q 2241 3394 2594 2875 
L 2594 3319 
L 3100 3319 
L 3100 -1272 
L 2538 -1272 
z
M 803 1669 
Q 803 1028 1072 708 
Q 1341 388 1716 388 
Q 2075 388 2334 692 
Q 2594 997 2594 1619 
Q 2594 2281 2320 2615 
Q 2047 2950 1678 2950 
Q 1313 2950 1058 2639 
Q 803 2328 803 1669 
z
" transform="scale(0.015625)"/>
      <path id="ArialMT-4b" d="M 469 0 
L 469 4581 
L 1075 4581 
L 1075 2309 
L 3350 4581 
L 4172 4581 
L 2250 2725 
L 4256 0 
L 3456 0 
L 1825 2319 
L 1075 1588 
L 1075 0 
L 469 0 
z
" transform="scale(0.015625)"/>
      <path id="ArialMT-77" d="M 1034 0 
L 19 3319 
L 600 3319 
L 1128 1403 
L 1325 691 
Q 1338 744 1497 1375 
L 2025 3319 
L 2603 3319 
L 3100 1394 
L 3266 759 
L 3456 1400 
L 4025 3319 
L 4572 3319 
L 3534 0 
L 2950 0 
L 2422 1988 
L 2294 2553 
L 1622 0 
L 1034 0 
z
" transform="scale(0.015625)"/>
     </defs>
     <use xlink:href="#ArialMT-4f"/>
     <use xlink:href="#ArialMT-63" x="77.783203"/>
     <use xlink:href="#ArialMT-63" x="127.783203"/>
     <use xlink:href="#ArialMT-75" x="177.783203"/>
     <use xlink:href="#ArialMT-72" x="233.398438"/>
     <use xlink:href="#ArialMT-65" x="266.699219"/>
     <use xlink:href="#ArialMT-6e" x="322.314453"/>
     <use xlink:href="#ArialMT-63" x="377.929688"/>
     <use xlink:href="#ArialMT-65" x="427.929688"/>
     <use xlink:href="#ArialMT-20" x="483.544922"/>
     <use xlink:href="#ArialMT-6f" x="511.328125"/>
     <use xlink:href="#ArialMT-66" x="566.943359"/>
     <use xlink:href="#ArialMT-20" x="594.726562"/>
     <use xlink:href="#ArialMT-4d" x="622.509766"/>
     <use xlink:href="#ArialMT-6f" x="705.810547"/>
     <use xlink:href="#ArialMT-73" x="761.425781"/>
     <use xlink:href="#ArialMT-74" x="811.425781"/>
     <use xlink:href="#ArialMT-20" x="839.208984"/>
     <use xlink:href="#ArialMT-46" x="866.992188"/>
     <use xlink:href="#ArialMT-72" x="928.076172"/>
     <use xlink:href="#ArialMT-65" x="961.376953"/>
     <use xlink:href="#ArialMT-71" x="1016.992188"/>
     <use xlink:href="#ArialMT-75" x="1072.607422"/>
     <use xlink:href="#ArialMT-65" x="1128.222656"/>
     <use xlink:href="#ArialMT-6e" x="1183.837891"/>
     <use xlink:href="#ArialMT-74" x="1239.453125"/>
     <use xlink:href="#ArialMT-20" x="1267.236328"/>
     <use xlink:href="#ArialMT-4b" x="1295.019531"/>
     <use xlink:href="#ArialMT-65" x="1361.71875"/>
     <use xlink:href="#ArialMT-79" x="1417.333984"/>
     <use xlink:href="#ArialMT-77" x="1467.333984"/>
     <use xlink:href="#ArialMT-6f" x="1539.550781"/>
     <use xlink:href="#ArialMT-72" x="1595.166016"/>
     <use xlink:href="#ArialMT-64" x="1628.466797"/>
     <use xlink:href="#ArialMT-73" x="1684.082031"/>
    </g>
   </g>
  </g>
 </g>
 <defs>
  <clipPath id="p7a59b83ea6">
   <rect x="146.89875" y="21.943125" width="223.2" height="277.2"/>
  </clipPath>
 </defs>
</svg>
