<?xml version="1.0" encoding="utf-8" standalone="no"?>
<!DOCTYPE svg PUBLIC "-//W3C//DTD SVG 1.1//EN"
  "http://www.w3.org/Graphics/SVG/1.1/DTD/svg11.dtd">
<svg xmlns:xlink="http://www.w3.org/1999/xlink" width="605.306875pt" height="285.429844pt" viewBox="0 0 605.306875 285.429844" xmlns="http://www.w3.org/2000/svg" version="1.1">
 <metadata>
  <rdf:RDF xmlns:dc="http://purl.org/dc/elements/1.1/" xmlns:cc="http://creativecommons.org/ns#" xmlns:rdf="http://www.w3.org/1999/02/22-rdf-syntax-ns#">
   <cc:Work>
    <dc:type rdf:resource="http://purl.org/dc/dcmitype/StillImage"/>
    <dc:date>2022-12-30T18:36:02.724458</dc:date>
    <dc:format>image/svg+xml</dc:format>
    <dc:creator>
     <cc:Agent>
      <dc:title>Matplotlib v3.5.2, https://matplotlib.org/</dc:title>
     </cc:Agent>
    </dc:creator>
   </cc:Work>
  </rdf:RDF>
 </metadata>
 <defs>
  <style type="text/css">*{stroke-linejoin: round; stroke-linecap: butt}</style>
 </defs>
 <g id="figure_1">
  <g id="patch_1">
   <path d="M 0 285.429844 
L 605.306875 285.429844 
L 605.306875 0 
L 0 0 
z
" style="fill: #ffffff"/>
  </g>
  <g id="axes_1">
   <g id="patch_2">
    <path d="M 56.1425 243.695625 
L 558.3425 243.695625 
L 558.3425 21.935625 
L 56.1425 21.935625 
z
" style="fill: #ffffff"/>
   </g>
   <g id="matplotlib.axis_1">
    <g id="xtick_1">
     <g id="text_1">
      <!-- 2000 -->
      <g style="fill: #262626" transform="translate(65.08116 261.069219)scale(0.11 -0.11)">
       <defs>
        <path id="ArialMT-32" d="M 3222 541 
L 3222 0 
L 194 0 
Q 188 203 259 391 
Q 375 700 629 1000 
Q 884 1300 1366 1694 
Q 2113 2306 2375 2664 
Q 2638 3022 2638 3341 
Q 2638 3675 2398 3904 
Q 2159 4134 1775 4134 
Q 1369 4134 1125 3890 
Q 881 3647 878 3216 
L 300 3275 
Q 359 3922 746 4261 
Q 1134 4600 1788 4600 
Q 2447 4600 2831 4234 
Q 3216 3869 3216 3328 
Q 3216 3053 3103 2787 
Q 2991 2522 2730 2228 
Q 2469 1934 1863 1422 
Q 1356 997 1212 845 
Q 1069 694 975 541 
L 3222 541 
z
" transform="scale(0.015625)"/>
        <path id="ArialMT-30" d="M 266 2259 
Q 266 3072 433 3567 
Q 600 4063 929 4331 
Q 1259 4600 1759 4600 
Q 2128 4600 2406 4451 
Q 2684 4303 2865 4023 
Q 3047 3744 3150 3342 
Q 3253 2941 3253 2259 
Q 3253 1453 3087 958 
Q 2922 463 2592 192 
Q 2263 -78 1759 -78 
Q 1097 -78 719 397 
Q 266 969 266 2259 
z
M 844 2259 
Q 844 1131 1108 757 
Q 1372 384 1759 384 
Q 2147 384 2411 759 
Q 2675 1134 2675 2259 
Q 2675 3391 2411 3762 
Q 2147 4134 1753 4134 
Q 1366 4134 1134 3806 
Q 844 3388 844 2259 
z
" transform="scale(0.015625)"/>
       </defs>
       <use xlink:href="#ArialMT-32"/>
       <use xlink:href="#ArialMT-30" x="55.615234"/>
       <use xlink:href="#ArialMT-30" x="111.230469"/>
       <use xlink:href="#ArialMT-30" x="166.845703"/>
      </g>
     </g>
    </g>
    <g id="xtick_2">
     <g id="text_2">
      <!-- 2004 -->
      <g style="fill: #262626" transform="translate(145.657738 261.069219)scale(0.11 -0.11)">
       <defs>
        <path id="ArialMT-34" d="M 2069 0 
L 2069 1097 
L 81 1097 
L 81 1613 
L 2172 4581 
L 2631 4581 
L 2631 1613 
L 3250 1613 
L 3250 1097 
L 2631 1097 
L 2631 0 
L 2069 0 
z
M 2069 1613 
L 2069 3678 
L 634 1613 
L 2069 1613 
z
" transform="scale(0.015625)"/>
       </defs>
       <use xlink:href="#ArialMT-32"/>
       <use xlink:href="#ArialMT-30" x="55.615234"/>
       <use xlink:href="#ArialMT-30" x="111.230469"/>
       <use xlink:href="#ArialMT-34" x="166.845703"/>
      </g>
     </g>
    </g>
    <g id="xtick_3">
     <g id="text_3">
      <!-- 2008 -->
      <g style="fill: #262626" transform="translate(226.234316 261.069219)scale(0.11 -0.11)">
       <defs>
        <path id="ArialMT-38" d="M 1131 2484 
Q 781 2613 612 2850 
Q 444 3088 444 3419 
Q 444 3919 803 4259 
Q 1163 4600 1759 4600 
Q 2359 4600 2725 4251 
Q 3091 3903 3091 3403 
Q 3091 3084 2923 2848 
Q 2756 2613 2416 2484 
Q 2838 2347 3058 2040 
Q 3278 1734 3278 1309 
Q 3278 722 2862 322 
Q 2447 -78 1769 -78 
Q 1091 -78 675 323 
Q 259 725 259 1325 
Q 259 1772 486 2073 
Q 713 2375 1131 2484 
z
M 1019 3438 
Q 1019 3113 1228 2906 
Q 1438 2700 1772 2700 
Q 2097 2700 2305 2904 
Q 2513 3109 2513 3406 
Q 2513 3716 2298 3927 
Q 2084 4138 1766 4138 
Q 1444 4138 1231 3931 
Q 1019 3725 1019 3438 
z
M 838 1322 
Q 838 1081 952 856 
Q 1066 631 1291 507 
Q 1516 384 1775 384 
Q 2178 384 2440 643 
Q 2703 903 2703 1303 
Q 2703 1709 2433 1975 
Q 2163 2241 1756 2241 
Q 1359 2241 1098 1978 
Q 838 1716 838 1322 
z
" transform="scale(0.015625)"/>
       </defs>
       <use xlink:href="#ArialMT-32"/>
       <use xlink:href="#ArialMT-30" x="55.615234"/>
       <use xlink:href="#ArialMT-30" x="111.230469"/>
       <use xlink:href="#ArialMT-38" x="166.845703"/>
      </g>
     </g>
    </g>
    <g id="xtick_4">
     <g id="text_4">
      <!-- 2012 -->
      <g style="fill: #262626" transform="translate(306.810893 261.069219)scale(0.11 -0.11)">
       <defs>
        <path id="ArialMT-31" d="M 2384 0 
L 1822 0 
L 1822 3584 
Q 1619 3391 1289 3197 
Q 959 3003 697 2906 
L 697 3450 
Q 1169 3672 1522 3987 
Q 1875 4303 2022 4600 
L 2384 4600 
L 2384 0 
z
" transform="scale(0.015625)"/>
       </defs>
       <use xlink:href="#ArialMT-32"/>
       <use xlink:href="#ArialMT-30" x="55.615234"/>
       <use xlink:href="#ArialMT-31" x="111.230469"/>
       <use xlink:href="#ArialMT-32" x="166.845703"/>
      </g>
     </g>
    </g>
    <g id="xtick_5">
     <g id="text_5">
      <!-- 2016 -->
      <g style="fill: #262626" transform="translate(387.387471 261.069219)scale(0.11 -0.11)">
       <defs>
        <path id="ArialMT-36" d="M 3184 3459 
L 2625 3416 
Q 2550 3747 2413 3897 
Q 2184 4138 1850 4138 
Q 1581 4138 1378 3988 
Q 1113 3794 959 3422 
Q 806 3050 800 2363 
Q 1003 2672 1297 2822 
Q 1591 2972 1913 2972 
Q 2475 2972 2870 2558 
Q 3266 2144 3266 1488 
Q 3266 1056 3080 686 
Q 2894 316 2569 119 
Q 2244 -78 1831 -78 
Q 1128 -78 684 439 
Q 241 956 241 2144 
Q 241 3472 731 4075 
Q 1159 4600 1884 4600 
Q 2425 4600 2770 4297 
Q 3116 3994 3184 3459 
z
M 888 1484 
Q 888 1194 1011 928 
Q 1134 663 1356 523 
Q 1578 384 1822 384 
Q 2178 384 2434 671 
Q 2691 959 2691 1453 
Q 2691 1928 2437 2201 
Q 2184 2475 1800 2475 
Q 1419 2475 1153 2201 
Q 888 1928 888 1484 
z
" transform="scale(0.015625)"/>
       </defs>
       <use xlink:href="#ArialMT-32"/>
       <use xlink:href="#ArialMT-30" x="55.615234"/>
       <use xlink:href="#ArialMT-31" x="111.230469"/>
       <use xlink:href="#ArialMT-36" x="166.845703"/>
      </g>
     </g>
    </g>
    <g id="xtick_6">
     <g id="text_6">
      <!-- 2020 -->
      <g style="fill: #262626" transform="translate(467.964048 261.069219)scale(0.11 -0.11)">
       <use xlink:href="#ArialMT-32"/>
       <use xlink:href="#ArialMT-30" x="55.615234"/>
       <use xlink:href="#ArialMT-32" x="111.230469"/>
       <use xlink:href="#ArialMT-30" x="166.845703"/>
      </g>
     </g>
    </g>
    <g id="text_7">
     <!-- Year -->
     <g style="fill: #262626" transform="translate(295.116875 275.844844)scale(0.12 -0.12)">
      <defs>
       <path id="ArialMT-59" d="M 1784 0 
L 1784 1941 
L 19 4581 
L 756 4581 
L 1659 3200 
Q 1909 2813 2125 2425 
Q 2331 2784 2625 3234 
L 3513 4581 
L 4219 4581 
L 2391 1941 
L 2391 0 
L 1784 0 
z
" transform="scale(0.015625)"/>
       <path id="ArialMT-65" d="M 2694 1069 
L 3275 997 
Q 3138 488 2766 206 
Q 2394 -75 1816 -75 
Q 1088 -75 661 373 
Q 234 822 234 1631 
Q 234 2469 665 2931 
Q 1097 3394 1784 3394 
Q 2450 3394 2872 2941 
Q 3294 2488 3294 1666 
Q 3294 1616 3291 1516 
L 816 1516 
Q 847 969 1125 678 
Q 1403 388 1819 388 
Q 2128 388 2347 550 
Q 2566 713 2694 1069 
z
M 847 1978 
L 2700 1978 
Q 2663 2397 2488 2606 
Q 2219 2931 1791 2931 
Q 1403 2931 1139 2672 
Q 875 2413 847 1978 
z
" transform="scale(0.015625)"/>
       <path id="ArialMT-61" d="M 2588 409 
Q 2275 144 1986 34 
Q 1697 -75 1366 -75 
Q 819 -75 525 192 
Q 231 459 231 875 
Q 231 1119 342 1320 
Q 453 1522 633 1644 
Q 813 1766 1038 1828 
Q 1203 1872 1538 1913 
Q 2219 1994 2541 2106 
Q 2544 2222 2544 2253 
Q 2544 2597 2384 2738 
Q 2169 2928 1744 2928 
Q 1347 2928 1158 2789 
Q 969 2650 878 2297 
L 328 2372 
Q 403 2725 575 2942 
Q 747 3159 1072 3276 
Q 1397 3394 1825 3394 
Q 2250 3394 2515 3294 
Q 2781 3194 2906 3042 
Q 3031 2891 3081 2659 
Q 3109 2516 3109 2141 
L 3109 1391 
Q 3109 606 3145 398 
Q 3181 191 3288 0 
L 2700 0 
Q 2613 175 2588 409 
z
M 2541 1666 
Q 2234 1541 1622 1453 
Q 1275 1403 1131 1340 
Q 988 1278 909 1158 
Q 831 1038 831 891 
Q 831 666 1001 516 
Q 1172 366 1500 366 
Q 1825 366 2078 508 
Q 2331 650 2450 897 
Q 2541 1088 2541 1459 
L 2541 1666 
z
" transform="scale(0.015625)"/>
       <path id="ArialMT-72" d="M 416 0 
L 416 3319 
L 922 3319 
L 922 2816 
Q 1116 3169 1280 3281 
Q 1444 3394 1641 3394 
Q 1925 3394 2219 3213 
L 2025 2691 
Q 1819 2813 1613 2813 
Q 1428 2813 1281 2702 
Q 1134 2591 1072 2394 
Q 978 2094 978 1738 
L 978 0 
L 416 0 
z
" transform="scale(0.015625)"/>
      </defs>
      <use xlink:href="#ArialMT-59"/>
      <use xlink:href="#ArialMT-65" x="57.574219"/>
      <use xlink:href="#ArialMT-61" x="113.189453"/>
      <use xlink:href="#ArialMT-72" x="168.804688"/>
     </g>
    </g>
   </g>
   <g id="matplotlib.axis_2">
    <g id="ytick_1">
     <g id="line2d_1">
      <defs>
       <path id="mb99b19092c" d="M 0 0 
L -6 0 
" style="stroke: #262626; stroke-width: 1.25"/>
      </defs>
      <g>
       <use xlink:href="#mb99b19092c" x="56.1425" y="239.290434" style="fill: #262626; stroke: #262626; stroke-width: 1.25"/>
      </g>
     </g>
     <g id="text_8">
      <!-- 0 -->
      <g style="fill: #262626" transform="translate(40.525469 243.227231)scale(0.11 -0.11)">
       <use xlink:href="#ArialMT-30"/>
      </g>
     </g>
    </g>
    <g id="ytick_2">
     <g id="line2d_2">
      <g>
       <use xlink:href="#mb99b19092c" x="56.1425" y="191.198831" style="fill: #262626; stroke: #262626; stroke-width: 1.25"/>
      </g>
     </g>
     <g id="text_9">
      <!-- 500 -->
      <g style="fill: #262626" transform="translate(28.291406 195.135628)scale(0.11 -0.11)">
       <defs>
        <path id="ArialMT-35" d="M 266 1200 
L 856 1250 
Q 922 819 1161 601 
Q 1400 384 1738 384 
Q 2144 384 2425 690 
Q 2706 997 2706 1503 
Q 2706 1984 2436 2262 
Q 2166 2541 1728 2541 
Q 1456 2541 1237 2417 
Q 1019 2294 894 2097 
L 366 2166 
L 809 4519 
L 3088 4519 
L 3088 3981 
L 1259 3981 
L 1013 2750 
Q 1425 3038 1878 3038 
Q 2478 3038 2890 2622 
Q 3303 2206 3303 1553 
Q 3303 931 2941 478 
Q 2500 -78 1738 -78 
Q 1113 -78 717 272 
Q 322 622 266 1200 
z
" transform="scale(0.015625)"/>
       </defs>
       <use xlink:href="#ArialMT-35"/>
       <use xlink:href="#ArialMT-30" x="55.615234"/>
       <use xlink:href="#ArialMT-30" x="111.230469"/>
      </g>
     </g>
    </g>
    <g id="ytick_3">
     <g id="line2d_3">
      <g>
       <use xlink:href="#mb99b19092c" x="56.1425" y="143.107228" style="fill: #262626; stroke: #262626; stroke-width: 1.25"/>
      </g>
     </g>
     <g id="text_10">
      <!-- 1000 -->
      <g style="fill: #262626" transform="translate(22.174375 147.044025)scale(0.11 -0.11)">
       <use xlink:href="#ArialMT-31"/>
       <use xlink:href="#ArialMT-30" x="55.615234"/>
       <use xlink:href="#ArialMT-30" x="111.230469"/>
       <use xlink:href="#ArialMT-30" x="166.845703"/>
      </g>
     </g>
    </g>
    <g id="ytick_4">
     <g id="line2d_4">
      <g>
       <use xlink:href="#mb99b19092c" x="56.1425" y="95.015625" style="fill: #262626; stroke: #262626; stroke-width: 1.25"/>
      </g>
     </g>
     <g id="text_11">
      <!-- 1500 -->
      <g style="fill: #262626" transform="translate(22.174375 98.952422)scale(0.11 -0.11)">
       <use xlink:href="#ArialMT-31"/>
       <use xlink:href="#ArialMT-35" x="55.615234"/>
       <use xlink:href="#ArialMT-30" x="111.230469"/>
       <use xlink:href="#ArialMT-30" x="166.845703"/>
      </g>
     </g>
    </g>
    <g id="ytick_5">
     <g id="line2d_5">
      <g>
       <use xlink:href="#mb99b19092c" x="56.1425" y="46.924022" style="fill: #262626; stroke: #262626; stroke-width: 1.25"/>
      </g>
     </g>
     <g id="text_12">
      <!-- 2000 -->
      <g style="fill: #262626" transform="translate(22.174375 50.860819)scale(0.11 -0.11)">
       <use xlink:href="#ArialMT-32"/>
       <use xlink:href="#ArialMT-30" x="55.615234"/>
       <use xlink:href="#ArialMT-30" x="111.230469"/>
       <use xlink:href="#ArialMT-30" x="166.845703"/>
      </g>
     </g>
    </g>
    <g id="text_13">
     <!-- DHT Related Publications/Month -->
     <g style="fill: #262626" transform="translate(15.789375 219.747187)rotate(-90)scale(0.12 -0.12)">
      <defs>
       <path id="ArialMT-44" d="M 494 0 
L 494 4581 
L 2072 4581 
Q 2606 4581 2888 4516 
Q 3281 4425 3559 4188 
Q 3922 3881 4101 3404 
Q 4281 2928 4281 2316 
Q 4281 1794 4159 1391 
Q 4038 988 3847 723 
Q 3656 459 3429 307 
Q 3203 156 2883 78 
Q 2563 0 2147 0 
L 494 0 
z
M 1100 541 
L 2078 541 
Q 2531 541 2789 625 
Q 3047 709 3200 863 
Q 3416 1078 3536 1442 
Q 3656 1806 3656 2325 
Q 3656 3044 3420 3430 
Q 3184 3816 2847 3947 
Q 2603 4041 2063 4041 
L 1100 4041 
L 1100 541 
z
" transform="scale(0.015625)"/>
       <path id="ArialMT-48" d="M 513 0 
L 513 4581 
L 1119 4581 
L 1119 2700 
L 3500 2700 
L 3500 4581 
L 4106 4581 
L 4106 0 
L 3500 0 
L 3500 2159 
L 1119 2159 
L 1119 0 
L 513 0 
z
" transform="scale(0.015625)"/>
       <path id="ArialMT-54" d="M 1659 0 
L 1659 4041 
L 150 4041 
L 150 4581 
L 3781 4581 
L 3781 4041 
L 2266 4041 
L 2266 0 
L 1659 0 
z
" transform="scale(0.015625)"/>
       <path id="ArialMT-20" transform="scale(0.015625)"/>
       <path id="ArialMT-52" d="M 503 0 
L 503 4581 
L 2534 4581 
Q 3147 4581 3465 4457 
Q 3784 4334 3975 4021 
Q 4166 3709 4166 3331 
Q 4166 2844 3850 2509 
Q 3534 2175 2875 2084 
Q 3116 1969 3241 1856 
Q 3506 1613 3744 1247 
L 4541 0 
L 3778 0 
L 3172 953 
Q 2906 1366 2734 1584 
Q 2563 1803 2427 1890 
Q 2291 1978 2150 2013 
Q 2047 2034 1813 2034 
L 1109 2034 
L 1109 0 
L 503 0 
z
M 1109 2559 
L 2413 2559 
Q 2828 2559 3062 2645 
Q 3297 2731 3419 2920 
Q 3541 3109 3541 3331 
Q 3541 3656 3305 3865 
Q 3069 4075 2559 4075 
L 1109 4075 
L 1109 2559 
z
" transform="scale(0.015625)"/>
       <path id="ArialMT-6c" d="M 409 0 
L 409 4581 
L 972 4581 
L 972 0 
L 409 0 
z
" transform="scale(0.015625)"/>
       <path id="ArialMT-74" d="M 1650 503 
L 1731 6 
Q 1494 -44 1306 -44 
Q 1000 -44 831 53 
Q 663 150 594 308 
Q 525 466 525 972 
L 525 2881 
L 113 2881 
L 113 3319 
L 525 3319 
L 525 4141 
L 1084 4478 
L 1084 3319 
L 1650 3319 
L 1650 2881 
L 1084 2881 
L 1084 941 
Q 1084 700 1114 631 
Q 1144 563 1211 522 
Q 1278 481 1403 481 
Q 1497 481 1650 503 
z
" transform="scale(0.015625)"/>
       <path id="ArialMT-64" d="M 2575 0 
L 2575 419 
Q 2259 -75 1647 -75 
Q 1250 -75 917 144 
Q 584 363 401 755 
Q 219 1147 219 1656 
Q 219 2153 384 2558 
Q 550 2963 881 3178 
Q 1213 3394 1622 3394 
Q 1922 3394 2156 3267 
Q 2391 3141 2538 2938 
L 2538 4581 
L 3097 4581 
L 3097 0 
L 2575 0 
z
M 797 1656 
Q 797 1019 1065 703 
Q 1334 388 1700 388 
Q 2069 388 2326 689 
Q 2584 991 2584 1609 
Q 2584 2291 2321 2609 
Q 2059 2928 1675 2928 
Q 1300 2928 1048 2622 
Q 797 2316 797 1656 
z
" transform="scale(0.015625)"/>
       <path id="ArialMT-50" d="M 494 0 
L 494 4581 
L 2222 4581 
Q 2678 4581 2919 4538 
Q 3256 4481 3484 4323 
Q 3713 4166 3852 3881 
Q 3991 3597 3991 3256 
Q 3991 2672 3619 2267 
Q 3247 1863 2275 1863 
L 1100 1863 
L 1100 0 
L 494 0 
z
M 1100 2403 
L 2284 2403 
Q 2872 2403 3119 2622 
Q 3366 2841 3366 3238 
Q 3366 3525 3220 3729 
Q 3075 3934 2838 4000 
Q 2684 4041 2272 4041 
L 1100 4041 
L 1100 2403 
z
" transform="scale(0.015625)"/>
       <path id="ArialMT-75" d="M 2597 0 
L 2597 488 
Q 2209 -75 1544 -75 
Q 1250 -75 995 37 
Q 741 150 617 320 
Q 494 491 444 738 
Q 409 903 409 1263 
L 409 3319 
L 972 3319 
L 972 1478 
Q 972 1038 1006 884 
Q 1059 663 1231 536 
Q 1403 409 1656 409 
Q 1909 409 2131 539 
Q 2353 669 2445 892 
Q 2538 1116 2538 1541 
L 2538 3319 
L 3100 3319 
L 3100 0 
L 2597 0 
z
" transform="scale(0.015625)"/>
       <path id="ArialMT-62" d="M 941 0 
L 419 0 
L 419 4581 
L 981 4581 
L 981 2947 
Q 1338 3394 1891 3394 
Q 2197 3394 2470 3270 
Q 2744 3147 2920 2923 
Q 3097 2700 3197 2384 
Q 3297 2069 3297 1709 
Q 3297 856 2875 390 
Q 2453 -75 1863 -75 
Q 1275 -75 941 416 
L 941 0 
z
M 934 1684 
Q 934 1088 1097 822 
Q 1363 388 1816 388 
Q 2184 388 2453 708 
Q 2722 1028 2722 1663 
Q 2722 2313 2464 2622 
Q 2206 2931 1841 2931 
Q 1472 2931 1203 2611 
Q 934 2291 934 1684 
z
" transform="scale(0.015625)"/>
       <path id="ArialMT-69" d="M 425 3934 
L 425 4581 
L 988 4581 
L 988 3934 
L 425 3934 
z
M 425 0 
L 425 3319 
L 988 3319 
L 988 0 
L 425 0 
z
" transform="scale(0.015625)"/>
       <path id="ArialMT-63" d="M 2588 1216 
L 3141 1144 
Q 3050 572 2676 248 
Q 2303 -75 1759 -75 
Q 1078 -75 664 370 
Q 250 816 250 1647 
Q 250 2184 428 2587 
Q 606 2991 970 3192 
Q 1334 3394 1763 3394 
Q 2303 3394 2647 3120 
Q 2991 2847 3088 2344 
L 2541 2259 
Q 2463 2594 2264 2762 
Q 2066 2931 1784 2931 
Q 1359 2931 1093 2626 
Q 828 2322 828 1663 
Q 828 994 1084 691 
Q 1341 388 1753 388 
Q 2084 388 2306 591 
Q 2528 794 2588 1216 
z
" transform="scale(0.015625)"/>
       <path id="ArialMT-6f" d="M 213 1659 
Q 213 2581 725 3025 
Q 1153 3394 1769 3394 
Q 2453 3394 2887 2945 
Q 3322 2497 3322 1706 
Q 3322 1066 3130 698 
Q 2938 331 2570 128 
Q 2203 -75 1769 -75 
Q 1072 -75 642 372 
Q 213 819 213 1659 
z
M 791 1659 
Q 791 1022 1069 705 
Q 1347 388 1769 388 
Q 2188 388 2466 706 
Q 2744 1025 2744 1678 
Q 2744 2294 2464 2611 
Q 2184 2928 1769 2928 
Q 1347 2928 1069 2612 
Q 791 2297 791 1659 
z
" transform="scale(0.015625)"/>
       <path id="ArialMT-6e" d="M 422 0 
L 422 3319 
L 928 3319 
L 928 2847 
Q 1294 3394 1984 3394 
Q 2284 3394 2536 3286 
Q 2788 3178 2913 3003 
Q 3038 2828 3088 2588 
Q 3119 2431 3119 2041 
L 3119 0 
L 2556 0 
L 2556 2019 
Q 2556 2363 2490 2533 
Q 2425 2703 2258 2804 
Q 2091 2906 1866 2906 
Q 1506 2906 1245 2678 
Q 984 2450 984 1813 
L 984 0 
L 422 0 
z
" transform="scale(0.015625)"/>
       <path id="ArialMT-73" d="M 197 991 
L 753 1078 
Q 800 744 1014 566 
Q 1228 388 1613 388 
Q 2000 388 2187 545 
Q 2375 703 2375 916 
Q 2375 1106 2209 1216 
Q 2094 1291 1634 1406 
Q 1016 1563 777 1677 
Q 538 1791 414 1992 
Q 291 2194 291 2438 
Q 291 2659 392 2848 
Q 494 3038 669 3163 
Q 800 3259 1026 3326 
Q 1253 3394 1513 3394 
Q 1903 3394 2198 3281 
Q 2494 3169 2634 2976 
Q 2775 2784 2828 2463 
L 2278 2388 
Q 2241 2644 2061 2787 
Q 1881 2931 1553 2931 
Q 1166 2931 1000 2803 
Q 834 2675 834 2503 
Q 834 2394 903 2306 
Q 972 2216 1119 2156 
Q 1203 2125 1616 2013 
Q 2213 1853 2448 1751 
Q 2684 1650 2818 1456 
Q 2953 1263 2953 975 
Q 2953 694 2789 445 
Q 2625 197 2315 61 
Q 2006 -75 1616 -75 
Q 969 -75 630 194 
Q 291 463 197 991 
z
" transform="scale(0.015625)"/>
       <path id="ArialMT-2f" d="M 0 -78 
L 1328 4659 
L 1778 4659 
L 453 -78 
L 0 -78 
z
" transform="scale(0.015625)"/>
       <path id="ArialMT-4d" d="M 475 0 
L 475 4581 
L 1388 4581 
L 2472 1338 
Q 2622 884 2691 659 
Q 2769 909 2934 1394 
L 4031 4581 
L 4847 4581 
L 4847 0 
L 4263 0 
L 4263 3834 
L 2931 0 
L 2384 0 
L 1059 3900 
L 1059 0 
L 475 0 
z
" transform="scale(0.015625)"/>
       <path id="ArialMT-68" d="M 422 0 
L 422 4581 
L 984 4581 
L 984 2938 
Q 1378 3394 1978 3394 
Q 2347 3394 2619 3248 
Q 2891 3103 3008 2847 
Q 3125 2591 3125 2103 
L 3125 0 
L 2563 0 
L 2563 2103 
Q 2563 2525 2380 2717 
Q 2197 2909 1863 2909 
Q 1613 2909 1392 2779 
Q 1172 2650 1078 2428 
Q 984 2206 984 1816 
L 984 0 
L 422 0 
z
" transform="scale(0.015625)"/>
      </defs>
      <use xlink:href="#ArialMT-44"/>
      <use xlink:href="#ArialMT-48" x="72.216797"/>
      <use xlink:href="#ArialMT-54" x="144.433594"/>
      <use xlink:href="#ArialMT-20" x="203.767578"/>
      <use xlink:href="#ArialMT-52" x="231.550781"/>
      <use xlink:href="#ArialMT-65" x="303.767578"/>
      <use xlink:href="#ArialMT-6c" x="359.382812"/>
      <use xlink:href="#ArialMT-61" x="381.599609"/>
      <use xlink:href="#ArialMT-74" x="437.214844"/>
      <use xlink:href="#ArialMT-65" x="464.998047"/>
      <use xlink:href="#ArialMT-64" x="520.613281"/>
      <use xlink:href="#ArialMT-20" x="576.228516"/>
      <use xlink:href="#ArialMT-50" x="604.011719"/>
      <use xlink:href="#ArialMT-75" x="670.710938"/>
      <use xlink:href="#ArialMT-62" x="726.326172"/>
      <use xlink:href="#ArialMT-6c" x="781.941406"/>
      <use xlink:href="#ArialMT-69" x="804.158203"/>
      <use xlink:href="#ArialMT-63" x="826.375"/>
      <use xlink:href="#ArialMT-61" x="876.375"/>
      <use xlink:href="#ArialMT-74" x="931.990234"/>
      <use xlink:href="#ArialMT-69" x="959.773438"/>
      <use xlink:href="#ArialMT-6f" x="981.990234"/>
      <use xlink:href="#ArialMT-6e" x="1037.605469"/>
      <use xlink:href="#ArialMT-73" x="1093.220703"/>
      <use xlink:href="#ArialMT-2f" x="1143.220703"/>
      <use xlink:href="#ArialMT-4d" x="1171.003906"/>
      <use xlink:href="#ArialMT-6f" x="1254.304688"/>
      <use xlink:href="#ArialMT-6e" x="1309.919922"/>
      <use xlink:href="#ArialMT-74" x="1365.535156"/>
      <use xlink:href="#ArialMT-68" x="1393.318359"/>
     </g>
    </g>
   </g>
   <g id="PolyCollection_1"/>
   <g id="line2d_6">
    <path d="M 78.969773 229.383564 
L 80.569171 230.633946 
L 82.278872 229.383564 
L 83.933422 229.479747 
L 85.643124 229.86448 
L 87.297674 228.325549 
L 89.007375 230.826312 
L 90.717077 228.998831 
L 92.371626 228.998831 
L 94.081328 231.691961 
L 95.735878 229.768297 
L 97.445579 229.672114 
L 99.155281 233.423259 
L 100.699527 221.785091 
L 102.409229 226.882801 
L 104.063779 228.036999 
L 105.77348 227.17135 
L 107.42803 228.036999 
L 110.847433 227.940816 
L 112.501983 229.287381 
L 114.211684 227.844633 
L 117.575936 233.615625 
L 119.285637 224.959136 
L 120.829884 229.191198 
L 122.539585 225.151503 
L 124.194135 227.556083 
L 125.903837 227.652266 
L 127.558387 226.594251 
L 129.268088 226.401885 
L 130.97779 226.786617 
L 132.632339 227.940816 
L 134.342041 225.728602 
L 137.706292 225.824785 
L 139.415994 227.363717 
L 140.96024 225.247686 
L 142.669942 227.075167 
L 144.324492 224.574404 
L 146.034193 225.05532 
L 147.688743 227.267533 
L 149.398445 223.420205 
L 151.108146 223.804938 
L 152.762696 227.4599 
L 154.472397 224.959136 
L 156.126947 227.652266 
L 157.836649 224.862953 
L 159.54635 225.247686 
L 161.145748 226.209518 
L 162.85545 220.053793 
L 164.51 224.093488 
L 166.219701 224.862953 
L 167.874251 223.901121 
L 169.583953 225.824785 
L 171.293654 224.574404 
L 172.948204 220.342343 
L 176.312455 226.498068 
L 178.022157 223.612572 
L 179.731858 223.901121 
L 181.276105 223.804938 
L 182.985806 222.169823 
L 186.350058 222.65074 
L 188.004608 223.420205 
L 189.714309 218.322495 
L 191.424011 224.093488 
L 193.078561 221.785091 
L 194.788262 222.843106 
L 196.442812 222.65074 
L 198.152513 219.284327 
L 199.862215 220.727075 
L 201.406461 226.690434 
L 203.116163 221.592724 
L 204.770713 220.342343 
L 206.480414 221.304175 
L 208.134964 222.554556 
L 211.554367 220.534709 
L 213.208917 223.612572 
L 214.918619 222.554556 
L 216.573168 220.630892 
L 218.28287 224.862953 
L 219.992571 221.688907 
L 221.536818 215.533182 
L 223.246519 218.611045 
L 224.901069 219.66906 
L 226.610771 220.246159 
L 228.265321 216.97593 
L 229.975022 220.342343 
L 231.684724 217.168297 
L 233.339273 215.148449 
L 235.048975 213.705701 
L 236.703525 212.070587 
L 238.413226 218.418678 
L 240.122928 218.803411 
L 241.722326 217.456846 
L 243.432028 217.26448 
L 245.086577 217.841579 
L 246.796279 216.302648 
L 248.450829 220.053793 
L 250.16053 215.436999 
L 251.870232 216.398831 
L 253.524782 218.611045 
L 255.234483 219.572877 
L 256.889033 218.803411 
L 258.598734 217.072114 
L 260.308436 205.145396 
L 261.852683 217.456846 
L 263.562384 215.244633 
L 265.216934 218.226312 
L 266.926635 212.359136 
L 268.581185 218.226312 
L 270.290887 214.57135 
L 273.655138 219.38051 
L 275.36484 212.551503 
L 277.019389 219.091961 
L 278.729091 208.127075 
L 280.438792 208.800358 
L 281.983039 212.359136 
L 283.692741 214.090434 
L 285.34729 213.032419 
L 287.056992 211.397304 
L 288.711542 214.378984 
L 290.421243 210.916388 
L 292.130945 215.917915 
L 293.785495 213.032419 
L 295.495196 217.26448 
L 297.149746 210.916388 
L 298.859447 211.974404 
L 300.569149 211.108755 
L 302.113395 212.45532 
L 303.823097 208.223259 
L 305.477647 211.012572 
L 307.187348 210.435472 
L 308.841898 214.57135 
L 310.5516 215.821732 
L 312.261301 214.378984 
L 313.915851 210.627839 
L 315.625553 205.241579 
L 317.280102 208.800358 
L 318.989804 206.972877 
L 320.699505 193.603411 
L 322.298904 210.435472 
L 324.008605 198.124022 
L 325.663155 210.05074 
L 327.372856 209.088907 
L 329.027406 205.433946 
L 330.737108 210.243106 
L 332.446809 205.049213 
L 334.101359 207.261427 
L 335.811061 207.838526 
L 337.465611 204.95303 
L 339.175312 205.049213 
L 340.885014 198.316388 
L 342.42926 202.067533 
L 344.138962 201.105701 
L 345.793511 205.433946 
L 347.503213 202.163717 
L 349.157763 202.356083 
L 350.867464 200.432419 
L 352.577166 198.220205 
L 354.231716 203.125549 
L 355.941417 192.256846 
L 357.595967 193.314862 
L 359.305669 205.722495 
L 361.01537 186.389671 
L 362.559617 200.624785 
L 364.269318 194.276694 
L 365.923868 192.449213 
L 367.633569 194.276694 
L 369.288119 193.314862 
L 370.997821 193.891961 
L 372.707522 188.698068 
L 374.362072 191.872114 
L 376.071774 196.777457 
L 377.726323 199.470587 
L 379.436025 181.003411 
L 381.145727 179.560663 
L 382.689973 195.238526 
L 384.399675 191.968297 
L 386.054224 185.716388 
L 387.763926 183.504175 
L 389.418476 189.852266 
L 391.128177 181.099594 
L 392.837879 188.986617 
L 394.492429 177.0599 
L 396.20213 185.331656 
L 397.85668 187.25532 
L 399.566381 184.658373 
L 401.276083 166.479747 
L 402.875481 179.75303 
L 404.585183 179.849213 
L 406.239733 178.310281 
L 407.949434 180.426312 
L 409.603984 159.554556 
L 411.313685 159.07364 
L 413.023387 167.826312 
L 414.677937 170.615625 
L 416.387638 153.687381 
L 418.042188 149.647686 
L 419.75189 155.418678 
L 421.461591 162.440052 
L 423.005838 163.498068 
L 424.715539 133.007991 
L 426.370089 155.514862 
L 428.079791 148.685854 
L 429.73434 152.244633 
L 431.444042 151.378984 
L 433.153743 150.032419 
L 434.808293 148.301121 
L 436.517995 142.530129 
L 438.172545 156.861427 
L 441.591948 134.835472 
L 443.136194 141.760663 
L 444.845896 135.316388 
L 446.500445 146.185091 
L 448.210147 130.891961 
L 449.864697 133.969823 
L 451.574398 139.163717 
L 453.2841 139.740816 
L 454.93865 140.606465 
L 456.648351 131.372877 
L 458.302901 126.756083 
L 460.012603 140.125549 
L 461.722304 122.812572 
L 463.266551 135.412572 
L 464.976252 111.65532 
L 466.630802 119.734709 
L 468.340503 112.905701 
L 469.995053 125.409518 
L 471.704755 116.945396 
L 473.414456 111.847686 
L 475.069006 132.911808 
L 476.778708 124.351503 
L 478.433258 108.000358 
L 480.142959 119.638526 
L 481.852661 109.635472 
L 483.452059 110.885854 
L 485.16176 119.349976 
L 486.81631 72.412572 
L 488.526012 57.215625 
L 490.180561 61.062953 
L 491.890263 47.597304 
L 493.599964 49.905701 
L 495.254514 53.17593 
L 496.964216 37.209518 
L 498.618766 63.37135 
L 500.328467 58.754556 
L 502.038169 40.095014 
L 503.582415 59.043106 
L 505.292117 52.406465 
L 506.946667 50.386617 
L 508.656368 40.479747 
L 510.310918 47.501121 
L 512.020619 35.959136 
L 513.730321 51.733182 
L 515.384871 60.293488 
L 517.094572 54.522495 
L 518.749122 52.983564 
L 520.458824 45.000358 
L 522.168525 55.58051 
L 523.712772 56.253793 
L 525.422473 41.345396 
L 527.077023 48.559136 
L 528.786725 57.792724 
L 530.441274 32.015625 
L 532.150976 48.943869 
L 533.860677 59.716388 
L 535.515227 54.330129 
L 535.515227 54.330129 
" clip-path="url(#pfd11d76bdc)" style="fill: none; stroke: #f89c0e; stroke-width: 1.5; stroke-linecap: round"/>
   </g>
   <g id="patch_3">
    <path d="M 56.1425 243.695625 
L 558.3425 243.695625 
" style="fill: none; stroke: #262626; stroke-width: 1.25; stroke-linejoin: miter; stroke-linecap: square"/>
   </g>
  </g>
  <g id="axes_2">
   <g id="matplotlib.axis_3">
    <g id="ytick_6">
     <g id="line2d_7">
      <defs>
       <path id="mb692cb43bb" d="M 0 0 
L 6 0 
" style="stroke: #262626; stroke-width: 1.25"/>
      </defs>
      <g>
       <use xlink:href="#mb692cb43bb" x="558.3425" y="243.695625" style="fill: #262626; stroke: #262626; stroke-width: 1.25"/>
      </g>
     </g>
     <g id="text_14">
      <!-- 0.0 -->
      <g style="fill: #262626" transform="translate(567.8425 247.632422)scale(0.11 -0.11)">
       <defs>
        <path id="ArialMT-2e" d="M 581 0 
L 581 641 
L 1222 641 
L 1222 0 
L 581 0 
z
" transform="scale(0.015625)"/>
       </defs>
       <use xlink:href="#ArialMT-30"/>
       <use xlink:href="#ArialMT-2e" x="55.615234"/>
       <use xlink:href="#ArialMT-30" x="83.398438"/>
      </g>
     </g>
    </g>
    <g id="ytick_7">
     <g id="line2d_8">
      <g>
       <use xlink:href="#mb692cb43bb" x="558.3425" y="206.735625" style="fill: #262626; stroke: #262626; stroke-width: 1.25"/>
      </g>
     </g>
     <g id="text_15">
      <!-- 0.5 -->
      <g style="fill: #262626" transform="translate(567.8425 210.672422)scale(0.11 -0.11)">
       <use xlink:href="#ArialMT-30"/>
       <use xlink:href="#ArialMT-2e" x="55.615234"/>
       <use xlink:href="#ArialMT-35" x="83.398438"/>
      </g>
     </g>
    </g>
    <g id="ytick_8">
     <g id="line2d_9">
      <g>
       <use xlink:href="#mb692cb43bb" x="558.3425" y="169.775625" style="fill: #262626; stroke: #262626; stroke-width: 1.25"/>
      </g>
     </g>
     <g id="text_16">
      <!-- 1.0 -->
      <g style="fill: #262626" transform="translate(567.8425 173.712422)scale(0.11 -0.11)">
       <use xlink:href="#ArialMT-31"/>
       <use xlink:href="#ArialMT-2e" x="55.615234"/>
       <use xlink:href="#ArialMT-30" x="83.398438"/>
      </g>
     </g>
    </g>
    <g id="ytick_9">
     <g id="line2d_10">
      <g>
       <use xlink:href="#mb692cb43bb" x="558.3425" y="132.815625" style="fill: #262626; stroke: #262626; stroke-width: 1.25"/>
      </g>
     </g>
     <g id="text_17">
      <!-- 1.5 -->
      <g style="fill: #262626" transform="translate(567.8425 136.752422)scale(0.11 -0.11)">
       <use xlink:href="#ArialMT-31"/>
       <use xlink:href="#ArialMT-2e" x="55.615234"/>
       <use xlink:href="#ArialMT-35" x="83.398438"/>
      </g>
     </g>
    </g>
    <g id="ytick_10">
     <g id="line2d_11">
      <g>
       <use xlink:href="#mb692cb43bb" x="558.3425" y="95.855625" style="fill: #262626; stroke: #262626; stroke-width: 1.25"/>
      </g>
     </g>
     <g id="text_18">
      <!-- 2.0 -->
      <g style="fill: #262626" transform="translate(567.8425 99.792422)scale(0.11 -0.11)">
       <use xlink:href="#ArialMT-32"/>
       <use xlink:href="#ArialMT-2e" x="55.615234"/>
       <use xlink:href="#ArialMT-30" x="83.398438"/>
      </g>
     </g>
    </g>
    <g id="ytick_11">
     <g id="line2d_12">
      <g>
       <use xlink:href="#mb692cb43bb" x="558.3425" y="58.895625" style="fill: #262626; stroke: #262626; stroke-width: 1.25"/>
      </g>
     </g>
     <g id="text_19">
      <!-- 2.5 -->
      <g style="fill: #262626" transform="translate(567.8425 62.832422)scale(0.11 -0.11)">
       <use xlink:href="#ArialMT-32"/>
       <use xlink:href="#ArialMT-2e" x="55.615234"/>
       <use xlink:href="#ArialMT-35" x="83.398438"/>
      </g>
     </g>
    </g>
    <g id="ytick_12">
     <g id="line2d_13">
      <g>
       <use xlink:href="#mb692cb43bb" x="558.3425" y="21.935625" style="fill: #262626; stroke: #262626; stroke-width: 1.25"/>
      </g>
     </g>
     <g id="text_20">
      <!-- 3.0 -->
      <g style="fill: #262626" transform="translate(567.8425 25.872422)scale(0.11 -0.11)">
       <defs>
        <path id="ArialMT-33" d="M 269 1209 
L 831 1284 
Q 928 806 1161 595 
Q 1394 384 1728 384 
Q 2125 384 2398 659 
Q 2672 934 2672 1341 
Q 2672 1728 2419 1979 
Q 2166 2231 1775 2231 
Q 1616 2231 1378 2169 
L 1441 2663 
Q 1497 2656 1531 2656 
Q 1891 2656 2178 2843 
Q 2466 3031 2466 3422 
Q 2466 3731 2256 3934 
Q 2047 4138 1716 4138 
Q 1388 4138 1169 3931 
Q 950 3725 888 3313 
L 325 3413 
Q 428 3978 793 4289 
Q 1159 4600 1703 4600 
Q 2078 4600 2393 4439 
Q 2709 4278 2876 4000 
Q 3044 3722 3044 3409 
Q 3044 3113 2884 2869 
Q 2725 2625 2413 2481 
Q 2819 2388 3044 2092 
Q 3269 1797 3269 1353 
Q 3269 753 2831 336 
Q 2394 -81 1725 -81 
Q 1122 -81 723 278 
Q 325 638 269 1209 
z
" transform="scale(0.015625)"/>
       </defs>
       <use xlink:href="#ArialMT-33"/>
       <use xlink:href="#ArialMT-2e" x="55.615234"/>
       <use xlink:href="#ArialMT-30" x="83.398438"/>
      </g>
     </g>
    </g>
    <g id="text_21">
     <!-- % of All Publications -->
     <g style="fill: #262626" transform="translate(595.721875 186.844688)rotate(-90)scale(0.12 -0.12)">
      <defs>
       <path id="ArialMT-25" d="M 372 3481 
Q 372 3972 619 4315 
Q 866 4659 1334 4659 
Q 1766 4659 2048 4351 
Q 2331 4044 2331 3447 
Q 2331 2866 2045 2552 
Q 1759 2238 1341 2238 
Q 925 2238 648 2547 
Q 372 2856 372 3481 
z
M 1350 4272 
Q 1141 4272 1002 4090 
Q 863 3909 863 3425 
Q 863 2984 1003 2804 
Q 1144 2625 1350 2625 
Q 1563 2625 1702 2806 
Q 1841 2988 1841 3469 
Q 1841 3913 1700 4092 
Q 1559 4272 1350 4272 
z
M 1353 -169 
L 3859 4659 
L 4316 4659 
L 1819 -169 
L 1353 -169 
z
M 3334 1075 
Q 3334 1569 3581 1911 
Q 3828 2253 4300 2253 
Q 4731 2253 5014 1945 
Q 5297 1638 5297 1041 
Q 5297 459 5011 145 
Q 4725 -169 4303 -169 
Q 3888 -169 3611 142 
Q 3334 453 3334 1075 
z
M 4316 1866 
Q 4103 1866 3964 1684 
Q 3825 1503 3825 1019 
Q 3825 581 3965 400 
Q 4106 219 4313 219 
Q 4528 219 4667 400 
Q 4806 581 4806 1063 
Q 4806 1506 4665 1686 
Q 4525 1866 4316 1866 
z
" transform="scale(0.015625)"/>
       <path id="ArialMT-66" d="M 556 0 
L 556 2881 
L 59 2881 
L 59 3319 
L 556 3319 
L 556 3672 
Q 556 4006 616 4169 
Q 697 4388 901 4523 
Q 1106 4659 1475 4659 
Q 1713 4659 2000 4603 
L 1916 4113 
Q 1741 4144 1584 4144 
Q 1328 4144 1222 4034 
Q 1116 3925 1116 3625 
L 1116 3319 
L 1763 3319 
L 1763 2881 
L 1116 2881 
L 1116 0 
L 556 0 
z
" transform="scale(0.015625)"/>
       <path id="ArialMT-41" d="M -9 0 
L 1750 4581 
L 2403 4581 
L 4278 0 
L 3588 0 
L 3053 1388 
L 1138 1388 
L 634 0 
L -9 0 
z
M 1313 1881 
L 2866 1881 
L 2388 3150 
Q 2169 3728 2063 4100 
Q 1975 3659 1816 3225 
L 1313 1881 
z
" transform="scale(0.015625)"/>
      </defs>
      <use xlink:href="#ArialMT-25"/>
      <use xlink:href="#ArialMT-20" x="88.916016"/>
      <use xlink:href="#ArialMT-6f" x="116.699219"/>
      <use xlink:href="#ArialMT-66" x="172.314453"/>
      <use xlink:href="#ArialMT-20" x="200.097656"/>
      <use xlink:href="#ArialMT-41" x="222.380859"/>
      <use xlink:href="#ArialMT-6c" x="289.080078"/>
      <use xlink:href="#ArialMT-6c" x="311.296875"/>
      <use xlink:href="#ArialMT-20" x="333.513672"/>
      <use xlink:href="#ArialMT-50" x="361.296875"/>
      <use xlink:href="#ArialMT-75" x="427.996094"/>
      <use xlink:href="#ArialMT-62" x="483.611328"/>
      <use xlink:href="#ArialMT-6c" x="539.226562"/>
      <use xlink:href="#ArialMT-69" x="561.443359"/>
      <use xlink:href="#ArialMT-63" x="583.660156"/>
      <use xlink:href="#ArialMT-61" x="633.660156"/>
      <use xlink:href="#ArialMT-74" x="689.275391"/>
      <use xlink:href="#ArialMT-69" x="717.058594"/>
      <use xlink:href="#ArialMT-6f" x="739.275391"/>
      <use xlink:href="#ArialMT-6e" x="794.890625"/>
      <use xlink:href="#ArialMT-73" x="850.505859"/>
     </g>
    </g>
   </g>
   <g id="PolyCollection_2"/>
   <g id="line2d_14">
    <path d="M 78.969773 224.422235 
L 80.569171 226.871834 
L 82.278872 227.879098 
L 83.933422 224.92159 
L 85.643124 225.644793 
L 87.297674 225.590434 
L 90.717077 227.604483 
L 92.371626 225.98171 
L 94.081328 229.178447 
L 95.735878 225.62049 
L 97.445579 220.981761 
L 99.155281 226.578018 
L 100.699527 224.887517 
L 102.409229 225.30792 
L 104.063779 224.134762 
L 105.77348 225.418702 
L 107.42803 225.371459 
L 109.137732 224.128123 
L 110.847433 225.388611 
L 112.501983 224.9525 
L 114.211684 226.587509 
L 115.866234 225.691728 
L 117.575936 228.224058 
L 119.285637 226.4794 
L 120.829884 226.695822 
L 122.539585 222.63702 
L 124.194135 225.650122 
L 125.903837 227.457729 
L 127.558387 223.685289 
L 129.268088 224.268174 
L 130.97779 223.208257 
L 132.632339 225.582493 
L 134.342041 223.114041 
L 135.996591 222.076658 
L 137.706292 221.144798 
L 139.415994 224.64685 
L 140.96024 221.136428 
L 142.669942 226.268783 
L 144.324492 222.579174 
L 146.034193 222.467023 
L 147.688743 225.348094 
L 149.398445 220.676714 
L 151.108146 220.586654 
L 152.762696 224.051342 
L 154.472397 222.748743 
L 156.126947 224.374935 
L 157.836649 223.774676 
L 159.54635 221.475947 
L 161.145748 221.51359 
L 162.85545 218.660063 
L 164.51 223.10437 
L 166.219701 221.16957 
L 167.874251 221.332896 
L 169.583953 225.289905 
L 171.293654 218.790842 
L 172.948204 219.095169 
L 174.657906 221.800919 
L 176.312455 224.142792 
L 178.022157 221.016084 
L 179.731858 220.401813 
L 181.276105 220.245142 
L 182.985806 222.949586 
L 186.350058 220.374887 
L 188.004608 224.06042 
L 189.714309 216.622341 
L 191.424011 222.7224 
L 193.078561 221.538373 
L 194.788262 222.128425 
L 196.442812 220.64268 
L 198.152513 218.352182 
L 199.862215 219.216704 
L 201.406461 225.799966 
L 203.116163 221.752768 
L 204.770713 219.265616 
L 206.480414 220.430389 
L 208.134964 223.18652 
L 209.844666 221.216028 
L 211.554367 221.060302 
L 213.208917 222.506915 
L 214.918619 222.630967 
L 216.573168 218.052824 
L 218.28287 224.783483 
L 219.992571 221.614826 
L 221.536818 213.459242 
L 223.246519 219.978214 
L 224.901069 218.929366 
L 226.610771 220.900353 
L 228.265321 215.571185 
L 229.975022 218.708511 
L 231.684724 217.094464 
L 233.339273 213.72838 
L 235.048975 213.516787 
L 236.703525 211.551062 
L 238.413226 217.054027 
L 240.122928 220.662198 
L 241.722326 218.895022 
L 243.432028 217.336734 
L 245.086577 219.938098 
L 246.796279 216.238279 
L 248.450829 220.0658 
L 250.16053 218.048349 
L 251.870232 215.456977 
L 253.524782 218.384991 
L 255.234483 222.187428 
L 256.889033 218.158426 
L 258.598734 218.786041 
L 260.308436 209.769395 
L 261.852683 217.191376 
L 263.562384 216.135337 
L 265.216934 218.365505 
L 266.926635 214.095064 
L 268.581185 220.521221 
L 270.290887 215.284415 
L 272.000588 216.505797 
L 273.655138 219.750834 
L 275.36484 214.020453 
L 277.019389 218.028534 
L 278.729091 209.083182 
L 280.438792 213.486856 
L 281.983039 211.523523 
L 283.692741 216.632323 
L 285.34729 214.889047 
L 287.056992 212.126351 
L 288.711542 215.594524 
L 290.421243 215.725434 
L 292.130945 216.900631 
L 293.785495 214.474426 
L 295.495196 219.20641 
L 297.149746 211.564545 
L 298.859447 213.538499 
L 300.569149 216.362073 
L 302.113395 212.886883 
L 303.823097 214.888907 
L 305.477647 214.163385 
L 307.187348 214.210968 
L 308.841898 218.475664 
L 310.5516 220.012339 
L 312.261301 216.384241 
L 313.915851 213.276292 
L 315.625553 207.994737 
L 317.280102 214.324421 
L 318.989804 210.179958 
L 320.699505 202.238632 
L 322.298904 209.991448 
L 324.008605 209.594759 
L 325.663155 211.856128 
L 327.372856 215.068491 
L 329.027406 212.374345 
L 330.737108 215.395328 
L 332.446809 209.670748 
L 334.101359 212.038034 
L 335.811061 213.840947 
L 337.465611 208.706577 
L 339.175312 207.603459 
L 340.885014 210.663085 
L 342.42926 207.056102 
L 345.793511 211.574745 
L 347.503213 209.527088 
L 349.157763 208.309126 
L 350.867464 208.906906 
L 352.577166 205.766523 
L 354.231716 206.919019 
L 355.941417 202.781885 
L 357.595967 202.519366 
L 359.305669 209.682309 
L 361.01537 204.387501 
L 362.559617 205.168171 
L 364.269318 206.288417 
L 365.923868 204.179231 
L 367.633569 204.000203 
L 369.288119 203.490628 
L 370.997821 205.947064 
L 372.707522 199.383725 
L 374.362072 200.824547 
L 376.071774 204.981673 
L 377.726323 201.170953 
L 379.436025 202.257428 
L 381.145727 192.628978 
L 382.689973 202.461401 
L 384.399675 203.82254 
L 387.763926 197.103508 
L 389.418476 201.532498 
L 391.128177 194.829172 
L 392.837879 198.544019 
L 394.492429 195.248781 
L 396.20213 199.443016 
L 397.85668 198.505307 
L 399.566381 198.375791 
L 401.276083 189.099272 
L 402.875481 193.810666 
L 404.585183 196.550141 
L 406.239733 193.559998 
L 407.949434 195.564378 
L 409.603984 178.485052 
L 411.313685 180.687898 
L 413.023387 179.599649 
L 414.677937 181.360819 
L 416.387638 179.832924 
L 418.042188 174.136504 
L 419.75189 174.695079 
L 421.461591 179.246219 
L 423.005838 175.709724 
L 424.715539 163.167192 
L 426.370089 175.730925 
L 428.079791 168.962445 
L 429.73434 171.5346 
L 431.444042 171.712246 
L 433.153743 170.07708 
L 434.808293 172.05216 
L 436.517995 167.509739 
L 438.172545 176.790866 
L 439.882246 171.610387 
L 441.591948 157.288805 
L 443.136194 168.599564 
L 444.845896 166.664449 
L 446.500445 165.702753 
L 448.210147 162.723822 
L 449.864697 164.060828 
L 451.574398 165.107923 
L 453.2841 165.25486 
L 454.93865 165.840368 
L 456.648351 161.893615 
L 458.302901 159.270053 
L 460.012603 162.99215 
L 461.722304 156.282538 
L 463.266551 161.127364 
L 464.976252 153.842425 
L 466.630802 153.944651 
L 468.340503 154.523369 
L 469.995053 157.834049 
L 471.704755 154.772673 
L 473.414456 150.295539 
L 475.069006 155.387654 
L 476.778708 155.77533 
L 478.433258 156.558184 
L 480.142959 155.044929 
L 481.852661 151.110179 
L 483.452059 150.773591 
L 485.16176 156.137811 
L 486.81631 134.551241 
L 488.526012 128.214689 
L 490.180561 126.854721 
L 491.890263 133.057386 
L 493.599964 132.294831 
L 496.964216 125.986121 
L 498.618766 132.912537 
L 500.328467 132.135985 
L 502.038169 128.088342 
L 503.582415 127.697534 
L 505.292117 135.286767 
L 506.946667 127.859256 
L 508.656368 127.088506 
L 510.310918 130.867443 
L 512.020619 131.366343 
L 513.730321 131.018864 
L 515.384871 131.647276 
L 517.094572 129.607987 
L 518.749122 128.890192 
L 520.458824 121.390711 
L 522.168525 127.494081 
L 523.712772 127.615185 
L 525.422473 127.582051 
L 527.077023 128.861581 
L 528.786725 129.455625 
L 530.441274 122.825162 
L 532.150976 131.602081 
L 533.860677 132.300415 
L 535.515227 134.427374 
L 535.515227 134.427374 
" clip-path="url(#pfd11d76bdc)" style="fill: none; stroke-dasharray: 1.5,2.475; stroke-dashoffset: 0; stroke: #b00c36; stroke-width: 1.5"/>
   </g>
   <g id="patch_4">
    <path d="M 56.1425 243.695625 
L 558.3425 243.695625 
" style="fill: none; stroke: #262626; stroke-width: 1.25; stroke-linejoin: miter; stroke-linecap: square"/>
   </g>
   <g id="text_22">
    <!-- Development of DHT PubMed Publications -->
    <g style="fill: #262626" transform="translate(193.297813 15.935625)scale(0.12 -0.12)">
     <defs>
      <path id="ArialMT-76" d="M 1344 0 
L 81 3319 
L 675 3319 
L 1388 1331 
Q 1503 1009 1600 663 
Q 1675 925 1809 1294 
L 2547 3319 
L 3125 3319 
L 1869 0 
L 1344 0 
z
" transform="scale(0.015625)"/>
      <path id="ArialMT-70" d="M 422 -1272 
L 422 3319 
L 934 3319 
L 934 2888 
Q 1116 3141 1344 3267 
Q 1572 3394 1897 3394 
Q 2322 3394 2647 3175 
Q 2972 2956 3137 2557 
Q 3303 2159 3303 1684 
Q 3303 1175 3120 767 
Q 2938 359 2589 142 
Q 2241 -75 1856 -75 
Q 1575 -75 1351 44 
Q 1128 163 984 344 
L 984 -1272 
L 422 -1272 
z
M 931 1641 
Q 931 1000 1190 694 
Q 1450 388 1819 388 
Q 2194 388 2461 705 
Q 2728 1022 2728 1688 
Q 2728 2322 2467 2637 
Q 2206 2953 1844 2953 
Q 1484 2953 1207 2617 
Q 931 2281 931 1641 
z
" transform="scale(0.015625)"/>
      <path id="ArialMT-6d" d="M 422 0 
L 422 3319 
L 925 3319 
L 925 2853 
Q 1081 3097 1340 3245 
Q 1600 3394 1931 3394 
Q 2300 3394 2536 3241 
Q 2772 3088 2869 2813 
Q 3263 3394 3894 3394 
Q 4388 3394 4653 3120 
Q 4919 2847 4919 2278 
L 4919 0 
L 4359 0 
L 4359 2091 
Q 4359 2428 4304 2576 
Q 4250 2725 4106 2815 
Q 3963 2906 3769 2906 
Q 3419 2906 3187 2673 
Q 2956 2441 2956 1928 
L 2956 0 
L 2394 0 
L 2394 2156 
Q 2394 2531 2256 2718 
Q 2119 2906 1806 2906 
Q 1569 2906 1367 2781 
Q 1166 2656 1075 2415 
Q 984 2175 984 1722 
L 984 0 
L 422 0 
z
" transform="scale(0.015625)"/>
     </defs>
     <use xlink:href="#ArialMT-44"/>
     <use xlink:href="#ArialMT-65" x="72.216797"/>
     <use xlink:href="#ArialMT-76" x="127.832031"/>
     <use xlink:href="#ArialMT-65" x="177.832031"/>
     <use xlink:href="#ArialMT-6c" x="233.447266"/>
     <use xlink:href="#ArialMT-6f" x="255.664062"/>
     <use xlink:href="#ArialMT-70" x="311.279297"/>
     <use xlink:href="#ArialMT-6d" x="366.894531"/>
     <use xlink:href="#ArialMT-65" x="450.195312"/>
     <use xlink:href="#ArialMT-6e" x="505.810547"/>
     <use xlink:href="#ArialMT-74" x="561.425781"/>
     <use xlink:href="#ArialMT-20" x="589.208984"/>
     <use xlink:href="#ArialMT-6f" x="616.992188"/>
     <use xlink:href="#ArialMT-66" x="672.607422"/>
     <use xlink:href="#ArialMT-20" x="700.390625"/>
     <use xlink:href="#ArialMT-44" x="728.173828"/>
     <use xlink:href="#ArialMT-48" x="800.390625"/>
     <use xlink:href="#ArialMT-54" x="872.607422"/>
     <use xlink:href="#ArialMT-20" x="931.941406"/>
     <use xlink:href="#ArialMT-50" x="959.724609"/>
     <use xlink:href="#ArialMT-75" x="1026.423828"/>
     <use xlink:href="#ArialMT-62" x="1082.039062"/>
     <use xlink:href="#ArialMT-4d" x="1137.654297"/>
     <use xlink:href="#ArialMT-65" x="1220.955078"/>
     <use xlink:href="#ArialMT-64" x="1276.570312"/>
     <use xlink:href="#ArialMT-20" x="1332.185547"/>
     <use xlink:href="#ArialMT-50" x="1359.96875"/>
     <use xlink:href="#ArialMT-75" x="1426.667969"/>
     <use xlink:href="#ArialMT-62" x="1482.283203"/>
     <use xlink:href="#ArialMT-6c" x="1537.898438"/>
     <use xlink:href="#ArialMT-69" x="1560.115234"/>
     <use xlink:href="#ArialMT-63" x="1582.332031"/>
     <use xlink:href="#ArialMT-61" x="1632.332031"/>
     <use xlink:href="#ArialMT-74" x="1687.947266"/>
     <use xlink:href="#ArialMT-69" x="1715.730469"/>
     <use xlink:href="#ArialMT-6f" x="1737.947266"/>
     <use xlink:href="#ArialMT-6e" x="1793.5625"/>
     <use xlink:href="#ArialMT-73" x="1849.177734"/>
    </g>
   </g>
   <g id="legend_1">
    <g id="patch_5">
     <path d="M 61.9721 60.966879 
L 187.529712 60.966879 
Q 189.195312 60.966879 189.195312 59.301279 
L 189.195312 27.765225 
Q 189.195312 26.099625 187.529712 26.099625 
L 61.9721 26.099625 
Q 60.3065 26.099625 60.3065 27.765225 
L 60.3065 59.301279 
Q 60.3065 60.966879 61.9721 60.966879 
z
" style="fill: #ffffff; opacity: 0.8; stroke: #cccccc; stroke-linejoin: miter"/>
    </g>
    <g id="line2d_15">
     <path d="M 63.6377 32.477051 
L 71.9657 32.477051 
L 80.2937 32.477051 
" style="fill: none; stroke: #f89c0e; stroke-width: 1.5; stroke-linecap: round"/>
    </g>
    <g id="text_23">
     <!-- Absolute DHT Publications -->
     <g style="fill: #262626" transform="translate(86.9561 35.391851)scale(0.08328 -0.08328)">
      <use xlink:href="#ArialMT-41"/>
      <use xlink:href="#ArialMT-62" x="66.699219"/>
      <use xlink:href="#ArialMT-73" x="122.314453"/>
      <use xlink:href="#ArialMT-6f" x="172.314453"/>
      <use xlink:href="#ArialMT-6c" x="227.929688"/>
      <use xlink:href="#ArialMT-75" x="250.146484"/>
      <use xlink:href="#ArialMT-74" x="305.761719"/>
      <use xlink:href="#ArialMT-65" x="333.544922"/>
      <use xlink:href="#ArialMT-20" x="389.160156"/>
      <use xlink:href="#ArialMT-44" x="416.943359"/>
      <use xlink:href="#ArialMT-48" x="489.160156"/>
      <use xlink:href="#ArialMT-54" x="561.376953"/>
      <use xlink:href="#ArialMT-20" x="620.710938"/>
      <use xlink:href="#ArialMT-50" x="648.494141"/>
      <use xlink:href="#ArialMT-75" x="715.193359"/>
      <use xlink:href="#ArialMT-62" x="770.808594"/>
      <use xlink:href="#ArialMT-6c" x="826.423828"/>
      <use xlink:href="#ArialMT-69" x="848.640625"/>
      <use xlink:href="#ArialMT-63" x="870.857422"/>
      <use xlink:href="#ArialMT-61" x="920.857422"/>
      <use xlink:href="#ArialMT-74" x="976.472656"/>
      <use xlink:href="#ArialMT-69" x="1004.255859"/>
      <use xlink:href="#ArialMT-6f" x="1026.472656"/>
      <use xlink:href="#ArialMT-6e" x="1082.087891"/>
      <use xlink:href="#ArialMT-73" x="1137.703125"/>
     </g>
    </g>
    <g id="line2d_16">
     <path d="M 63.6377 49.489073 
L 71.9657 49.489073 
L 80.2937 49.489073 
" style="fill: none; stroke-dasharray: 1.5,2.475; stroke-dashoffset: 0; stroke: #b00c36; stroke-width: 1.5"/>
    </g>
    <g id="text_24">
     <!-- % of all Publications -->
     <g style="fill: #262626" transform="translate(86.9561 47.172067)scale(0.08328 -0.08328)">
      <use xlink:href="#ArialMT-25"/>
      <use xlink:href="#ArialMT-20" x="88.916016"/>
      <use xlink:href="#ArialMT-6f" x="116.699219"/>
      <use xlink:href="#ArialMT-66" x="172.314453"/>
      <use xlink:href="#ArialMT-20" x="200.097656"/>
      <use xlink:href="#ArialMT-61" x="227.880859"/>
      <use xlink:href="#ArialMT-6c" x="283.496094"/>
      <use xlink:href="#ArialMT-6c" x="305.712891"/>
      <use xlink:href="#ArialMT-20" x="327.929688"/>
      <use xlink:href="#ArialMT-50" x="355.712891"/>
      <use xlink:href="#ArialMT-75" x="422.412109"/>
      <use xlink:href="#ArialMT-62" x="478.027344"/>
      <use xlink:href="#ArialMT-6c" x="533.642578"/>
      <use xlink:href="#ArialMT-69" x="555.859375"/>
      <use xlink:href="#ArialMT-63" x="578.076172"/>
      <use xlink:href="#ArialMT-61" x="628.076172"/>
      <use xlink:href="#ArialMT-74" x="683.691406"/>
      <use xlink:href="#ArialMT-69" x="711.474609"/>
      <use xlink:href="#ArialMT-6f" x="733.691406"/>
      <use xlink:href="#ArialMT-6e" x="789.306641"/>
      <use xlink:href="#ArialMT-73" x="844.921875"/>
     </g>
     <!--  on PubMed -->
     <g style="fill: #262626" transform="translate(86.9561 55.980489)scale(0.08328 -0.08328)">
      <use xlink:href="#ArialMT-20"/>
      <use xlink:href="#ArialMT-6f" x="27.783203"/>
      <use xlink:href="#ArialMT-6e" x="83.398438"/>
      <use xlink:href="#ArialMT-20" x="139.013672"/>
      <use xlink:href="#ArialMT-50" x="166.796875"/>
      <use xlink:href="#ArialMT-75" x="233.496094"/>
      <use xlink:href="#ArialMT-62" x="289.111328"/>
      <use xlink:href="#ArialMT-4d" x="344.726562"/>
      <use xlink:href="#ArialMT-65" x="428.027344"/>
      <use xlink:href="#ArialMT-64" x="483.642578"/>
     </g>
    </g>
   </g>
  </g>
 </g>
 <defs>
  <clipPath id="pfd11d76bdc">
   <rect x="56.1425" y="21.935625" width="502.2" height="221.76"/>
  </clipPath>
 </defs>
</svg>
