<?xml version="1.0" encoding="utf-8" standalone="no"?>
<!DOCTYPE svg PUBLIC "-//W3C//DTD SVG 1.1//EN"
  "http://www.w3.org/Graphics/SVG/1.1/DTD/svg11.dtd">
<svg xmlns:xlink="http://www.w3.org/1999/xlink" width="596.133906pt" height="285.429844pt" viewBox="0 0 596.133906 285.429844" xmlns="http://www.w3.org/2000/svg" version="1.1">
 <metadata>
  <rdf:RDF xmlns:dc="http://purl.org/dc/elements/1.1/" xmlns:cc="http://creativecommons.org/ns#" xmlns:rdf="http://www.w3.org/1999/02/22-rdf-syntax-ns#">
   <cc:Work>
    <dc:type rdf:resource="http://purl.org/dc/dcmitype/StillImage"/>
    <dc:date>2022-12-30T17:40:52.126244</dc:date>
    <dc:format>image/svg+xml</dc:format>
    <dc:creator>
     <cc:Agent>
      <dc:title>Matplotlib v3.5.2, https://matplotlib.org/</dc:title>
     </cc:Agent>
    </dc:creator>
   </cc:Work>
  </rdf:RDF>
 </metadata>
 <defs>
  <style type="text/css">*{stroke-linejoin: round; stroke-linecap: butt}</style>
 </defs>
 <g id="figure_1">
  <g id="patch_1">
   <path d="M 0 285.429844 
L 596.133906 285.429844 
L 596.133906 0 
L 0 0 
z
" style="fill: #ffffff"/>
  </g>
  <g id="axes_1">
   <g id="patch_2">
    <path d="M 50.025469 243.695625 
L 552.225469 243.695625 
L 552.225469 21.935625 
L 50.025469 21.935625 
z
" style="fill: #ffffff"/>
   </g>
   <g id="matplotlib.axis_1">
    <g id="xtick_1">
     <g id="text_1">
      <!-- 2000 -->
      <g style="fill: #262626" transform="translate(58.964129 261.069219)scale(0.11 -0.11)">
       <defs>
        <path id="ArialMT-32" d="M 3222 541 
L 3222 0 
L 194 0 
Q 188 203 259 391 
Q 375 700 629 1000 
Q 884 1300 1366 1694 
Q 2113 2306 2375 2664 
Q 2638 3022 2638 3341 
Q 2638 3675 2398 3904 
Q 2159 4134 1775 4134 
Q 1369 4134 1125 3890 
Q 881 3647 878 3216 
L 300 3275 
Q 359 3922 746 4261 
Q 1134 4600 1788 4600 
Q 2447 4600 2831 4234 
Q 3216 3869 3216 3328 
Q 3216 3053 3103 2787 
Q 2991 2522 2730 2228 
Q 2469 1934 1863 1422 
Q 1356 997 1212 845 
Q 1069 694 975 541 
L 3222 541 
z
" transform="scale(0.015625)"/>
        <path id="ArialMT-30" d="M 266 2259 
Q 266 3072 433 3567 
Q 600 4063 929 4331 
Q 1259 4600 1759 4600 
Q 2128 4600 2406 4451 
Q 2684 4303 2865 4023 
Q 3047 3744 3150 3342 
Q 3253 2941 3253 2259 
Q 3253 1453 3087 958 
Q 2922 463 2592 192 
Q 2263 -78 1759 -78 
Q 1097 -78 719 397 
Q 266 969 266 2259 
z
M 844 2259 
Q 844 1131 1108 757 
Q 1372 384 1759 384 
Q 2147 384 2411 759 
Q 2675 1134 2675 2259 
Q 2675 3391 2411 3762 
Q 2147 4134 1753 4134 
Q 1366 4134 1134 3806 
Q 844 3388 844 2259 
z
" transform="scale(0.015625)"/>
       </defs>
       <use xlink:href="#ArialMT-32"/>
       <use xlink:href="#ArialMT-30" x="55.615234"/>
       <use xlink:href="#ArialMT-30" x="111.230469"/>
       <use xlink:href="#ArialMT-30" x="166.845703"/>
      </g>
     </g>
    </g>
    <g id="xtick_2">
     <g id="text_2">
      <!-- 2004 -->
      <g style="fill: #262626" transform="translate(139.540707 261.069219)scale(0.11 -0.11)">
       <defs>
        <path id="ArialMT-34" d="M 2069 0 
L 2069 1097 
L 81 1097 
L 81 1613 
L 2172 4581 
L 2631 4581 
L 2631 1613 
L 3250 1613 
L 3250 1097 
L 2631 1097 
L 2631 0 
L 2069 0 
z
M 2069 1613 
L 2069 3678 
L 634 1613 
L 2069 1613 
z
" transform="scale(0.015625)"/>
       </defs>
       <use xlink:href="#ArialMT-32"/>
       <use xlink:href="#ArialMT-30" x="55.615234"/>
       <use xlink:href="#ArialMT-30" x="111.230469"/>
       <use xlink:href="#ArialMT-34" x="166.845703"/>
      </g>
     </g>
    </g>
    <g id="xtick_3">
     <g id="text_3">
      <!-- 2008 -->
      <g style="fill: #262626" transform="translate(220.117284 261.069219)scale(0.11 -0.11)">
       <defs>
        <path id="ArialMT-38" d="M 1131 2484 
Q 781 2613 612 2850 
Q 444 3088 444 3419 
Q 444 3919 803 4259 
Q 1163 4600 1759 4600 
Q 2359 4600 2725 4251 
Q 3091 3903 3091 3403 
Q 3091 3084 2923 2848 
Q 2756 2613 2416 2484 
Q 2838 2347 3058 2040 
Q 3278 1734 3278 1309 
Q 3278 722 2862 322 
Q 2447 -78 1769 -78 
Q 1091 -78 675 323 
Q 259 725 259 1325 
Q 259 1772 486 2073 
Q 713 2375 1131 2484 
z
M 1019 3438 
Q 1019 3113 1228 2906 
Q 1438 2700 1772 2700 
Q 2097 2700 2305 2904 
Q 2513 3109 2513 3406 
Q 2513 3716 2298 3927 
Q 2084 4138 1766 4138 
Q 1444 4138 1231 3931 
Q 1019 3725 1019 3438 
z
M 838 1322 
Q 838 1081 952 856 
Q 1066 631 1291 507 
Q 1516 384 1775 384 
Q 2178 384 2440 643 
Q 2703 903 2703 1303 
Q 2703 1709 2433 1975 
Q 2163 2241 1756 2241 
Q 1359 2241 1098 1978 
Q 838 1716 838 1322 
z
" transform="scale(0.015625)"/>
       </defs>
       <use xlink:href="#ArialMT-32"/>
       <use xlink:href="#ArialMT-30" x="55.615234"/>
       <use xlink:href="#ArialMT-30" x="111.230469"/>
       <use xlink:href="#ArialMT-38" x="166.845703"/>
      </g>
     </g>
    </g>
    <g id="xtick_4">
     <g id="text_4">
      <!-- 2012 -->
      <g style="fill: #262626" transform="translate(300.693862 261.069219)scale(0.11 -0.11)">
       <defs>
        <path id="ArialMT-31" d="M 2384 0 
L 1822 0 
L 1822 3584 
Q 1619 3391 1289 3197 
Q 959 3003 697 2906 
L 697 3450 
Q 1169 3672 1522 3987 
Q 1875 4303 2022 4600 
L 2384 4600 
L 2384 0 
z
" transform="scale(0.015625)"/>
       </defs>
       <use xlink:href="#ArialMT-32"/>
       <use xlink:href="#ArialMT-30" x="55.615234"/>
       <use xlink:href="#ArialMT-31" x="111.230469"/>
       <use xlink:href="#ArialMT-32" x="166.845703"/>
      </g>
     </g>
    </g>
    <g id="xtick_5">
     <g id="text_5">
      <!-- 2016 -->
      <g style="fill: #262626" transform="translate(381.270439 261.069219)scale(0.11 -0.11)">
       <defs>
        <path id="ArialMT-36" d="M 3184 3459 
L 2625 3416 
Q 2550 3747 2413 3897 
Q 2184 4138 1850 4138 
Q 1581 4138 1378 3988 
Q 1113 3794 959 3422 
Q 806 3050 800 2363 
Q 1003 2672 1297 2822 
Q 1591 2972 1913 2972 
Q 2475 2972 2870 2558 
Q 3266 2144 3266 1488 
Q 3266 1056 3080 686 
Q 2894 316 2569 119 
Q 2244 -78 1831 -78 
Q 1128 -78 684 439 
Q 241 956 241 2144 
Q 241 3472 731 4075 
Q 1159 4600 1884 4600 
Q 2425 4600 2770 4297 
Q 3116 3994 3184 3459 
z
M 888 1484 
Q 888 1194 1011 928 
Q 1134 663 1356 523 
Q 1578 384 1822 384 
Q 2178 384 2434 671 
Q 2691 959 2691 1453 
Q 2691 1928 2437 2201 
Q 2184 2475 1800 2475 
Q 1419 2475 1153 2201 
Q 888 1928 888 1484 
z
" transform="scale(0.015625)"/>
       </defs>
       <use xlink:href="#ArialMT-32"/>
       <use xlink:href="#ArialMT-30" x="55.615234"/>
       <use xlink:href="#ArialMT-31" x="111.230469"/>
       <use xlink:href="#ArialMT-36" x="166.845703"/>
      </g>
     </g>
    </g>
    <g id="xtick_6">
     <g id="text_6">
      <!-- 2020 -->
      <g style="fill: #262626" transform="translate(461.847017 261.069219)scale(0.11 -0.11)">
       <use xlink:href="#ArialMT-32"/>
       <use xlink:href="#ArialMT-30" x="55.615234"/>
       <use xlink:href="#ArialMT-32" x="111.230469"/>
       <use xlink:href="#ArialMT-30" x="166.845703"/>
      </g>
     </g>
    </g>
    <g id="text_7">
     <!-- Year -->
     <g style="fill: #262626" transform="translate(288.999844 275.844844)scale(0.12 -0.12)">
      <defs>
       <path id="ArialMT-59" d="M 1784 0 
L 1784 1941 
L 19 4581 
L 756 4581 
L 1659 3200 
Q 1909 2813 2125 2425 
Q 2331 2784 2625 3234 
L 3513 4581 
L 4219 4581 
L 2391 1941 
L 2391 0 
L 1784 0 
z
" transform="scale(0.015625)"/>
       <path id="ArialMT-65" d="M 2694 1069 
L 3275 997 
Q 3138 488 2766 206 
Q 2394 -75 1816 -75 
Q 1088 -75 661 373 
Q 234 822 234 1631 
Q 234 2469 665 2931 
Q 1097 3394 1784 3394 
Q 2450 3394 2872 2941 
Q 3294 2488 3294 1666 
Q 3294 1616 3291 1516 
L 816 1516 
Q 847 969 1125 678 
Q 1403 388 1819 388 
Q 2128 388 2347 550 
Q 2566 713 2694 1069 
z
M 847 1978 
L 2700 1978 
Q 2663 2397 2488 2606 
Q 2219 2931 1791 2931 
Q 1403 2931 1139 2672 
Q 875 2413 847 1978 
z
" transform="scale(0.015625)"/>
       <path id="ArialMT-61" d="M 2588 409 
Q 2275 144 1986 34 
Q 1697 -75 1366 -75 
Q 819 -75 525 192 
Q 231 459 231 875 
Q 231 1119 342 1320 
Q 453 1522 633 1644 
Q 813 1766 1038 1828 
Q 1203 1872 1538 1913 
Q 2219 1994 2541 2106 
Q 2544 2222 2544 2253 
Q 2544 2597 2384 2738 
Q 2169 2928 1744 2928 
Q 1347 2928 1158 2789 
Q 969 2650 878 2297 
L 328 2372 
Q 403 2725 575 2942 
Q 747 3159 1072 3276 
Q 1397 3394 1825 3394 
Q 2250 3394 2515 3294 
Q 2781 3194 2906 3042 
Q 3031 2891 3081 2659 
Q 3109 2516 3109 2141 
L 3109 1391 
Q 3109 606 3145 398 
Q 3181 191 3288 0 
L 2700 0 
Q 2613 175 2588 409 
z
M 2541 1666 
Q 2234 1541 1622 1453 
Q 1275 1403 1131 1340 
Q 988 1278 909 1158 
Q 831 1038 831 891 
Q 831 666 1001 516 
Q 1172 366 1500 366 
Q 1825 366 2078 508 
Q 2331 650 2450 897 
Q 2541 1088 2541 1459 
L 2541 1666 
z
" transform="scale(0.015625)"/>
       <path id="ArialMT-72" d="M 416 0 
L 416 3319 
L 922 3319 
L 922 2816 
Q 1116 3169 1280 3281 
Q 1444 3394 1641 3394 
Q 1925 3394 2219 3213 
L 2025 2691 
Q 1819 2813 1613 2813 
Q 1428 2813 1281 2702 
Q 1134 2591 1072 2394 
Q 978 2094 978 1738 
L 978 0 
L 416 0 
z
" transform="scale(0.015625)"/>
      </defs>
      <use xlink:href="#ArialMT-59"/>
      <use xlink:href="#ArialMT-65" x="57.574219"/>
      <use xlink:href="#ArialMT-61" x="113.189453"/>
      <use xlink:href="#ArialMT-72" x="168.804688"/>
     </g>
    </g>
   </g>
   <g id="matplotlib.axis_2">
    <g id="ytick_1">
     <g id="line2d_1">
      <defs>
       <path id="m91320d2e90" d="M 0 0 
L -6 0 
" style="stroke: #262626; stroke-width: 1.25"/>
      </defs>
      <g>
       <use xlink:href="#m91320d2e90" x="50.025469" y="233.615625" style="fill: #262626; stroke: #262626; stroke-width: 1.25"/>
      </g>
     </g>
     <g id="text_8">
      <!-- 0 -->
      <g style="fill: #262626" transform="translate(34.408438 237.552422)scale(0.11 -0.11)">
       <use xlink:href="#ArialMT-30"/>
      </g>
     </g>
    </g>
    <g id="ytick_2">
     <g id="line2d_2">
      <g>
       <use xlink:href="#m91320d2e90" x="50.025469" y="208.970148" style="fill: #262626; stroke: #262626; stroke-width: 1.25"/>
      </g>
     </g>
     <g id="text_9">
      <!-- 50 -->
      <g style="fill: #262626" transform="translate(28.291406 212.906945)scale(0.11 -0.11)">
       <defs>
        <path id="ArialMT-35" d="M 266 1200 
L 856 1250 
Q 922 819 1161 601 
Q 1400 384 1738 384 
Q 2144 384 2425 690 
Q 2706 997 2706 1503 
Q 2706 1984 2436 2262 
Q 2166 2541 1728 2541 
Q 1456 2541 1237 2417 
Q 1019 2294 894 2097 
L 366 2166 
L 809 4519 
L 3088 4519 
L 3088 3981 
L 1259 3981 
L 1013 2750 
Q 1425 3038 1878 3038 
Q 2478 3038 2890 2622 
Q 3303 2206 3303 1553 
Q 3303 931 2941 478 
Q 2500 -78 1738 -78 
Q 1113 -78 717 272 
Q 322 622 266 1200 
z
" transform="scale(0.015625)"/>
       </defs>
       <use xlink:href="#ArialMT-35"/>
       <use xlink:href="#ArialMT-30" x="55.615234"/>
      </g>
     </g>
    </g>
    <g id="ytick_3">
     <g id="line2d_3">
      <g>
       <use xlink:href="#m91320d2e90" x="50.025469" y="184.324671" style="fill: #262626; stroke: #262626; stroke-width: 1.25"/>
      </g>
     </g>
     <g id="text_10">
      <!-- 100 -->
      <g style="fill: #262626" transform="translate(22.174375 188.261468)scale(0.11 -0.11)">
       <use xlink:href="#ArialMT-31"/>
       <use xlink:href="#ArialMT-30" x="55.615234"/>
       <use xlink:href="#ArialMT-30" x="111.230469"/>
      </g>
     </g>
    </g>
    <g id="ytick_4">
     <g id="line2d_4">
      <g>
       <use xlink:href="#m91320d2e90" x="50.025469" y="159.679195" style="fill: #262626; stroke: #262626; stroke-width: 1.25"/>
      </g>
     </g>
     <g id="text_11">
      <!-- 150 -->
      <g style="fill: #262626" transform="translate(22.174375 163.615992)scale(0.11 -0.11)">
       <use xlink:href="#ArialMT-31"/>
       <use xlink:href="#ArialMT-35" x="55.615234"/>
       <use xlink:href="#ArialMT-30" x="111.230469"/>
      </g>
     </g>
    </g>
    <g id="ytick_5">
     <g id="line2d_5">
      <g>
       <use xlink:href="#m91320d2e90" x="50.025469" y="135.033718" style="fill: #262626; stroke: #262626; stroke-width: 1.25"/>
      </g>
     </g>
     <g id="text_12">
      <!-- 200 -->
      <g style="fill: #262626" transform="translate(22.174375 138.970515)scale(0.11 -0.11)">
       <use xlink:href="#ArialMT-32"/>
       <use xlink:href="#ArialMT-30" x="55.615234"/>
       <use xlink:href="#ArialMT-30" x="111.230469"/>
      </g>
     </g>
    </g>
    <g id="ytick_6">
     <g id="line2d_6">
      <g>
       <use xlink:href="#m91320d2e90" x="50.025469" y="110.388241" style="fill: #262626; stroke: #262626; stroke-width: 1.25"/>
      </g>
     </g>
     <g id="text_13">
      <!-- 250 -->
      <g style="fill: #262626" transform="translate(22.174375 114.325038)scale(0.11 -0.11)">
       <use xlink:href="#ArialMT-32"/>
       <use xlink:href="#ArialMT-35" x="55.615234"/>
       <use xlink:href="#ArialMT-30" x="111.230469"/>
      </g>
     </g>
    </g>
    <g id="ytick_7">
     <g id="line2d_7">
      <g>
       <use xlink:href="#m91320d2e90" x="50.025469" y="85.742764" style="fill: #262626; stroke: #262626; stroke-width: 1.25"/>
      </g>
     </g>
     <g id="text_14">
      <!-- 300 -->
      <g style="fill: #262626" transform="translate(22.174375 89.679561)scale(0.11 -0.11)">
       <defs>
        <path id="ArialMT-33" d="M 269 1209 
L 831 1284 
Q 928 806 1161 595 
Q 1394 384 1728 384 
Q 2125 384 2398 659 
Q 2672 934 2672 1341 
Q 2672 1728 2419 1979 
Q 2166 2231 1775 2231 
Q 1616 2231 1378 2169 
L 1441 2663 
Q 1497 2656 1531 2656 
Q 1891 2656 2178 2843 
Q 2466 3031 2466 3422 
Q 2466 3731 2256 3934 
Q 2047 4138 1716 4138 
Q 1388 4138 1169 3931 
Q 950 3725 888 3313 
L 325 3413 
Q 428 3978 793 4289 
Q 1159 4600 1703 4600 
Q 2078 4600 2393 4439 
Q 2709 4278 2876 4000 
Q 3044 3722 3044 3409 
Q 3044 3113 2884 2869 
Q 2725 2625 2413 2481 
Q 2819 2388 3044 2092 
Q 3269 1797 3269 1353 
Q 3269 753 2831 336 
Q 2394 -81 1725 -81 
Q 1122 -81 723 278 
Q 325 638 269 1209 
z
" transform="scale(0.015625)"/>
       </defs>
       <use xlink:href="#ArialMT-33"/>
       <use xlink:href="#ArialMT-30" x="55.615234"/>
       <use xlink:href="#ArialMT-30" x="111.230469"/>
      </g>
     </g>
    </g>
    <g id="ytick_8">
     <g id="line2d_8">
      <g>
       <use xlink:href="#m91320d2e90" x="50.025469" y="61.097288" style="fill: #262626; stroke: #262626; stroke-width: 1.25"/>
      </g>
     </g>
     <g id="text_15">
      <!-- 350 -->
      <g style="fill: #262626" transform="translate(22.174375 65.034084)scale(0.11 -0.11)">
       <use xlink:href="#ArialMT-33"/>
       <use xlink:href="#ArialMT-35" x="55.615234"/>
       <use xlink:href="#ArialMT-30" x="111.230469"/>
      </g>
     </g>
    </g>
    <g id="ytick_9">
     <g id="line2d_9">
      <g>
       <use xlink:href="#m91320d2e90" x="50.025469" y="36.451811" style="fill: #262626; stroke: #262626; stroke-width: 1.25"/>
      </g>
     </g>
     <g id="text_16">
      <!-- 400 -->
      <g style="fill: #262626" transform="translate(22.174375 40.388608)scale(0.11 -0.11)">
       <use xlink:href="#ArialMT-34"/>
       <use xlink:href="#ArialMT-30" x="55.615234"/>
       <use xlink:href="#ArialMT-30" x="111.230469"/>
      </g>
     </g>
    </g>
    <g id="text_17">
     <!-- DHT Related Trials/Month -->
     <g style="fill: #262626" transform="translate(15.789375 201.73125)rotate(-90)scale(0.12 -0.12)">
      <defs>
       <path id="ArialMT-44" d="M 494 0 
L 494 4581 
L 2072 4581 
Q 2606 4581 2888 4516 
Q 3281 4425 3559 4188 
Q 3922 3881 4101 3404 
Q 4281 2928 4281 2316 
Q 4281 1794 4159 1391 
Q 4038 988 3847 723 
Q 3656 459 3429 307 
Q 3203 156 2883 78 
Q 2563 0 2147 0 
L 494 0 
z
M 1100 541 
L 2078 541 
Q 2531 541 2789 625 
Q 3047 709 3200 863 
Q 3416 1078 3536 1442 
Q 3656 1806 3656 2325 
Q 3656 3044 3420 3430 
Q 3184 3816 2847 3947 
Q 2603 4041 2063 4041 
L 1100 4041 
L 1100 541 
z
" transform="scale(0.015625)"/>
       <path id="ArialMT-48" d="M 513 0 
L 513 4581 
L 1119 4581 
L 1119 2700 
L 3500 2700 
L 3500 4581 
L 4106 4581 
L 4106 0 
L 3500 0 
L 3500 2159 
L 1119 2159 
L 1119 0 
L 513 0 
z
" transform="scale(0.015625)"/>
       <path id="ArialMT-54" d="M 1659 0 
L 1659 4041 
L 150 4041 
L 150 4581 
L 3781 4581 
L 3781 4041 
L 2266 4041 
L 2266 0 
L 1659 0 
z
" transform="scale(0.015625)"/>
       <path id="ArialMT-20" transform="scale(0.015625)"/>
       <path id="ArialMT-52" d="M 503 0 
L 503 4581 
L 2534 4581 
Q 3147 4581 3465 4457 
Q 3784 4334 3975 4021 
Q 4166 3709 4166 3331 
Q 4166 2844 3850 2509 
Q 3534 2175 2875 2084 
Q 3116 1969 3241 1856 
Q 3506 1613 3744 1247 
L 4541 0 
L 3778 0 
L 3172 953 
Q 2906 1366 2734 1584 
Q 2563 1803 2427 1890 
Q 2291 1978 2150 2013 
Q 2047 2034 1813 2034 
L 1109 2034 
L 1109 0 
L 503 0 
z
M 1109 2559 
L 2413 2559 
Q 2828 2559 3062 2645 
Q 3297 2731 3419 2920 
Q 3541 3109 3541 3331 
Q 3541 3656 3305 3865 
Q 3069 4075 2559 4075 
L 1109 4075 
L 1109 2559 
z
" transform="scale(0.015625)"/>
       <path id="ArialMT-6c" d="M 409 0 
L 409 4581 
L 972 4581 
L 972 0 
L 409 0 
z
" transform="scale(0.015625)"/>
       <path id="ArialMT-74" d="M 1650 503 
L 1731 6 
Q 1494 -44 1306 -44 
Q 1000 -44 831 53 
Q 663 150 594 308 
Q 525 466 525 972 
L 525 2881 
L 113 2881 
L 113 3319 
L 525 3319 
L 525 4141 
L 1084 4478 
L 1084 3319 
L 1650 3319 
L 1650 2881 
L 1084 2881 
L 1084 941 
Q 1084 700 1114 631 
Q 1144 563 1211 522 
Q 1278 481 1403 481 
Q 1497 481 1650 503 
z
" transform="scale(0.015625)"/>
       <path id="ArialMT-64" d="M 2575 0 
L 2575 419 
Q 2259 -75 1647 -75 
Q 1250 -75 917 144 
Q 584 363 401 755 
Q 219 1147 219 1656 
Q 219 2153 384 2558 
Q 550 2963 881 3178 
Q 1213 3394 1622 3394 
Q 1922 3394 2156 3267 
Q 2391 3141 2538 2938 
L 2538 4581 
L 3097 4581 
L 3097 0 
L 2575 0 
z
M 797 1656 
Q 797 1019 1065 703 
Q 1334 388 1700 388 
Q 2069 388 2326 689 
Q 2584 991 2584 1609 
Q 2584 2291 2321 2609 
Q 2059 2928 1675 2928 
Q 1300 2928 1048 2622 
Q 797 2316 797 1656 
z
" transform="scale(0.015625)"/>
       <path id="ArialMT-69" d="M 425 3934 
L 425 4581 
L 988 4581 
L 988 3934 
L 425 3934 
z
M 425 0 
L 425 3319 
L 988 3319 
L 988 0 
L 425 0 
z
" transform="scale(0.015625)"/>
       <path id="ArialMT-73" d="M 197 991 
L 753 1078 
Q 800 744 1014 566 
Q 1228 388 1613 388 
Q 2000 388 2187 545 
Q 2375 703 2375 916 
Q 2375 1106 2209 1216 
Q 2094 1291 1634 1406 
Q 1016 1563 777 1677 
Q 538 1791 414 1992 
Q 291 2194 291 2438 
Q 291 2659 392 2848 
Q 494 3038 669 3163 
Q 800 3259 1026 3326 
Q 1253 3394 1513 3394 
Q 1903 3394 2198 3281 
Q 2494 3169 2634 2976 
Q 2775 2784 2828 2463 
L 2278 2388 
Q 2241 2644 2061 2787 
Q 1881 2931 1553 2931 
Q 1166 2931 1000 2803 
Q 834 2675 834 2503 
Q 834 2394 903 2306 
Q 972 2216 1119 2156 
Q 1203 2125 1616 2013 
Q 2213 1853 2448 1751 
Q 2684 1650 2818 1456 
Q 2953 1263 2953 975 
Q 2953 694 2789 445 
Q 2625 197 2315 61 
Q 2006 -75 1616 -75 
Q 969 -75 630 194 
Q 291 463 197 991 
z
" transform="scale(0.015625)"/>
       <path id="ArialMT-2f" d="M 0 -78 
L 1328 4659 
L 1778 4659 
L 453 -78 
L 0 -78 
z
" transform="scale(0.015625)"/>
       <path id="ArialMT-4d" d="M 475 0 
L 475 4581 
L 1388 4581 
L 2472 1338 
Q 2622 884 2691 659 
Q 2769 909 2934 1394 
L 4031 4581 
L 4847 4581 
L 4847 0 
L 4263 0 
L 4263 3834 
L 2931 0 
L 2384 0 
L 1059 3900 
L 1059 0 
L 475 0 
z
" transform="scale(0.015625)"/>
       <path id="ArialMT-6f" d="M 213 1659 
Q 213 2581 725 3025 
Q 1153 3394 1769 3394 
Q 2453 3394 2887 2945 
Q 3322 2497 3322 1706 
Q 3322 1066 3130 698 
Q 2938 331 2570 128 
Q 2203 -75 1769 -75 
Q 1072 -75 642 372 
Q 213 819 213 1659 
z
M 791 1659 
Q 791 1022 1069 705 
Q 1347 388 1769 388 
Q 2188 388 2466 706 
Q 2744 1025 2744 1678 
Q 2744 2294 2464 2611 
Q 2184 2928 1769 2928 
Q 1347 2928 1069 2612 
Q 791 2297 791 1659 
z
" transform="scale(0.015625)"/>
       <path id="ArialMT-6e" d="M 422 0 
L 422 3319 
L 928 3319 
L 928 2847 
Q 1294 3394 1984 3394 
Q 2284 3394 2536 3286 
Q 2788 3178 2913 3003 
Q 3038 2828 3088 2588 
Q 3119 2431 3119 2041 
L 3119 0 
L 2556 0 
L 2556 2019 
Q 2556 2363 2490 2533 
Q 2425 2703 2258 2804 
Q 2091 2906 1866 2906 
Q 1506 2906 1245 2678 
Q 984 2450 984 1813 
L 984 0 
L 422 0 
z
" transform="scale(0.015625)"/>
       <path id="ArialMT-68" d="M 422 0 
L 422 4581 
L 984 4581 
L 984 2938 
Q 1378 3394 1978 3394 
Q 2347 3394 2619 3248 
Q 2891 3103 3008 2847 
Q 3125 2591 3125 2103 
L 3125 0 
L 2563 0 
L 2563 2103 
Q 2563 2525 2380 2717 
Q 2197 2909 1863 2909 
Q 1613 2909 1392 2779 
Q 1172 2650 1078 2428 
Q 984 2206 984 1816 
L 984 0 
L 422 0 
z
" transform="scale(0.015625)"/>
      </defs>
      <use xlink:href="#ArialMT-44"/>
      <use xlink:href="#ArialMT-48" x="72.216797"/>
      <use xlink:href="#ArialMT-54" x="144.433594"/>
      <use xlink:href="#ArialMT-20" x="203.767578"/>
      <use xlink:href="#ArialMT-52" x="231.550781"/>
      <use xlink:href="#ArialMT-65" x="303.767578"/>
      <use xlink:href="#ArialMT-6c" x="359.382812"/>
      <use xlink:href="#ArialMT-61" x="381.599609"/>
      <use xlink:href="#ArialMT-74" x="437.214844"/>
      <use xlink:href="#ArialMT-65" x="464.998047"/>
      <use xlink:href="#ArialMT-64" x="520.613281"/>
      <use xlink:href="#ArialMT-20" x="576.228516"/>
      <use xlink:href="#ArialMT-54" x="602.261719"/>
      <use xlink:href="#ArialMT-72" x="659.595703"/>
      <use xlink:href="#ArialMT-69" x="692.896484"/>
      <use xlink:href="#ArialMT-61" x="715.113281"/>
      <use xlink:href="#ArialMT-6c" x="770.728516"/>
      <use xlink:href="#ArialMT-73" x="792.945312"/>
      <use xlink:href="#ArialMT-2f" x="842.945312"/>
      <use xlink:href="#ArialMT-4d" x="870.728516"/>
      <use xlink:href="#ArialMT-6f" x="954.029297"/>
      <use xlink:href="#ArialMT-6e" x="1009.644531"/>
      <use xlink:href="#ArialMT-74" x="1065.259766"/>
      <use xlink:href="#ArialMT-68" x="1093.042969"/>
     </g>
    </g>
   </g>
   <g id="PolyCollection_1"/>
   <g id="line2d_10">
    <path d="M 72.852741 232.629806 
L 74.45214 232.629806 
L 76.161841 232.136896 
L 79.526093 232.136896 
L 81.180642 233.615625 
L 82.890344 233.122715 
L 84.600045 232.136896 
L 86.254595 232.136896 
L 87.964297 231.643987 
L 89.618847 232.629806 
L 91.328548 231.643987 
L 93.03825 233.122715 
L 94.582496 232.629806 
L 96.292198 233.122715 
L 97.946747 230.165258 
L 99.656449 230.165258 
L 101.310999 232.629806 
L 103.0207 232.629806 
L 104.730402 232.136896 
L 106.384952 232.136896 
L 108.094653 230.658168 
L 109.749203 230.658168 
L 111.458905 232.136896 
L 113.168606 230.658168 
L 114.712853 232.629806 
L 116.422554 231.643987 
L 118.077104 233.122715 
L 119.786805 229.672349 
L 123.151057 230.658168 
L 124.860758 231.643987 
L 126.515308 230.658168 
L 128.22501 230.165258 
L 129.87956 229.179439 
L 131.589261 229.179439 
L 133.298963 228.68653 
L 136.552911 230.658168 
L 138.20746 230.165258 
L 139.917162 228.68653 
L 141.571712 230.165258 
L 143.281413 230.658168 
L 144.991115 228.19362 
L 146.645665 227.700711 
L 148.355366 228.68653 
L 150.009916 228.19362 
L 151.719618 228.19362 
L 153.429319 226.221982 
L 155.028717 227.207801 
L 156.738419 227.700711 
L 158.392969 224.250344 
L 160.10267 225.729072 
L 161.75722 225.236163 
L 163.466921 228.19362 
L 165.176623 231.643987 
L 166.831173 227.207801 
L 168.540874 226.221982 
L 170.195424 229.179439 
L 171.905126 227.207801 
L 173.614827 223.757434 
L 175.159074 227.207801 
L 176.868775 227.207801 
L 178.523325 223.264525 
L 180.233027 223.757434 
L 181.887576 226.221982 
L 183.597278 223.264525 
L 186.961529 224.250344 
L 188.671231 222.278706 
L 190.325781 222.771615 
L 192.035482 224.250344 
L 193.745184 216.856701 
L 195.28943 221.292887 
L 196.999132 225.236163 
L 198.653682 221.292887 
L 200.363383 224.250344 
L 202.017933 221.785796 
L 203.727634 218.335429 
L 205.437336 226.221982 
L 207.091886 218.335429 
L 208.801587 211.927605 
L 210.456137 211.927605 
L 212.165839 216.363791 
L 213.87554 211.434696 
L 215.419787 221.292887 
L 217.129488 218.335429 
L 218.784038 221.292887 
L 220.49374 216.856701 
L 222.148289 215.870882 
L 223.857991 212.913425 
L 225.567692 223.757434 
L 227.222242 213.899244 
L 228.931944 218.335429 
L 230.586494 216.856701 
L 232.296195 216.856701 
L 234.005897 206.505601 
L 235.605295 215.870882 
L 237.314996 212.913425 
L 238.969546 213.406334 
L 240.679248 210.448877 
L 242.333798 214.885063 
L 244.043499 211.927605 
L 245.753201 221.292887 
L 247.40775 214.885063 
L 249.117452 209.463058 
L 250.772002 213.406334 
L 252.481703 214.885063 
L 254.191405 207.49142 
L 255.735651 207.984329 
L 257.445353 205.026872 
L 259.099903 218.828339 
L 260.809604 214.885063 
L 262.464154 212.913425 
L 264.173855 211.434696 
L 265.883557 210.448877 
L 267.538107 201.576505 
L 269.247808 210.448877 
L 270.902358 211.927605 
L 272.61206 218.828339 
L 274.321761 198.126138 
L 275.866008 206.505601 
L 277.575709 210.448877 
L 279.230259 206.505601 
L 280.939961 209.463058 
L 282.59451 204.533962 
L 284.304212 205.026872 
L 286.013913 208.477239 
L 287.668463 199.604867 
L 289.378165 200.097777 
L 291.032715 209.955967 
L 292.742416 202.069415 
L 294.452118 189.253767 
L 295.996364 205.519781 
L 297.706066 191.718314 
L 299.360616 205.519781 
L 301.070317 196.64741 
L 302.724867 203.055234 
L 304.434568 188.760857 
L 306.14427 202.562324 
L 307.79882 193.197043 
L 309.508521 203.548143 
L 311.163071 198.619048 
L 312.872773 203.055234 
L 314.582474 187.282129 
L 316.181872 201.083596 
L 317.891574 196.1545 
L 319.546124 201.083596 
L 321.255825 204.533962 
L 322.910375 197.633229 
L 324.620077 204.533962 
L 326.329778 194.182862 
L 327.984328 195.661591 
L 329.694029 190.239586 
L 331.348579 200.097777 
L 333.058281 202.562324 
L 334.767982 166.579928 
L 336.312229 192.211224 
L 338.02193 182.845943 
L 339.67648 181.367214 
L 341.386182 190.732495 
L 343.040732 186.29631 
L 344.750433 191.225405 
L 346.460135 193.197043 
L 348.114684 173.973571 
L 349.824386 182.353033 
L 351.478936 185.310491 
L 353.188637 194.675772 
L 354.898339 139.962813 
L 356.442585 179.888486 
L 358.152287 175.945209 
L 359.806837 174.95939 
L 361.516538 179.888486 
L 364.88079 184.817581 
L 366.590491 174.95939 
L 368.245041 156.228828 
L 369.954742 158.693376 
L 371.609292 180.381395 
L 373.318994 188.267948 
L 375.028695 143.90609 
L 376.572942 172.001933 
L 378.282643 157.214647 
L 379.937193 169.044476 
L 381.646895 166.579928 
L 383.301445 156.228828 
L 385.011146 161.157923 
L 386.720848 169.537385 
L 388.375397 155.735918 
L 390.085099 167.072838 
L 391.739649 168.551566 
L 393.44935 171.016114 
L 395.159052 132.076261 
L 396.75845 159.679195 
L 398.468151 136.512447 
L 400.122701 148.342275 
L 401.832403 139.469904 
L 403.486953 152.285552 
L 405.196654 146.863547 
L 406.906356 149.328094 
L 408.560906 144.398999 
L 410.270607 134.540808 
L 411.925157 142.92027 
L 413.634858 158.693376 
L 415.34456 112.852789 
L 416.888806 139.469904 
L 418.598508 125.668437 
L 420.253058 142.92027 
L 421.962759 129.611713 
L 425.327011 140.948632 
L 427.036712 143.90609 
L 428.691262 117.288975 
L 430.400963 124.189708 
L 432.055513 142.92027 
L 433.765215 154.25719 
L 435.474916 80.813669 
L 437.019163 124.189708 
L 438.728864 106.444965 
L 440.383414 108.909513 
L 442.093116 125.175527 
L 443.747666 119.260613 
L 445.457367 126.654256 
L 448.821618 112.359879 
L 450.53132 98.065503 
L 452.18587 111.86697 
L 453.895571 127.640075 
L 455.605273 77.363302 
L 457.149519 99.051322 
L 458.859221 94.615136 
L 460.513771 104.966236 
L 462.223472 109.895332 
L 463.878022 121.72516 
L 465.587724 108.909513 
L 467.297425 112.359879 
L 468.951975 75.391664 
L 470.661676 70.955478 
L 472.316226 101.515869 
L 474.025928 125.668437 
L 475.735629 59.125649 
L 477.335027 108.416603 
L 479.044729 130.104623 
L 480.699279 165.1012 
L 482.40898 159.679195 
L 484.06353 123.696799 
L 485.773232 107.923693 
L 487.482933 106.444965 
L 489.137483 62.576016 
L 490.847185 73.912936 
L 494.211436 116.796065 
L 495.921137 59.125649 
L 497.465384 78.842031 
L 499.175085 61.097288 
L 500.829635 64.547654 
L 502.539337 81.306579 
L 504.193887 55.182373 
L 505.903588 93.136407 
L 507.61329 96.093865 
L 509.26784 32.015625 
L 510.977541 57.154011 
L 512.632091 85.249855 
L 514.341792 109.895332 
L 516.051494 60.604378 
L 517.59574 80.320759 
L 519.305442 63.561835 
L 520.959992 71.448388 
L 522.669693 65.040564 
L 524.324243 61.097288 
L 526.033945 112.359879 
L 527.743646 81.306579 
L 529.398196 55.675283 
L 529.398196 55.675283 
" clip-path="url(#pce8c4fd782)" style="fill: none; stroke: #f89c0e; stroke-width: 1.5; stroke-linecap: round"/>
   </g>
   <g id="patch_3">
    <path d="M 50.025469 243.695625 
L 552.225469 243.695625 
" style="fill: none; stroke: #262626; stroke-width: 1.25; stroke-linejoin: miter; stroke-linecap: square"/>
   </g>
  </g>
  <g id="axes_2">
   <g id="matplotlib.axis_3">
    <g id="ytick_10">
     <g id="line2d_11">
      <defs>
       <path id="m797b21ab48" d="M 0 0 
L 6 0 
" style="stroke: #262626; stroke-width: 1.25"/>
      </defs>
      <g>
       <use xlink:href="#m797b21ab48" x="552.225469" y="243.695625" style="fill: #262626; stroke: #262626; stroke-width: 1.25"/>
      </g>
     </g>
     <g id="text_18">
      <!-- 0 -->
      <g style="fill: #262626" transform="translate(561.725469 247.632422)scale(0.11 -0.11)">
       <use xlink:href="#ArialMT-30"/>
      </g>
     </g>
    </g>
    <g id="ytick_11">
     <g id="line2d_12">
      <g>
       <use xlink:href="#m797b21ab48" x="552.225469" y="215.975625" style="fill: #262626; stroke: #262626; stroke-width: 1.25"/>
      </g>
     </g>
     <g id="text_19">
      <!-- 2 -->
      <g style="fill: #262626" transform="translate(561.725469 219.912422)scale(0.11 -0.11)">
       <use xlink:href="#ArialMT-32"/>
      </g>
     </g>
    </g>
    <g id="ytick_12">
     <g id="line2d_13">
      <g>
       <use xlink:href="#m797b21ab48" x="552.225469" y="188.255625" style="fill: #262626; stroke: #262626; stroke-width: 1.25"/>
      </g>
     </g>
     <g id="text_20">
      <!-- 4 -->
      <g style="fill: #262626" transform="translate(561.725469 192.192422)scale(0.11 -0.11)">
       <use xlink:href="#ArialMT-34"/>
      </g>
     </g>
    </g>
    <g id="ytick_13">
     <g id="line2d_14">
      <g>
       <use xlink:href="#m797b21ab48" x="552.225469" y="160.535625" style="fill: #262626; stroke: #262626; stroke-width: 1.25"/>
      </g>
     </g>
     <g id="text_21">
      <!-- 6 -->
      <g style="fill: #262626" transform="translate(561.725469 164.472422)scale(0.11 -0.11)">
       <use xlink:href="#ArialMT-36"/>
      </g>
     </g>
    </g>
    <g id="ytick_14">
     <g id="line2d_15">
      <g>
       <use xlink:href="#m797b21ab48" x="552.225469" y="132.815625" style="fill: #262626; stroke: #262626; stroke-width: 1.25"/>
      </g>
     </g>
     <g id="text_22">
      <!-- 8 -->
      <g style="fill: #262626" transform="translate(561.725469 136.752422)scale(0.11 -0.11)">
       <use xlink:href="#ArialMT-38"/>
      </g>
     </g>
    </g>
    <g id="ytick_15">
     <g id="line2d_16">
      <g>
       <use xlink:href="#m797b21ab48" x="552.225469" y="105.095625" style="fill: #262626; stroke: #262626; stroke-width: 1.25"/>
      </g>
     </g>
     <g id="text_23">
      <!-- 10 -->
      <g style="fill: #262626" transform="translate(561.725469 109.032422)scale(0.11 -0.11)">
       <use xlink:href="#ArialMT-31"/>
       <use xlink:href="#ArialMT-30" x="55.615234"/>
      </g>
     </g>
    </g>
    <g id="ytick_16">
     <g id="line2d_17">
      <g>
       <use xlink:href="#m797b21ab48" x="552.225469" y="77.375625" style="fill: #262626; stroke: #262626; stroke-width: 1.25"/>
      </g>
     </g>
     <g id="text_24">
      <!-- 12 -->
      <g style="fill: #262626" transform="translate(561.725469 81.312422)scale(0.11 -0.11)">
       <use xlink:href="#ArialMT-31"/>
       <use xlink:href="#ArialMT-32" x="55.615234"/>
      </g>
     </g>
    </g>
    <g id="ytick_17">
     <g id="line2d_18">
      <g>
       <use xlink:href="#m797b21ab48" x="552.225469" y="49.655625" style="fill: #262626; stroke: #262626; stroke-width: 1.25"/>
      </g>
     </g>
     <g id="text_25">
      <!-- 14 -->
      <g style="fill: #262626" transform="translate(561.725469 53.592422)scale(0.11 -0.11)">
       <use xlink:href="#ArialMT-31"/>
       <use xlink:href="#ArialMT-34" x="55.615234"/>
      </g>
     </g>
    </g>
    <g id="ytick_18">
     <g id="line2d_19">
      <g>
       <use xlink:href="#m797b21ab48" x="552.225469" y="21.935625" style="fill: #262626; stroke: #262626; stroke-width: 1.25"/>
      </g>
     </g>
     <g id="text_26">
      <!-- 16 -->
      <g style="fill: #262626" transform="translate(561.725469 25.872422)scale(0.11 -0.11)">
       <use xlink:href="#ArialMT-31"/>
       <use xlink:href="#ArialMT-36" x="55.615234"/>
      </g>
     </g>
    </g>
    <g id="text_27">
     <!-- % of All Trials -->
     <g style="fill: #262626" transform="translate(586.548906 168.82875)rotate(-90)scale(0.12 -0.12)">
      <defs>
       <path id="ArialMT-25" d="M 372 3481 
Q 372 3972 619 4315 
Q 866 4659 1334 4659 
Q 1766 4659 2048 4351 
Q 2331 4044 2331 3447 
Q 2331 2866 2045 2552 
Q 1759 2238 1341 2238 
Q 925 2238 648 2547 
Q 372 2856 372 3481 
z
M 1350 4272 
Q 1141 4272 1002 4090 
Q 863 3909 863 3425 
Q 863 2984 1003 2804 
Q 1144 2625 1350 2625 
Q 1563 2625 1702 2806 
Q 1841 2988 1841 3469 
Q 1841 3913 1700 4092 
Q 1559 4272 1350 4272 
z
M 1353 -169 
L 3859 4659 
L 4316 4659 
L 1819 -169 
L 1353 -169 
z
M 3334 1075 
Q 3334 1569 3581 1911 
Q 3828 2253 4300 2253 
Q 4731 2253 5014 1945 
Q 5297 1638 5297 1041 
Q 5297 459 5011 145 
Q 4725 -169 4303 -169 
Q 3888 -169 3611 142 
Q 3334 453 3334 1075 
z
M 4316 1866 
Q 4103 1866 3964 1684 
Q 3825 1503 3825 1019 
Q 3825 581 3965 400 
Q 4106 219 4313 219 
Q 4528 219 4667 400 
Q 4806 581 4806 1063 
Q 4806 1506 4665 1686 
Q 4525 1866 4316 1866 
z
" transform="scale(0.015625)"/>
       <path id="ArialMT-66" d="M 556 0 
L 556 2881 
L 59 2881 
L 59 3319 
L 556 3319 
L 556 3672 
Q 556 4006 616 4169 
Q 697 4388 901 4523 
Q 1106 4659 1475 4659 
Q 1713 4659 2000 4603 
L 1916 4113 
Q 1741 4144 1584 4144 
Q 1328 4144 1222 4034 
Q 1116 3925 1116 3625 
L 1116 3319 
L 1763 3319 
L 1763 2881 
L 1116 2881 
L 1116 0 
L 556 0 
z
" transform="scale(0.015625)"/>
       <path id="ArialMT-41" d="M -9 0 
L 1750 4581 
L 2403 4581 
L 4278 0 
L 3588 0 
L 3053 1388 
L 1138 1388 
L 634 0 
L -9 0 
z
M 1313 1881 
L 2866 1881 
L 2388 3150 
Q 2169 3728 2063 4100 
Q 1975 3659 1816 3225 
L 1313 1881 
z
" transform="scale(0.015625)"/>
      </defs>
      <use xlink:href="#ArialMT-25"/>
      <use xlink:href="#ArialMT-20" x="88.916016"/>
      <use xlink:href="#ArialMT-6f" x="116.699219"/>
      <use xlink:href="#ArialMT-66" x="172.314453"/>
      <use xlink:href="#ArialMT-20" x="200.097656"/>
      <use xlink:href="#ArialMT-41" x="222.380859"/>
      <use xlink:href="#ArialMT-6c" x="289.080078"/>
      <use xlink:href="#ArialMT-6c" x="311.296875"/>
      <use xlink:href="#ArialMT-20" x="333.513672"/>
      <use xlink:href="#ArialMT-54" x="359.546875"/>
      <use xlink:href="#ArialMT-72" x="416.880859"/>
      <use xlink:href="#ArialMT-69" x="450.181641"/>
      <use xlink:href="#ArialMT-61" x="472.398438"/>
      <use xlink:href="#ArialMT-6c" x="528.013672"/>
      <use xlink:href="#ArialMT-73" x="550.230469"/>
     </g>
    </g>
   </g>
   <g id="PolyCollection_2"/>
   <g id="line2d_20">
    <path d="M 72.852741 235.865117 
L 74.45214 225.091598 
L 76.161841 218.028958 
L 77.816391 215.60103 
L 79.526093 220.466575 
L 81.180642 243.695625 
L 82.890344 234.978644 
L 84.600045 223.895625 
L 86.254595 227.129888 
L 87.964297 215.553493 
L 89.618847 224.036051 
L 91.328548 206.487571 
L 93.03825 239.701389 
L 94.582496 231.095625 
L 96.292198 237.188583 
L 97.946747 206.523211 
L 99.656449 198.570044 
L 101.310999 231.095625 
L 103.0207 229.90458 
L 104.730402 225.458783 
L 106.384952 229.05478 
L 108.094653 213.56519 
L 109.749203 208.607017 
L 111.458905 222.262635 
L 113.168606 225.091598 
L 114.712853 233.155701 
L 116.422554 225.695625 
L 118.077104 239.495625 
L 119.786805 206.362292 
L 123.151057 219.308528 
L 124.860758 225.869258 
L 126.515308 223.313272 
L 128.22501 219.740069 
L 129.87956 207.539103 
L 131.589261 207.328278 
L 133.298963 221.448434 
L 134.843209 214.439688 
L 136.552911 225.378444 
L 138.20746 223.14054 
L 139.917162 208.065805 
L 141.571712 224.55953 
L 143.281413 225.378444 
L 144.991115 206.510259 
L 146.645665 215.019763 
L 148.355366 217.544682 
L 150.009916 206.143901 
L 151.719618 209.588242 
L 153.429319 217.997232 
L 155.028717 208.911841 
L 156.738419 216.563488 
L 158.392969 200.240179 
L 160.10267 201.932913 
L 161.75722 206.937435 
L 163.466921 217.942247 
L 165.176623 233.633919 
L 166.831173 219.147941 
L 168.540874 213.122096 
L 170.195424 222.730919 
L 171.905126 212.948185 
L 173.614827 217.789083 
L 175.159074 210.875953 
L 176.868775 218.63582 
L 178.523325 202.115625 
L 180.233027 205.981339 
L 181.887576 217.610305 
L 183.597278 203.714856 
L 185.306979 204.432169 
L 186.961529 218.128635 
L 188.671231 205.835768 
L 190.325781 204.401811 
L 192.035482 204.797545 
L 193.745184 207.418489 
L 195.28943 201.075699 
L 196.999132 218.223193 
L 198.653682 203.77627 
L 200.363383 215.710503 
L 202.017933 209.009494 
L 203.727634 190.716587 
L 205.437336 219.294217 
L 208.801587 185.225826 
L 210.456137 177.980108 
L 212.165839 185.599817 
L 213.87554 201.034886 
L 215.419787 204.27583 
L 217.129488 203.502922 
L 218.784038 207.028958 
L 220.49374 196.991958 
L 222.148289 198.294351 
L 223.857991 188.413574 
L 225.567692 216.277227 
L 227.222242 197.687326 
L 228.931944 208.820625 
L 230.586494 199.112844 
L 232.296195 192.362292 
L 234.005897 198.482102 
L 235.605295 200.42069 
L 237.314996 194.819051 
L 238.969546 197.608034 
L 240.679248 187.050408 
L 242.333798 201.425962 
L 244.043499 192.319045 
L 245.753201 213.512698 
L 247.40775 205.139256 
L 249.117452 191.049113 
L 250.772002 193.97909 
L 252.481703 196.289684 
L 254.191405 202.998672 
L 255.735651 185.945625 
L 257.445353 184.499749 
L 259.099903 210.852023 
L 260.809604 198.795369 
L 262.464154 202.351875 
L 264.173855 196.623927 
L 265.883557 189.500949 
L 267.538107 189.619995 
L 269.247808 198.141779 
L 270.902358 196.237259 
L 272.61206 205.723022 
L 274.321761 196.490327 
L 275.866008 183.719228 
L 277.575709 198.237146 
L 279.230259 189.362054 
L 280.939961 194.050888 
L 282.59451 186.710259 
L 284.304212 183.389548 
L 286.013913 190.944879 
L 287.668463 183.244298 
L 289.378165 183.318943 
L 291.032715 193.026927 
L 292.742416 171.928635 
L 294.452118 187.047124 
L 295.996364 183.018206 
L 297.706066 169.46122 
L 299.360616 184.870606 
L 301.070317 171.45796 
L 302.724867 184.676394 
L 304.434568 157.661519 
L 306.14427 184.416603 
L 307.79882 175.681262 
L 309.508521 186.953343 
L 311.163071 180.976696 
L 312.872773 176.770391 
L 314.582474 186.778194 
L 316.181872 183.474427 
L 317.891574 180.582384 
L 319.546124 180.738984 
L 321.255825 189.719387 
L 322.910375 179.577754 
L 324.620077 192.650681 
L 326.329778 169.279518 
L 327.984328 178.262149 
L 329.694029 171.610519 
L 331.348579 179.1422 
L 333.058281 182.160741 
L 334.767982 164.495625 
L 336.312229 165.189893 
L 338.02193 161.081042 
L 339.67648 155.40476 
L 341.386182 167.281176 
L 343.040732 163.973636 
L 344.750433 166.54611 
L 346.460135 166.223232 
L 348.114684 148.245426 
L 349.824386 166.073654 
L 351.478936 159.643645 
L 353.188637 167.921231 
L 354.898339 146.234485 
L 356.442585 152.96049 
L 358.152287 155.755278 
L 359.806837 153.32083 
L 361.516538 157.416927 
L 363.171088 163.793186 
L 364.88079 164.609746 
L 366.590491 139.767459 
L 368.245041 142.012447 
L 369.954742 139.967412 
L 371.609292 156.667718 
L 373.318994 165.896967 
L 376.572942 144.865049 
L 378.282643 138.076156 
L 379.937193 148.684636 
L 381.646895 143.271544 
L 383.301445 137.288779 
L 385.011146 135.838558 
L 386.720848 138.81786 
L 388.375397 144.019703 
L 390.085099 153.911556 
L 391.739649 150.352768 
L 393.44935 143.909911 
L 395.159052 149.153903 
L 396.75845 137.840228 
L 398.468151 122.987402 
L 400.122701 129.732697 
L 401.832403 117.755568 
L 403.486953 141.464959 
L 405.196654 120.682009 
L 406.906356 119.608714 
L 408.560906 133.181969 
L 410.270607 112.781151 
L 411.925157 123.287693 
L 413.634858 140.222148 
L 415.34456 138.857712 
L 416.888806 109.111995 
L 418.598508 115.459884 
L 420.253058 117.633341 
L 421.962759 116.54519 
L 423.617309 121.527269 
L 427.036712 122.769451 
L 428.691262 107.235049 
L 430.400963 114.195625 
L 432.055513 133.818848 
L 433.765215 127.955998 
L 435.474916 114.279962 
L 437.019163 103.962655 
L 440.383414 94.479455 
L 442.093116 111.409291 
L 443.747666 108.019676 
L 445.457367 111.666652 
L 447.167069 103.646845 
L 448.821618 107.313225 
L 450.53132 100.567574 
L 453.895571 104.966575 
L 455.605273 118.199481 
L 457.149519 81.231907 
L 458.859221 97.855326 
L 460.513771 105.940103 
L 462.223472 101.294479 
L 463.878022 113.471287 
L 465.587724 97.588125 
L 467.297425 87.365501 
L 468.951975 85.366088 
L 470.661676 78.51686 
L 472.316226 86.302405 
L 474.025928 106.474106 
L 475.735629 92.449016 
L 477.335027 92.40899 
L 479.044729 119.470273 
L 480.699279 148.698584 
L 482.40898 145.1181 
L 484.06353 130.48024 
L 485.773232 112.260147 
L 487.482933 96.418854 
L 489.137483 95.119165 
L 490.847185 98.320423 
L 492.501734 97.882821 
L 494.211436 122.618589 
L 497.465384 84.629836 
L 499.175085 102.10193 
L 500.829635 85.440632 
L 502.539337 92.894921 
L 504.193887 75.216109 
L 505.903588 89.815609 
L 507.61329 89.572867 
L 509.26784 62.874572 
L 510.977541 69.165903 
L 512.632091 89.865979 
L 514.341792 104.206451 
L 516.051494 79.674721 
L 517.59574 63.41708 
L 519.305442 82.749816 
L 520.959992 70.511424 
L 522.669693 72.20069 
L 524.324243 66.71642 
L 526.033945 99.467199 
L 527.743646 69.812556 
L 529.398196 77.357194 
L 529.398196 77.357194 
" clip-path="url(#pce8c4fd782)" style="fill: none; stroke-dasharray: 1.5,2.475; stroke-dashoffset: 0; stroke: #b00c36; stroke-width: 1.5"/>
   </g>
   <g id="patch_4">
    <path d="M 50.025469 243.695625 
L 552.225469 243.695625 
" style="fill: none; stroke: #262626; stroke-width: 1.25; stroke-linejoin: miter; stroke-linecap: square"/>
   </g>
   <g id="text_28">
    <!-- Development of DHT ClinicalTrials.gov Trials -->
    <g style="fill: #262626" transform="translate(182.423906 15.935625)scale(0.12 -0.12)">
     <defs>
      <path id="ArialMT-76" d="M 1344 0 
L 81 3319 
L 675 3319 
L 1388 1331 
Q 1503 1009 1600 663 
Q 1675 925 1809 1294 
L 2547 3319 
L 3125 3319 
L 1869 0 
L 1344 0 
z
" transform="scale(0.015625)"/>
      <path id="ArialMT-70" d="M 422 -1272 
L 422 3319 
L 934 3319 
L 934 2888 
Q 1116 3141 1344 3267 
Q 1572 3394 1897 3394 
Q 2322 3394 2647 3175 
Q 2972 2956 3137 2557 
Q 3303 2159 3303 1684 
Q 3303 1175 3120 767 
Q 2938 359 2589 142 
Q 2241 -75 1856 -75 
Q 1575 -75 1351 44 
Q 1128 163 984 344 
L 984 -1272 
L 422 -1272 
z
M 931 1641 
Q 931 1000 1190 694 
Q 1450 388 1819 388 
Q 2194 388 2461 705 
Q 2728 1022 2728 1688 
Q 2728 2322 2467 2637 
Q 2206 2953 1844 2953 
Q 1484 2953 1207 2617 
Q 931 2281 931 1641 
z
" transform="scale(0.015625)"/>
      <path id="ArialMT-6d" d="M 422 0 
L 422 3319 
L 925 3319 
L 925 2853 
Q 1081 3097 1340 3245 
Q 1600 3394 1931 3394 
Q 2300 3394 2536 3241 
Q 2772 3088 2869 2813 
Q 3263 3394 3894 3394 
Q 4388 3394 4653 3120 
Q 4919 2847 4919 2278 
L 4919 0 
L 4359 0 
L 4359 2091 
Q 4359 2428 4304 2576 
Q 4250 2725 4106 2815 
Q 3963 2906 3769 2906 
Q 3419 2906 3187 2673 
Q 2956 2441 2956 1928 
L 2956 0 
L 2394 0 
L 2394 2156 
Q 2394 2531 2256 2718 
Q 2119 2906 1806 2906 
Q 1569 2906 1367 2781 
Q 1166 2656 1075 2415 
Q 984 2175 984 1722 
L 984 0 
L 422 0 
z
" transform="scale(0.015625)"/>
      <path id="ArialMT-43" d="M 3763 1606 
L 4369 1453 
Q 4178 706 3683 314 
Q 3188 -78 2472 -78 
Q 1731 -78 1267 223 
Q 803 525 561 1097 
Q 319 1669 319 2325 
Q 319 3041 592 3573 
Q 866 4106 1370 4382 
Q 1875 4659 2481 4659 
Q 3169 4659 3637 4309 
Q 4106 3959 4291 3325 
L 3694 3184 
Q 3534 3684 3231 3912 
Q 2928 4141 2469 4141 
Q 1941 4141 1586 3887 
Q 1231 3634 1087 3207 
Q 944 2781 944 2328 
Q 944 1744 1114 1308 
Q 1284 872 1643 656 
Q 2003 441 2422 441 
Q 2931 441 3284 734 
Q 3638 1028 3763 1606 
z
" transform="scale(0.015625)"/>
      <path id="ArialMT-63" d="M 2588 1216 
L 3141 1144 
Q 3050 572 2676 248 
Q 2303 -75 1759 -75 
Q 1078 -75 664 370 
Q 250 816 250 1647 
Q 250 2184 428 2587 
Q 606 2991 970 3192 
Q 1334 3394 1763 3394 
Q 2303 3394 2647 3120 
Q 2991 2847 3088 2344 
L 2541 2259 
Q 2463 2594 2264 2762 
Q 2066 2931 1784 2931 
Q 1359 2931 1093 2626 
Q 828 2322 828 1663 
Q 828 994 1084 691 
Q 1341 388 1753 388 
Q 2084 388 2306 591 
Q 2528 794 2588 1216 
z
" transform="scale(0.015625)"/>
      <path id="ArialMT-2e" d="M 581 0 
L 581 641 
L 1222 641 
L 1222 0 
L 581 0 
z
" transform="scale(0.015625)"/>
      <path id="ArialMT-67" d="M 319 -275 
L 866 -356 
Q 900 -609 1056 -725 
Q 1266 -881 1628 -881 
Q 2019 -881 2231 -725 
Q 2444 -569 2519 -288 
Q 2563 -116 2559 434 
Q 2191 0 1641 0 
Q 956 0 581 494 
Q 206 988 206 1678 
Q 206 2153 378 2554 
Q 550 2956 876 3175 
Q 1203 3394 1644 3394 
Q 2231 3394 2613 2919 
L 2613 3319 
L 3131 3319 
L 3131 450 
Q 3131 -325 2973 -648 
Q 2816 -972 2473 -1159 
Q 2131 -1347 1631 -1347 
Q 1038 -1347 672 -1080 
Q 306 -813 319 -275 
z
M 784 1719 
Q 784 1066 1043 766 
Q 1303 466 1694 466 
Q 2081 466 2343 764 
Q 2606 1063 2606 1700 
Q 2606 2309 2336 2618 
Q 2066 2928 1684 2928 
Q 1309 2928 1046 2623 
Q 784 2319 784 1719 
z
" transform="scale(0.015625)"/>
     </defs>
     <use xlink:href="#ArialMT-44"/>
     <use xlink:href="#ArialMT-65" x="72.216797"/>
     <use xlink:href="#ArialMT-76" x="127.832031"/>
     <use xlink:href="#ArialMT-65" x="177.832031"/>
     <use xlink:href="#ArialMT-6c" x="233.447266"/>
     <use xlink:href="#ArialMT-6f" x="255.664062"/>
     <use xlink:href="#ArialMT-70" x="311.279297"/>
     <use xlink:href="#ArialMT-6d" x="366.894531"/>
     <use xlink:href="#ArialMT-65" x="450.195312"/>
     <use xlink:href="#ArialMT-6e" x="505.810547"/>
     <use xlink:href="#ArialMT-74" x="561.425781"/>
     <use xlink:href="#ArialMT-20" x="589.208984"/>
     <use xlink:href="#ArialMT-6f" x="616.992188"/>
     <use xlink:href="#ArialMT-66" x="672.607422"/>
     <use xlink:href="#ArialMT-20" x="700.390625"/>
     <use xlink:href="#ArialMT-44" x="728.173828"/>
     <use xlink:href="#ArialMT-48" x="800.390625"/>
     <use xlink:href="#ArialMT-54" x="872.607422"/>
     <use xlink:href="#ArialMT-20" x="931.941406"/>
     <use xlink:href="#ArialMT-43" x="959.724609"/>
     <use xlink:href="#ArialMT-6c" x="1031.941406"/>
     <use xlink:href="#ArialMT-69" x="1054.158203"/>
     <use xlink:href="#ArialMT-6e" x="1076.375"/>
     <use xlink:href="#ArialMT-69" x="1131.990234"/>
     <use xlink:href="#ArialMT-63" x="1154.207031"/>
     <use xlink:href="#ArialMT-61" x="1204.207031"/>
     <use xlink:href="#ArialMT-6c" x="1259.822266"/>
     <use xlink:href="#ArialMT-54" x="1282.039062"/>
     <use xlink:href="#ArialMT-72" x="1339.373047"/>
     <use xlink:href="#ArialMT-69" x="1372.673828"/>
     <use xlink:href="#ArialMT-61" x="1394.890625"/>
     <use xlink:href="#ArialMT-6c" x="1450.505859"/>
     <use xlink:href="#ArialMT-73" x="1472.722656"/>
     <use xlink:href="#ArialMT-2e" x="1522.722656"/>
     <use xlink:href="#ArialMT-67" x="1550.505859"/>
     <use xlink:href="#ArialMT-6f" x="1606.121094"/>
     <use xlink:href="#ArialMT-76" x="1661.736328"/>
     <use xlink:href="#ArialMT-20" x="1711.736328"/>
     <use xlink:href="#ArialMT-54" x="1737.769531"/>
     <use xlink:href="#ArialMT-72" x="1795.103516"/>
     <use xlink:href="#ArialMT-69" x="1828.404297"/>
     <use xlink:href="#ArialMT-61" x="1850.621094"/>
     <use xlink:href="#ArialMT-6c" x="1906.236328"/>
     <use xlink:href="#ArialMT-73" x="1928.453125"/>
    </g>
   </g>
   <g id="legend_1">
    <g id="patch_5">
     <path d="M 55.855069 61.18627 
L 159.01947 61.18627 
Q 160.68507 61.18627 160.68507 59.52067 
L 160.68507 27.765225 
Q 160.68507 26.099625 159.01947 26.099625 
L 55.855069 26.099625 
Q 54.189469 26.099625 54.189469 27.765225 
L 54.189469 59.52067 
Q 54.189469 61.18627 55.855069 61.18627 
z
" style="fill: #ffffff; opacity: 0.8; stroke: #cccccc; stroke-linejoin: miter"/>
    </g>
    <g id="line2d_21">
     <path d="M 57.520669 32.477051 
L 65.848669 32.477051 
L 74.176669 32.477051 
" style="fill: none; stroke: #f89c0e; stroke-width: 1.5; stroke-linecap: round"/>
    </g>
    <g id="text_29">
     <!-- Absolute DHT Trials -->
     <g style="fill: #262626" transform="translate(80.839069 35.391851)scale(0.08328 -0.08328)">
      <defs>
       <path id="ArialMT-62" d="M 941 0 
L 419 0 
L 419 4581 
L 981 4581 
L 981 2947 
Q 1338 3394 1891 3394 
Q 2197 3394 2470 3270 
Q 2744 3147 2920 2923 
Q 3097 2700 3197 2384 
Q 3297 2069 3297 1709 
Q 3297 856 2875 390 
Q 2453 -75 1863 -75 
Q 1275 -75 941 416 
L 941 0 
z
M 934 1684 
Q 934 1088 1097 822 
Q 1363 388 1816 388 
Q 2184 388 2453 708 
Q 2722 1028 2722 1663 
Q 2722 2313 2464 2622 
Q 2206 2931 1841 2931 
Q 1472 2931 1203 2611 
Q 934 2291 934 1684 
z
" transform="scale(0.015625)"/>
       <path id="ArialMT-75" d="M 2597 0 
L 2597 488 
Q 2209 -75 1544 -75 
Q 1250 -75 995 37 
Q 741 150 617 320 
Q 494 491 444 738 
Q 409 903 409 1263 
L 409 3319 
L 972 3319 
L 972 1478 
Q 972 1038 1006 884 
Q 1059 663 1231 536 
Q 1403 409 1656 409 
Q 1909 409 2131 539 
Q 2353 669 2445 892 
Q 2538 1116 2538 1541 
L 2538 3319 
L 3100 3319 
L 3100 0 
L 2597 0 
z
" transform="scale(0.015625)"/>
      </defs>
      <use xlink:href="#ArialMT-41"/>
      <use xlink:href="#ArialMT-62" x="66.699219"/>
      <use xlink:href="#ArialMT-73" x="122.314453"/>
      <use xlink:href="#ArialMT-6f" x="172.314453"/>
      <use xlink:href="#ArialMT-6c" x="227.929688"/>
      <use xlink:href="#ArialMT-75" x="250.146484"/>
      <use xlink:href="#ArialMT-74" x="305.761719"/>
      <use xlink:href="#ArialMT-65" x="333.544922"/>
      <use xlink:href="#ArialMT-20" x="389.160156"/>
      <use xlink:href="#ArialMT-44" x="416.943359"/>
      <use xlink:href="#ArialMT-48" x="489.160156"/>
      <use xlink:href="#ArialMT-54" x="561.376953"/>
      <use xlink:href="#ArialMT-20" x="620.710938"/>
      <use xlink:href="#ArialMT-54" x="646.744141"/>
      <use xlink:href="#ArialMT-72" x="704.078125"/>
      <use xlink:href="#ArialMT-69" x="737.378906"/>
      <use xlink:href="#ArialMT-61" x="759.595703"/>
      <use xlink:href="#ArialMT-6c" x="815.210938"/>
      <use xlink:href="#ArialMT-73" x="837.427734"/>
     </g>
    </g>
    <g id="line2d_22">
     <path d="M 57.520669 49.598769 
L 65.848669 49.598769 
L 74.176669 49.598769 
" style="fill: none; stroke-dasharray: 1.5,2.475; stroke-dashoffset: 0; stroke: #b00c36; stroke-width: 1.5"/>
    </g>
    <g id="text_30">
     <!-- % of all Trials -->
     <g style="fill: #262626" transform="translate(80.839069 47.172067)scale(0.08328 -0.08328)">
      <use xlink:href="#ArialMT-25"/>
      <use xlink:href="#ArialMT-20" x="88.916016"/>
      <use xlink:href="#ArialMT-6f" x="116.699219"/>
      <use xlink:href="#ArialMT-66" x="172.314453"/>
      <use xlink:href="#ArialMT-20" x="200.097656"/>
      <use xlink:href="#ArialMT-61" x="227.880859"/>
      <use xlink:href="#ArialMT-6c" x="283.496094"/>
      <use xlink:href="#ArialMT-6c" x="305.712891"/>
      <use xlink:href="#ArialMT-20" x="327.929688"/>
      <use xlink:href="#ArialMT-54" x="353.962891"/>
      <use xlink:href="#ArialMT-72" x="411.296875"/>
      <use xlink:href="#ArialMT-69" x="444.597656"/>
      <use xlink:href="#ArialMT-61" x="466.814453"/>
      <use xlink:href="#ArialMT-6c" x="522.429688"/>
      <use xlink:href="#ArialMT-73" x="544.646484"/>
     </g>
     <!--  on ClinicalTrials.gov -->
     <g style="fill: #262626" transform="translate(80.839069 56.102286)scale(0.08328 -0.08328)">
      <use xlink:href="#ArialMT-20"/>
      <use xlink:href="#ArialMT-6f" x="27.783203"/>
      <use xlink:href="#ArialMT-6e" x="83.398438"/>
      <use xlink:href="#ArialMT-20" x="139.013672"/>
      <use xlink:href="#ArialMT-43" x="166.796875"/>
      <use xlink:href="#ArialMT-6c" x="239.013672"/>
      <use xlink:href="#ArialMT-69" x="261.230469"/>
      <use xlink:href="#ArialMT-6e" x="283.447266"/>
      <use xlink:href="#ArialMT-69" x="339.0625"/>
      <use xlink:href="#ArialMT-63" x="361.279297"/>
      <use xlink:href="#ArialMT-61" x="411.279297"/>
      <use xlink:href="#ArialMT-6c" x="466.894531"/>
      <use xlink:href="#ArialMT-54" x="489.111328"/>
      <use xlink:href="#ArialMT-72" x="546.445312"/>
      <use xlink:href="#ArialMT-69" x="579.746094"/>
      <use xlink:href="#ArialMT-61" x="601.962891"/>
      <use xlink:href="#ArialMT-6c" x="657.578125"/>
      <use xlink:href="#ArialMT-73" x="679.794922"/>
      <use xlink:href="#ArialMT-2e" x="729.794922"/>
      <use xlink:href="#ArialMT-67" x="757.578125"/>
      <use xlink:href="#ArialMT-6f" x="813.193359"/>
      <use xlink:href="#ArialMT-76" x="868.808594"/>
     </g>
    </g>
   </g>
  </g>
 </g>
 <defs>
  <clipPath id="pce8c4fd782">
   <rect x="50.025469" y="21.935625" width="502.2" height="221.76"/>
  </clipPath>
 </defs>
</svg>
